<svg id="ubicacion" xmlns="http://www.w3.org/2000/svg" width="14.818" height="19.757" viewBox="0 0 14.818 19.757">
  <g id="Grupo_1101766" data-name="Grupo 1101766">
    <g id="Grupo_1101765" data-name="Grupo 1101765">
      <path id="Trazado_875037" data-name="Trazado 875037" d="M200.644,192.823h-1.306a.416.416,0,0,1-.291-.121l-.341-.341a1.227,1.227,0,0,0-.873-.362h-1.788a1.227,1.227,0,0,0-.873.362l-.341.341a.416.416,0,0,1-.291.121h-1.306A1.236,1.236,0,0,0,192,194.058V199a1.236,1.236,0,0,0,1.235,1.235h7.409A1.236,1.236,0,0,0,201.878,199v-4.939A1.236,1.236,0,0,0,200.644,192.823Zm-3.7,6.174a2.47,2.47,0,1,1,2.47-2.47A2.472,2.472,0,0,1,196.939,199Z" transform="translate(-187.061 -184.591)" fill="#348c7b"/>
      <circle id="Elipse_11496" data-name="Elipse 11496" cx="1.646" cy="1.646" r="1.646" transform="translate(8.232 10.29)" fill="#348c7b"/>
      <path id="Trazado_875038" data-name="Trazado 875038" d="M70.586,3.293A3.28,3.28,0,0,1,73.839,6.22a.412.412,0,0,0,.409.366h.524a2.042,2.042,0,0,1,1.455.6l.1.1a.414.414,0,0,0,.291.12h.115a.412.412,0,0,0,.411-.385l.01-.125c.009-.1.017-.207.017-.313a6.586,6.586,0,1,0-12.381,3.13l2.554,4.618a.412.412,0,0,0,.772-.2V9.467a2.055,2.055,0,0,1,.046-.427.411.411,0,0,0-.088-.35,3.247,3.247,0,0,1-.782-2.1A3.3,3.3,0,0,1,70.586,3.293Z" transform="translate(-64 0)" fill="#348c7b"/>
      <path id="Trazado_875039" data-name="Trazado 875039" d="M188,419.874h-1.777a2.039,2.039,0,0,1-.919-.228.412.412,0,0,0-.545.567l1.516,2.742a.412.412,0,0,0,.72,0l1.365-2.47a.412.412,0,0,0-.36-.611Z" transform="translate(-180.053 -403.41)" fill="#348c7b"/>
    </g>
  </g>
</svg>
