<svg xmlns="http://www.w3.org/2000/svg" xmlns:xlink="http://www.w3.org/1999/xlink" width="105.979" height="107" viewBox="0 0 105.979 107">
  <defs>
    <clipPath id="clip-path">
      <rect id="Rectángulo_403667" data-name="Rectángulo 403667" width="75" height="75" transform="translate(-6263.52 -9488.764)" fill="#fff"/>
    </clipPath>
    <clipPath id="clip-path-2">
      <path id="path19536" d="M0-75H75V0H0Z"/>
    </clipPath>
  </defs>
  <g id="Grupo_1103125" data-name="Grupo 1103125" transform="translate(6280 9495.764)">
    <g id="Grupo_1102997" data-name="Grupo 1102997">
      <path id="Trazado_876608" data-name="Trazado 876608" d="M0,0V105.979H81.432L107,51.826,81.432,0Z" transform="translate(-6174.021 -9495.764) rotate(90)" fill="#afd1e6"/>
      <g id="Enmascarar_grupo_1098687" data-name="Enmascarar grupo 1098687" clip-path="url(#clip-path)">
        <g id="g19530" transform="translate(-6263.52 -9413.764)">
          <g id="g19532">
            <g id="g19534" clip-path="url(#clip-path-2)">
              <g id="g19540" transform="translate(32.007 -57.825)">
                <path id="path19542" d="M0,0A2.566,2.566,0,0,1,2.563-2.563H8.423A2.566,2.566,0,0,1,10.986,0V2.93L14.5,5.859l3.076-2.93V0A9.166,9.166,0,0,0,8.423-9.155H2.563A9.166,9.166,0,0,0-6.592,0V2.93l3.076,2.93L0,2.93Z" fill="#bd7669"/>
              </g>
              <g id="g19544" transform="translate(73.901 -40.979)">
                <path id="path19546" d="M0,0-13.916-13.916l-4.395,2.93-4.395-2.93H-35.471a8.788,8.788,0,0,0-6.215,2.574L-45.7-7.324V26.367l4.018,4.018a8.789,8.789,0,0,0,6.215,2.574h12.766l4.395-2.93,4.4,2.93c0-.061,0-.121,0-.183L0,18.86Z" fill="#e8b5b1"/>
              </g>
              <g id="g19548" transform="translate(32.593 -14.863)">
                <path id="path19550" d="M0,0V-33.44a6.592,6.592,0,0,1,6.592-6.592H-8.914l-4.395,2.93-4.395-2.93L-31.494-26.117V-7.254L-17.7,6.661c0,.061,0,.122,0,.183l4.4-2.93,4.395,2.93H6.592A6.593,6.593,0,0,1,0,0" fill="#d6948c"/>
              </g>
              <g id="g19552" transform="translate(73.901 -40.979)">
                <path id="path19554" d="M0,0V-7.324a6.592,6.592,0,0,0-6.592-6.592h-7.324A13.916,13.916,0,0,0,0,0" fill="#d6948c"/>
              </g>
              <g id="g19556" transform="translate(73.901 -14.612)">
                <path id="path19558" d="M0,0V-7.507A13.916,13.916,0,0,0-13.916,6.409c0,.061,0,.122,0,.183h7.322A6.592,6.592,0,0,0,0,0" fill="#d6948c"/>
              </g>
              <g id="g19560" transform="translate(14.889 -54.895)">
                <path id="path19562" d="M0,0H-7.2a6.592,6.592,0,0,0-6.592,6.592v7.323A13.915,13.915,0,0,0,0,0" fill="#ce857a"/>
              </g>
              <g id="g19564" transform="translate(1.099 -22.117)">
                <path id="path19566" d="M0,0V7.505A6.592,6.592,0,0,0,6.592,14.1h7.2c0-.061,0-.121,0-.183A13.916,13.916,0,0,0,0,0" fill="#ce857a"/>
              </g>
              <g id="g19568" transform="translate(46.916 -50.499)">
                <path id="path19570" d="M0,0A6.614,6.614,0,0,1,4.28,1.581V5.387H-2.787V1.125Z" fill="#30cd9c"/>
              </g>
              <g id="g19572" transform="translate(44.604 -45.488)">
                <path id="path19574" d="M0,0A6.576,6.576,0,0,1,2.312-5.011a6.557,6.557,0,0,0-3.3.883A6.593,6.593,0,0,0-4.173,2.785L.011.376C0,.253,0,.124,0,0" fill="#18c08b"/>
              </g>
              <g id="g19576" transform="translate(53.394 -45.113)">
                <path id="path19578" d="M0,0H-7.059V6.216H-2.2A6.6,6.6,0,0,0,0,0" fill="#ff8e9e"/>
              </g>
              <g id="g19580" transform="translate(46.335 -41.037)">
                <path id="path19582" d="M0,0H-3.706V2.14a6.593,6.593,0,0,0,7.58.7,6.621,6.621,0,0,0,.986-.7A6.573,6.573,0,0,1,0,0" fill="#ea5b70"/>
              </g>
              <g id="g19584" transform="translate(52.621 -47.204)">
                <path id="path19586" d="M0,0A6.577,6.577,0,0,0-1.425-1.715L-8.006,2.091V6.167h1.72L.772,2.091A6.579,6.579,0,0,0,0,0" fill="#ffce71"/>
              </g>
              <g id="g19588" transform="translate(44.615 -45.113)">
                <path id="path19590" d="M0,0-4.184,2.409a6.6,6.6,0,0,0,2.2,3.806L1.72,4.075A6.549,6.549,0,0,1,0,0" fill="#ffb357"/>
              </g>
              <g id="g19592" transform="translate(28.073 -23.617)">
                <path id="path19594" d="M0,0-4.734,2.341l.34,5.271,3.806,2.2L2.833,8.117A2.2,2.2,0,0,0,4.051,6.006L3.806,2.2Z" fill="#ffce71"/>
              </g>
              <g id="g19596" transform="translate(31.879 -21.419)">
                <path id="path19598" d="M0,0-2.2,3.806l-2.2,3.806,1.9,1.1a2.2,2.2,0,0,0,3-.8L1.608,6l1.1-1.9a2.2,2.2,0,0,0-.8-3Z" fill="#ea5b70"/>
              </g>
              <g id="g19600" transform="translate(26.17 -24.715)">
                <path id="path19602" d="M0,0A2.2,2.2,0,0,0-3,.8l-1.1,1.9-1.1,1.9a2.2,2.2,0,0,0,.8,3l1.9,1.1L-.294,4.9,1.9,1.1Z" fill="#18c08b"/>
              </g>
              <path id="path19604" d="M23.679-8.02H14.89V-54.9h8.789Z" fill="#bd7669"/>
              <path id="path19606" d="M59.985-8.02H51.2V-54.9h8.789Z" fill="#ce857a"/>
              <g id="g19608" transform="translate(29.319 -32.126)">
                <path id="path19610" d="M0,0C-1.818-.006-3.3,1.163-3.3,2.611S-1.834,5.237-.016,5.243s3.3-1.163,3.3-2.611S1.818.006,0,0" fill="#ffdbe0"/>
              </g>
              <g id="g19612" transform="translate(45.698 -32.071)">
                <path id="path19614" d="M0,0C-1.818-.006-3.3,1.163-3.3,2.611S-1.834,5.238-.016,5.243s3.3-1.163,3.3-2.611S1.818.006,0,0" fill="#ffdbe0"/>
              </g>
              <g id="g19616" transform="translate(19.284 -44.275)">
                <path id="path19618" d="M0,0A1.1,1.1,0,0,0-1.1,1.1,1.1,1.1,0,0,0,0,2.2,1.1,1.1,0,0,0,1.1,1.1,1.1,1.1,0,0,0,0,0"/>
              </g>
              <g id="g19620" transform="translate(55.591 -44.275)">
                <path id="path19622" d="M0,0A1.1,1.1,0,0,0-1.1,1.1,1.1,1.1,0,0,0,0,2.2,1.1,1.1,0,0,0,1.1,1.1,1.1,1.1,0,0,0,0,0"/>
              </g>
              <g id="g19624" transform="translate(19.284 -32.556)">
                <path id="path19626" d="M0,0A1.1,1.1,0,0,0-1.1,1.1,1.1,1.1,0,0,0,0,2.2,1.1,1.1,0,0,0,1.1,1.1,1.1,1.1,0,0,0,0,0"/>
              </g>
              <g id="g19628" transform="translate(55.591 -32.556)">
                <path id="path19630" d="M0,0A1.1,1.1,0,0,0-1.1,1.1,1.1,1.1,0,0,0,0,2.2,1.1,1.1,0,0,0,1.1,1.1,1.1,1.1,0,0,0,0,0"/>
              </g>
              <g id="g19632" transform="translate(19.284 -20.837)">
                <path id="path19634" d="M0,0A1.1,1.1,0,0,0-1.1,1.1,1.1,1.1,0,0,0,0,2.2,1.1,1.1,0,0,0,1.1,1.1,1.1,1.1,0,0,0,0,0"/>
              </g>
              <g id="g19636" transform="translate(55.591 -20.837)">
                <path id="path19638" d="M0,0A1.1,1.1,0,0,0-1.1,1.1,1.1,1.1,0,0,0,0,2.2,1.1,1.1,0,0,0,1.1,1.1,1.1,1.1,0,0,0,0,0"/>
              </g>
              <g id="g19640" transform="translate(30.322 -34.952)">
                <path id="path19642" d="M0,0A1.1,1.1,0,0,0-1.1,1.1V2.563A1.1,1.1,0,0,0,0,3.662a1.1,1.1,0,0,0,1.1-1.1V1.1A1.1,1.1,0,0,0,0,0"/>
              </g>
              <g id="g19644" transform="translate(44.678 -31.29)">
                <path id="path19646" d="M0,0A1.1,1.1,0,0,0,1.1-1.1V-2.563A1.1,1.1,0,0,0,0-3.662a1.1,1.1,0,0,0-1.1,1.1V-1.1A1.1,1.1,0,0,0,0,0"/>
              </g>
              <g id="g19648" transform="translate(36.221 -33.155)">
                <path id="path19650" d="M0,0A1.1,1.1,0,0,0-1.465-.517,1.1,1.1,0,0,0-1.982.948a3.71,3.71,0,0,0,6.67,0A1.1,1.1,0,1,0,2.705,0,1.5,1.5,0,0,1,1.353.84,1.5,1.5,0,0,1,0,0"/>
              </g>
              <g id="g19652" transform="translate(61.131 -53.796)">
                <path id="path19654" d="M0,0H6.178a5.5,5.5,0,0,1,5.493,5.493v6.178A12.838,12.838,0,0,1,0,0M11.671,32.824v6.361a5.5,5.5,0,0,1-5.493,5.493H-.015A12.838,12.838,0,0,1,11.671,32.824M-8.837,0h6.592V44.678H-8.837ZM-45.143,0h6.592V44.678h-6.592ZM-58.934,39.185V32.837a12.865,12.865,0,0,1,11.56,11.841h-6.067a5.5,5.5,0,0,1-5.493-5.493m0-27.526V5.493A5.5,5.5,0,0,1-53.441,0h6.052A12.867,12.867,0,0,1-58.934,11.658M-34.618-4.028a8.066,8.066,0,0,1,8.057-8.057H-20.7a8.066,8.066,0,0,1,8.057,8.057V-2.2H-17.04V-4.028A3.666,3.666,0,0,0-20.7-7.69h-5.859a3.666,3.666,0,0,0-3.662,3.662V-2.2h-4.395ZM-19.237-2.2h-8.789V-4.028a1.467,1.467,0,0,1,1.465-1.465H-20.7a1.467,1.467,0,0,1,1.465,1.465ZM-34.049,38.488l-1.9-1.1,3.3-5.709,1.9,1.1Zm6.15-4.061a1.1,1.1,0,0,1,.4,1.5l-2.2,3.806a1.1,1.1,0,0,1-1.5.4l-.951-.549,3.3-5.709Zm-7.612-4.395.952.549-1.8,3.109V29.93a1.1,1.1,0,0,1,.844.1M-11.034,2.89a7.705,7.705,0,0,0-7.03.338,7.689,7.689,0,0,0-2.815,10.505,7.68,7.68,0,0,0,9.845,3.151V44.678H-36.354V39.694l4.061,2.344a3.3,3.3,0,0,0,4.5-1.206l2.2-3.806a3.3,3.3,0,0,0-1.206-4.5l-7.612-4.395a3.29,3.29,0,0,0-1.942-.423V0h25.321Zm0,8.965v2.508a5.467,5.467,0,0,1-5.342.576Zm-8.638-2.622a5.464,5.464,0,0,1,2.706-4.1,5.5,5.5,0,0,1,4.9-.293c-6,3.471-4.326,2.5-7.61,4.394m8.638-2.45V9.318l-7.3,4.214a5.539,5.539,0,0,1-1.1-1.9c4.259-2.452,2.429-1.4,8.4-4.847m23.8,9.435a1.1,1.1,0,0,0,1.1-1.1V5.493A7.7,7.7,0,0,0,6.178-2.2H-10.448V-4.028A10.266,10.266,0,0,0-20.7-14.282h-5.859A10.266,10.266,0,0,0-36.815-4.028V-2.2H-53.441a7.7,7.7,0,0,0-7.69,7.69V25.115a1.1,1.1,0,0,0,1.1,1.1,1.1,1.1,0,0,0,1.1-1.1V13.866A15,15,0,0,0-47.341,6.729V37.766a15,15,0,0,0-11.594-7.137V29.521a1.1,1.1,0,0,0-1.1-1.1,1.1,1.1,0,0,0-1.1,1.1v9.664a7.7,7.7,0,0,0,7.69,7.69H6.178a7.7,7.7,0,0,0,7.69-7.69V19.514a1.1,1.1,0,1,0-2.2,0V30.619A15.03,15.03,0,0,0-.047,37.781V6.714a15.03,15.03,0,0,0,11.719,7.162v1.244a1.1,1.1,0,0,0,1.1,1.1"/>
              </g>
            </g>
          </g>
        </g>
      </g>
    </g>
  </g>
</svg>
