<svg xmlns="http://www.w3.org/2000/svg" xmlns:xlink="http://www.w3.org/1999/xlink" width="105.979" height="107" viewBox="0 0 105.979 107">
  <defs>
    <clipPath id="clip-path">
      <rect id="Rectángulo_403658" data-name="Rectángulo 403658" width="75" height="75" transform="translate(1140.531 2119.236)" fill="#fff"/>
    </clipPath>
  </defs>
  <g id="Grupo_1103124" data-name="Grupo 1103124" transform="translate(-1124.051 -2112.236)">
    <g id="Grupo_1102994" data-name="Grupo 1102994">
      <path id="Trazado_876600" data-name="Trazado 876600" d="M0,0V105.979H81.432L107,51.826,81.432,0Z" transform="translate(1230.029 2112.236) rotate(90)" fill="#afd1e6"/>
      <g id="Enmascarar_grupo_1098684" data-name="Enmascarar grupo 1098684" clip-path="url(#clip-path)">
        <g id="viajar" transform="translate(1140.531 2119.236)">
          <circle id="Elipse_11528" data-name="Elipse 11528" cx="32.078" cy="32.078" r="32.078" transform="translate(5.424 5.423)" fill="#72d8ff"/>
          <g id="Grupo_1102989" data-name="Grupo 1102989">
            <path id="Trazado_876602" data-name="Trazado 876602" d="M57.279,18.41a6.749,6.749,0,0,0-6.75,6.749h0a2.507,2.507,0,0,1-2.507,2.507h0A4.435,4.435,0,0,0,43.587,32.1v.964A4.435,4.435,0,0,0,48.023,37.5H69.581a31.933,31.933,0,0,0-6.3-19.091Z" fill="#a0e557"/>
            <path id="Trazado_876603" data-name="Trazado 876603" d="M43.132,51.188H41.569a2.075,2.075,0,0,1-2.075-2.075V42.829A5.328,5.328,0,0,0,34.166,37.5H25.777a3.492,3.492,0,0,0-3.492,3.492.873.873,0,0,1-.873.873h-.13a5.356,5.356,0,0,0-5.356,5.356h0a5.356,5.356,0,0,0,5.356,5.356h2.176a2.755,2.755,0,0,1,2.755,2.755h0A4.487,4.487,0,0,0,30.7,59.82h6.831a4.487,4.487,0,0,1,4.487,4.487v4.954a31.892,31.892,0,0,0,5.629-1.321V55.7A4.516,4.516,0,0,0,43.132,51.188Z" fill="#a0e557"/>
          </g>
          <path id="Trazado_876604" data-name="Trazado 876604" d="M38.684,1.558h0a10.364,10.364,0,0,1-2.946,8.689l-4.489,4.489,7.219,15.038L35.5,32.746,25.85,20.137l-8.75,8.75h-.022l.566,6.277-3.59,3.59-2.7-9.86-9.86-2.7,3.59-3.59,6.277.566v-.022l8.75-8.75L7.5,4.745l2.971-2.971L25.506,8.993,30,4.5a10.364,10.364,0,0,1,8.689-2.946Z" fill="#fff"/>
          <path id="Trazado_876605" data-name="Trazado 876605" d="M71.027,3.976c-5.572-5.572-15.949-5.2-27.8.575a1.467,1.467,0,0,0-.669.331q-1.415.71-2.854,1.522a11.824,11.824,0,0,0,.431-5.038,1.465,1.465,0,0,0-1.26-1.26,11.9,11.9,0,0,0-9.917,3.362L25.2,7.224,11.1.454a1.465,1.465,0,0,0-1.67.285L6.461,3.71a1.465,1.465,0,0,0,.146,2.2L17.888,14.54l-7.1,7.1-5.574-.5a1.466,1.466,0,0,0-1.167.423l-3.59,3.59A1.465,1.465,0,0,0,1.1,27.6l4.024,1.1a33.738,33.738,0,0,0-.649,14.684A47.746,47.746,0,0,0,.658,54.224c-1.529,7.291-.381,13.1,3.32,16.8C6.587,73.635,10.353,75,14.921,75q.559,0,1.135-.027A41.553,41.553,0,0,0,31.6,70.523a33.59,33.59,0,0,0,25.035-5.468,1.465,1.465,0,1,0-1.673-2.4,30.376,30.376,0,0,1-11.48,4.88V64.307a5.959,5.959,0,0,0-5.952-5.952H30.7a3.026,3.026,0,0,1-3.022-3.022,4.225,4.225,0,0,0-4.22-4.219H21.282a3.892,3.892,0,0,1,0-7.783h.13a2.34,2.34,0,0,0,2.338-2.338,2.029,2.029,0,0,1,2.027-2.027h8.389a3.868,3.868,0,0,1,3.863,3.863v6.284a3.544,3.544,0,0,0,3.54,3.54h1.563A3.055,3.055,0,0,1,46.183,55.7v3.547a1.465,1.465,0,0,0,2.929,0V55.7a5.988,5.988,0,0,0-5.981-5.981H41.569a.611.611,0,0,1-.61-.61V42.829a6.8,6.8,0,0,0-6.793-6.793H25.777a4.964,4.964,0,0,0-4.922,4.377,6.821,6.821,0,0,0,.428,13.629h2.176a1.292,1.292,0,0,1,1.29,1.29A5.959,5.959,0,0,0,30.7,61.285h6.831a3.026,3.026,0,0,1,3.022,3.022v3.606c0,.017,0,.034,0,.051q-1.515.15-3.054.151A30.617,30.617,0,0,1,7.544,43.828a70.185,70.185,0,0,1,4.344-7.433l.754,2.747a1.465,1.465,0,0,0,2.448.648l3.59-3.59a1.465,1.465,0,0,0,.423-1.167l-.5-5.574,7.1-7.1,8.631,11.281a1.465,1.465,0,0,0,2.2.146L39.5,30.811a1.464,1.464,0,0,0,.285-1.67l-6.77-14.1,2.693-2.693a70.671,70.671,0,0,1,8.1-4.807A30.471,30.471,0,0,1,60.19,16.945H57.279a8.224,8.224,0,0,0-8.214,8.214A1.043,1.043,0,0,1,48.023,26.2a5.907,5.907,0,0,0-5.9,5.9v.964a5.907,5.907,0,0,0,5.9,5.9H59.48a1.465,1.465,0,1,0,0-2.929H48.023a2.974,2.974,0,0,1-2.971-2.971V32.1a2.974,2.974,0,0,1,2.971-2.971,3.976,3.976,0,0,0,3.972-3.972,5.291,5.291,0,0,1,5.285-5.285h4.242a1.458,1.458,0,0,0,.827-.256,30.634,30.634,0,0,1,2.117,32.394A1.465,1.465,0,1,0,67.044,53.4a33.619,33.619,0,0,0,3.48-21.8,41.54,41.54,0,0,0,4.448-15.556C75.212,10.97,73.848,6.8,71.027,3.976ZM27,69.359c-9.245,3.724-16.921,3.626-20.952-.405C2.3,65.205,2.607,59.2,3.525,54.826a40.769,40.769,0,0,1,2.117-6.8A33.571,33.571,0,0,0,27,69.359ZM6.918,38.811c-.018-.437-.029-.874-.029-1.311A30.666,30.666,0,0,1,7.951,29.48l2.206.605.718,2.617Q8.693,35.764,6.918,38.811Zm23.011-23.44,6.77,14.1-1.055,1.055L27.013,19.247a1.465,1.465,0,0,0-2.2-.146L16.2,27.713a1.465,1.465,0,0,0-.583,1.306l.5,5.594L14.8,35.936l-2.038-7.43a1.465,1.465,0,0,0-1.025-1.025l-7.43-2.038L5.63,24.119l5.594.5a1.466,1.466,0,0,0,1.306-.583l8.612-8.612a1.465,1.465,0,0,0-.146-2.2L9.715,4.6,10.77,3.544l14.1,6.77a1.465,1.465,0,0,0,1.67-.285l4.489-4.489a8.96,8.96,0,0,1,6.277-2.605A8.962,8.962,0,0,1,34.7,9.211l-.983.983h0L30.213,13.7A1.465,1.465,0,0,0,29.929,15.371ZM69.36,27A33.582,33.582,0,0,0,48.013,5.637c9.1-3.66,16.859-3.673,20.942.411C72.987,10.079,73.085,17.755,69.36,27Z"/>
          <path id="Trazado_876606" data-name="Trazado 876606" d="M62.516,57.654a1.46,1.46,0,0,0-2.081.128l-.007.008a1.468,1.468,0,0,0,1.078,2.454,1.488,1.488,0,0,0,1.112-.508A1.46,1.46,0,0,0,62.516,57.654Z"/>
        </g>
      </g>
    </g>
  </g>
</svg>
