<svg xmlns="http://www.w3.org/2000/svg" xmlns:xlink="http://www.w3.org/1999/xlink" width="105.979" height="107" viewBox="0 0 105.979 107">
  <defs>
    <clipPath id="clip-path">
      <rect id="Rectángulo_403652" data-name="Rectángulo 403652" width="75" height="75" transform="translate(804.051 2119.236)" fill="#fff"/>
    </clipPath>
  </defs>
  <g id="Grupo_1103130" data-name="Grupo 1103130" transform="translate(-592.062 -1237.236)">
    <g id="Grupo_1103024" data-name="Grupo 1103024" transform="translate(-196.989 -875)">
      <path id="Trazado_876162" data-name="Trazado 876162" d="M0,0V105.979H81.432L107,51.826,81.432,0Z" transform="translate(895.029 2112.236) rotate(90)" fill="#012d71"/>
      <g id="Enmascarar_grupo_1098698" data-name="Enmascarar grupo 1098698" clip-path="url(#clip-path)">
        <g id="OUTLINE" transform="translate(801.551 2116.737)">
          <path id="Trazado_876846" data-name="Trazado 876846" d="M29.306,12.71a1.25,1.25,0,0,0-.532.795l-1.2,6.007L25.21,23.056l2.08,1.387,2.5-3.75a1.249,1.249,0,0,0,.186-.448L31.124,14.5l3.319-2.213a1.244,1.244,0,0,0,.267-.24l4.674-5.609,3.009,12.034L39,23a1.25,1.25,0,0,0-.142,1.258l5,11.25,2.285-1.015-4.7-10.579L44.75,19.5a1.25,1.25,0,0,0,.213-1.053L42.141,7.161l4.285,3.571,1.138,3.413a1.252,1.252,0,0,0,.21.386l5,6.25,1.952-1.562-4.861-6.076L48.685,9.6A1.249,1.249,0,0,0,48.3,9.04L40.8,2.79l0,0a1.243,1.243,0,0,0-1.759.158L32.905,10.31Z" fill="#fff"/>
          <path id="Trazado_876847" data-name="Trazado 876847" d="M76.249,30a1.25,1.25,0,0,0,1.25-1.25v-2.5a1.25,1.25,0,0,0-.691-1.118l-12.5-6.25a1.249,1.249,0,0,0-1.118,0l-12.5,6.25A1.25,1.25,0,0,0,50,26.25v2.5A1.25,1.25,0,0,0,51.249,30H52.5v8.75h-1.25A1.25,1.25,0,0,0,50,40v3.75h2.5v-2.5H75v2.5H60v2.5h16.25A1.25,1.25,0,0,0,77.5,45V40a1.25,1.25,0,0,0-1.25-1.25H75V30ZM57.5,38.75H55V30h2.5Zm5,0H60V30h2.5Zm5,0H65V30h2.5Zm5,0H70V30h2.5ZM52.5,27.5v-.477L63.749,21.4,75,27.022V27.5Z" fill="#fff"/>
          <path id="Trazado_876848" data-name="Trazado 876848" d="M8,46.249a4.932,4.932,0,0,0,3.591-1.575,2.432,2.432,0,0,1,3.818,0,4.881,4.881,0,0,0,7.182,0A2.5,2.5,0,0,1,24.5,43.75a2.773,2.773,0,0,1,.344.02l.312-2.48a5.288,5.288,0,0,0-.657-.04,4.932,4.932,0,0,0-3.591,1.575,2.433,2.433,0,0,1-3.818,0,4.881,4.881,0,0,0-7.181,0,2.432,2.432,0,0,1-3.818,0A4.931,4.931,0,0,0,2.5,41.25v2.5a2.5,2.5,0,0,1,1.909.925A4.931,4.931,0,0,0,8,46.249Z" fill="#fff"/>
          <path id="Trazado_876849" data-name="Trazado 876849" d="M60.4,54.246a3.769,3.769,0,0,1-.4-1.677V52.5a6.248,6.248,0,0,0-11.675-3.1q-.22-.628-.467-1.25A4.976,4.976,0,0,1,47.5,46.3v-.046a7.5,7.5,0,0,0-15,0V46.3a4.978,4.978,0,0,1-.358,1.857q-.248.621-.467,1.249A6.248,6.248,0,0,0,20,52.5v.07a3.769,3.769,0,0,1-.4,1.677l-1.18,2.361A8.794,8.794,0,0,0,17.5,60.52v.73A8.762,8.762,0,0,0,25,69.908V77.5h2.5V69.908a8.777,8.777,0,0,0,5.79-3.464,9.429,9.429,0,0,0,5.46,2.275V77.5h2.5v-8.78a9.429,9.429,0,0,0,5.46-2.275,8.777,8.777,0,0,0,5.79,3.464V77.5H55V69.908a8.762,8.762,0,0,0,7.5-8.659v-.73a8.8,8.8,0,0,0-.924-3.913ZM25,55v4.482l-1.616-1.616-1.768,1.768L25,63.017v4.356a6.261,6.261,0,0,1-5-6.124v-.73a6.281,6.281,0,0,1,.66-2.795l1.18-2.361a6.282,6.282,0,0,0,.66-2.8V52.5a3.75,3.75,0,0,1,7.5,0v.07a6.282,6.282,0,0,0,.359,2.083,29.94,29.94,0,0,0-.353,4.1l-.89-.89L27.5,59.482V55Zm2.5,12.373V63.017l2.574-2.574a9.411,9.411,0,0,0,1.508,4.068A6.271,6.271,0,0,1,27.5,67.372Zm13.75-1.16V63.017l4.634-4.634-1.768-1.768L41.25,59.482V55.517l3.384-3.384-1.768-1.768L41.25,51.982V47.5h-2.5v4.482l-1.616-1.616-1.768,1.768,3.384,3.384v3.964l-2.866-2.866-1.768,1.768,4.634,4.634v3.195a6.982,6.982,0,0,1-6.25-6.935,27.33,27.33,0,0,1,1.963-10.2A7.466,7.466,0,0,0,35,46.3v-.046a5,5,0,0,1,10,0V46.3a7.463,7.463,0,0,0,.536,2.785,27.333,27.333,0,0,1,1.963,10.2,6.982,6.982,0,0,1-6.25,6.935Zm11.25,1.16a6.271,6.271,0,0,1-4.082-2.862,9.411,9.411,0,0,0,1.508-4.068L52.5,63.017ZM60,61.249a6.261,6.261,0,0,1-5,6.124V63.017l3.384-3.384-1.768-1.768L55,59.482V55H52.5v4.482l-1.616-1.616-.89.89a29.94,29.94,0,0,0-.353-4.1A6.282,6.282,0,0,0,50,52.569V52.5a3.75,3.75,0,0,1,7.5,0v.07a6.282,6.282,0,0,0,.66,2.8l1.18,2.361a6.283,6.283,0,0,1,.66,2.8Z" fill="#fff"/>
          <path id="Trazado_876850" data-name="Trazado 876850" d="M6.026,48.449l-2.426.6A37.3,37.3,0,0,0,15.43,68.33l1.639-1.888A34.808,34.808,0,0,1,6.026,48.449Z" fill="#fff"/>
          <path id="Trazado_876851" data-name="Trazado 876851" d="M62.93,66.442l1.639,1.888A37.3,37.3,0,0,0,76.4,49.05l-2.426-.6A34.808,34.808,0,0,1,62.93,66.442Z" fill="#fff"/>
          <path id="Trazado_876852" data-name="Trazado 876852" d="M67.444,18.276,69.4,16.723A37.562,37.562,0,0,0,47.757,3.3L47.242,5.75a35.057,35.057,0,0,1,20.2,12.526Z" fill="#fff"/>
          <path id="Trazado_876853" data-name="Trazado 876853" d="M33.964,5.518l-.428-2.463A37.484,37.484,0,0,0,16.723,10.6l1.553,1.959A34.975,34.975,0,0,1,33.964,5.518Z" fill="#fff"/>
          <path id="Trazado_876854" data-name="Trazado 876854" d="M8,41.25a4.932,4.932,0,0,0,3.591-1.575,2.432,2.432,0,0,1,3.818,0,4.881,4.881,0,0,0,7.182,0,2.433,2.433,0,0,1,3.819,0A4.932,4.932,0,0,0,30,41.25v-2.5a2.5,2.5,0,0,1-1.909-.925,5.929,5.929,0,0,0-1.875-1.268l1.221-3.662A1.25,1.25,0,0,0,26.25,31.25H13.75v-2.5H22.5a1.25,1.25,0,0,0,1.2-1.609l-2.147-7.155A8.7,8.7,0,0,0,13.17,13.75H12.5A1.25,1.25,0,0,0,11.25,15V31.25h-5a1.25,1.25,0,0,0-1.233,1.456l.814,4.887A4.715,4.715,0,0,0,2.5,36.25v2.5a2.5,2.5,0,0,1,1.909.925A4.931,4.931,0,0,0,8,41.25Zm5.75-24.973A6.206,6.206,0,0,1,19.156,20.7L20.82,26.25H13.75ZM24.515,33.75l-.857,2.57a5.179,5.179,0,0,0-2.75,1.505,2.433,2.433,0,0,1-3.818,0,4.881,4.881,0,0,0-7.181,0,2.963,2.963,0,0,1-1.359.869L7.725,33.75Z" fill="#fff"/>
        </g>
      </g>
    </g>
  </g>
</svg>
