<svg xmlns="http://www.w3.org/2000/svg" xmlns:xlink="http://www.w3.org/1999/xlink" width="105.979" height="107" viewBox="0 0 105.979 107">
  <defs>
    <clipPath id="clip-path">
      <rect id="Rectángulo_403652" data-name="Rectángulo 403652" width="75" height="75" transform="translate(804.051 2119.236)" fill="#fff"/>
    </clipPath>
  </defs>
  <g id="Grupo_1103130" data-name="Grupo 1103130" transform="translate(-282.051 -2793.236)">
    <g id="Grupo_1103019" data-name="Grupo 1103019" transform="translate(-507 681)">
      <path id="Trazado_876162" data-name="Trazado 876162" d="M0,0V105.979H81.432L107,51.826,81.432,0Z" transform="translate(895.029 2112.236) rotate(90)" fill="#012d71"/>
      <g id="Enmascarar_grupo_1098706" data-name="Enmascarar grupo 1098706" clip-path="url(#clip-path)">
        <g id="Travel-Lifestyle-AirPlane-Women-Luggage-Tourist" transform="translate(801.641 2116.798)">
          <path id="Trazado_877135" data-name="Trazado 877135" d="M9.988,52.439h2.5V59.93h-2.5Z" fill="#fff"/>
          <path id="Trazado_877136" data-name="Trazado 877136" d="M14.982,52.439h2.5V59.93h-2.5Z" fill="#fff"/>
          <path id="Trazado_877137" data-name="Trazado 877137" d="M19.977,52.439h2.5V59.93h-2.5Z" fill="#fff"/>
          <circle id="Elipse_11550" data-name="Elipse 11550" cx="2.497" cy="2.497" r="2.497" transform="translate(43.699 26.219)" fill="#fff"/>
          <circle id="Elipse_11551" data-name="Elipse 11551" cx="2.497" cy="2.497" r="2.497" transform="translate(53.687 26.219)" fill="#fff"/>
          <path id="Trazado_877138" data-name="Trazado 877138" d="M77.409,21.225c0-.986,0-3.021-11.262-4.258a14.966,14.966,0,0,0-29.915,0C24.971,18.2,24.971,20.239,24.971,21.225c0,2.447,5.593,3.7,11.774,4.345a3.621,3.621,0,0,0-.537,1.9v2.5A3.763,3.763,0,0,0,38.7,33.5V48.531a13.756,13.756,0,0,0-8.74,5.643V43.7a3.757,3.757,0,0,0-3.746-3.746H22.474v-8.74a3.757,3.757,0,0,0-3.746-3.746H13.734a3.757,3.757,0,0,0-3.746,3.746v8.74H6.243A3.757,3.757,0,0,0,2.5,43.7V68.67a3.757,3.757,0,0,0,3.746,3.746v1.249a3.746,3.746,0,0,0,7.491,0V72.415h4.994v1.249a3.746,3.746,0,0,0,7.491,0V72.415h1.249a1.249,1.249,0,0,0,.986,1.224l17.554,3.746a1.865,1.865,0,0,0,.262.025h9.876a1.865,1.865,0,0,0,.262-.025l17.517-3.746a1.249,1.249,0,0,0,.986-1.224v-10.4A13.8,13.8,0,0,0,63.676,48.531V33.5a3.774,3.774,0,0,0,2.5-3.533v-2.5a3.685,3.685,0,0,0-.537-1.9c6.18-.649,11.774-1.9,11.774-4.345ZM22.474,42.45h3.746A1.249,1.249,0,0,1,27.468,43.7v3.746H23.722A1.249,1.249,0,0,1,22.474,46.2ZM12.485,31.213a1.249,1.249,0,0,1,1.249-1.249h4.994a1.249,1.249,0,0,1,1.249,1.249v8.74H12.485ZM4.994,43.7A1.249,1.249,0,0,1,6.243,42.45H9.988V46.2A1.249,1.249,0,0,1,8.74,47.444H4.994ZM6.243,69.918A1.249,1.249,0,0,1,4.994,68.67V64.924H8.74a1.249,1.249,0,0,1,1.249,1.249v3.746Zm4.994,3.746a1.249,1.249,0,1,1-2.5,0V72.415h2.5Zm12.485,0a1.249,1.249,0,1,1-2.5,0V72.415h2.5Zm3.746-11.649v7.9H12.485V66.173A3.757,3.757,0,0,0,8.74,62.427H4.994V49.942H8.74A3.757,3.757,0,0,0,12.485,46.2V42.45h7.491V46.2a3.757,3.757,0,0,0,3.746,3.746h3.746V61.178h.037C27.493,61.453,27.468,61.728,27.468,62.015ZM51.19,4.994A12.522,12.522,0,0,1,62.664,12.56,44.9,44.9,0,0,1,51.19,13.734,44.9,44.9,0,0,1,39.716,12.56,12.522,12.522,0,0,1,51.19,4.994ZM38.7,17.48a12.235,12.235,0,0,1,.262-2.547,46.638,46.638,0,0,0,12.223,1.3,46.638,46.638,0,0,0,12.223-1.3,12.235,12.235,0,0,1,.262,2.547V18.4c-.974.6-5.219,1.573-12.485,1.573S39.679,19,38.7,18.4ZM34.522,66.6l1.2,6.043L29.965,71.4V62.015a11.3,11.3,0,0,1,5.756-9.789l-1.2,6.03A20.851,20.851,0,0,0,34.522,66.6Zm33.336-8.34-1.2-6.03a11.3,11.3,0,0,1,5.756,9.789V71.4L66.647,72.64,67.858,66.6a20.851,20.851,0,0,0,0-8.34Zm-3.97-7.142,1.523,7.641a18.174,18.174,0,0,1,0,7.341l-1.423,7.117-7.978,1.7h-9.6L38.38,73.2l-1.411-7.1a18.174,18.174,0,0,1,0-7.341l1.523-7.641a10.522,10.522,0,0,1,1.124-.225l1.785-.25c1.311,6.517,8.777,11.374,9.114,11.586a1.237,1.237,0,0,0,1.348,0c.337-.212,7.8-5.069,9.114-11.586l1.785.25c.375.05.749.137,1.124.225Zm-7.878-1.186,2.485.35c-.961,4.395-5.556,8.1-7.3,9.377-1.748-1.274-6.343-4.969-7.3-9.377l2.485-.35a1.249,1.249,0,0,0,1.074-1.236v-4.32a12.5,12.5,0,0,0,7.491,0v4.32a1.248,1.248,0,0,0,1.074,1.236Zm1.423-2.322V43.262a12.323,12.323,0,0,0,3.746-3.334v8.215Zm-12.485,0-3.746.537V39.928a10.843,10.843,0,0,0,1.161,1.348,11.979,11.979,0,0,0,2.584,1.985ZM63.676,29.965a1.249,1.249,0,0,1-1.249,1.249,1.249,1.249,0,0,0-1.249,1.249,9.988,9.988,0,1,1-19.977,0,1.249,1.249,0,0,0-1.249-1.249,1.185,1.185,0,0,1-.886-.387,1.159,1.159,0,0,1-.362-.861v-2.5a1.249,1.249,0,0,1,1.249-1.249,1.186,1.186,0,0,0,.812-.325c4.22.275,8.215.325,10.425.325s6.205-.05,10.425-.325a1.186,1.186,0,0,0,.812.325,1.185,1.185,0,0,1,.886.387,1.159,1.159,0,0,1,.362.861ZM51.19,23.722c-12.5,0-21.1-1.373-23.335-2.485,1-.487,3.546-1.211,8.552-1.773,1.423,2.7,10.638,3.009,14.783,3.009,11.075,0,14.059-1.76,14.77-3.009,5.007.562,7.566,1.286,8.565,1.773-2.235,1.111-10.837,2.485-23.335,2.485Z" fill="#fff"/>
          <path id="Trazado_877139" data-name="Trazado 877139" d="M5.618,21.058a1.249,1.249,0,0,0,.948.125L30.687,14.72a3.748,3.748,0,0,0-1.94-7.242l-5.16,1.386L19.727,3.028a1.249,1.249,0,0,0-1.361-.518L13.542,3.8a1.249,1.249,0,0,0-.883,1.529l1.623,6.03L9.957,12.52,4.282,9.247a1.249,1.249,0,0,0-1.83,1.4L5.037,20.3a1.249,1.249,0,0,0,.582.758ZM9.151,14.94a1.249,1.249,0,0,0,.946.125l6.03-1.616a1.249,1.249,0,0,0,.883-1.529L15.394,5.891l2.747-.737L22,10.993a1.249,1.249,0,0,0,1.365.518L29.392,9.9a1.249,1.249,0,0,1,.647,2.412L7.125,18.447l-1.481-5.53Z" fill="#fff"/>
        </g>
      </g>
    </g>
  </g>
</svg>
