<svg xmlns="http://www.w3.org/2000/svg" xmlns:xlink="http://www.w3.org/1999/xlink" width="105.979" height="107" viewBox="0 0 105.979 107">
  <defs>
    <clipPath id="clip-path">
      <rect id="Rectángulo_403652" data-name="Rectángulo 403652" width="75" height="75" transform="translate(804.051 2119.236)" fill="#fff"/>
    </clipPath>
    <clipPath id="clip-path-2">
      <path id="path2871" d="M0-75H75V0H0Z" fill="#fff"/>
    </clipPath>
  </defs>
  <g id="Grupo_1103131" data-name="Grupo 1103131" transform="translate(-592.062 -2793.236)">
    <g id="Grupo_1103105" data-name="Grupo 1103105" transform="translate(-196.989 681)">
      <path id="Trazado_876162" data-name="Trazado 876162" d="M0,0V105.979H81.432L107,51.826,81.432,0Z" transform="translate(895.029 2112.236) rotate(90)" fill="#012d71"/>
      <g id="Enmascarar_grupo_1098707" data-name="Enmascarar grupo 1098707" clip-path="url(#clip-path)">
        <g id="g2865" transform="translate(804.051 2194.236)">
          <g id="g2867">
            <g id="g2869" clip-path="url(#clip-path-2)">
              <g id="g2875" transform="translate(48.178 -67.572)">
                <path id="path2877" d="M0,0A1.1,1.1,0,0,1,.927-1.247h0a1.094,1.094,0,0,1,1.26.9A1.108,1.108,0,0,1,1.247.927,1.1,1.1,0,0,1,0,0M4.618,1.748A1.1,1.1,0,0,1,5.9-.037l.037.028A1.1,1.1,0,0,1,4.618,1.748M-3.227,2.965A1.1,1.1,0,0,1-3.469,1.43l0,0a1.1,1.1,0,0,1,1.533-.253A1.1,1.1,0,0,1-1.678,2.7l-.014.019a1.1,1.1,0,0,1-1.535.242M6.405,4.7A1.1,1.1,0,0,1,7.33,3.449a1.093,1.093,0,0,1,1.247.917l0,.017a1.1,1.1,0,1,1-2.174.32M-3.658,7.353a1.1,1.1,0,0,1-1.1-1.1V6.24a1.1,1.1,0,0,1,1.1-1.1,1.1,1.1,0,0,1,1.1,1.1v.015a1.1,1.1,0,0,1-1.1,1.1M7.554,10.047a1.1,1.1,0,0,1-1.1-1.1V8.934a1.1,1.1,0,0,1,2.2,0v.015a1.1,1.1,0,0,1-1.1,1.1m0,4.409a1.1,1.1,0,0,1-1.1-1.1v-.015a1.1,1.1,0,1,1,2.2,0v.015a1.1,1.1,0,0,1-1.1,1.1m11.211.766a1.1,1.1,0,0,1-1.1-1.1v-.015a1.1,1.1,0,1,1,2.2,0v.015a1.1,1.1,0,0,1-1.1,1.1M6.8,18.088l0-.014a1.1,1.1,0,0,1,2.081-.7l0,.014a1.1,1.1,0,0,1-2.081.7m11.375,1.445a1.1,1.1,0,0,1-.984-1.576l.006-.013a1.1,1.1,0,0,1,1.972.97,1.11,1.11,0,0,1-.995.619m-7.51,2.538a1.116,1.116,0,0,1-.988-1.593,1.093,1.093,0,0,1,1.467-.495l.013.006a1.1,1.1,0,0,1-.492,2.082m3.231-.459a1.1,1.1,0,0,1,.695-1.39l.028-.009a1.1,1.1,0,1,1-.723,1.4" fill="#fff"/>
              </g>
              <g id="g2879" transform="translate(7.724 -38.203)">
                <path id="path2881" d="M0,1.1H-3.911A3.817,3.817,0,0,1-7.724-2.714v-8.672A3.818,3.818,0,0,1-3.911-15.2H2.24a1.1,1.1,0,0,1,1.1,1.1A1.1,1.1,0,0,1,2.24-13H-3.911a1.618,1.618,0,0,0-1.616,1.617v8.672A1.618,1.618,0,0,0-3.911-1.1H0A1.1,1.1,0,0,1,1.1,0,1.1,1.1,0,0,1,0,1.1Z" fill="#fff"/>
              </g>
              <g id="g2883" transform="translate(33.513 -50.26)">
                <path id="path2885" d="M4.252,3.747a3.229,3.229,0,0,1-.363-.02,1.1,1.1,0,1,1,.246-2.183.973.973,0,0,0,.926-.432L9.647-5.86a.955.955,0,0,0,.139-.724A.965.965,0,0,0,9.364-7.2L6.94-8.778A.984.984,0,0,0,5.581-8.5L1-1.529a.956.956,0,0,0-.038.994A1.1,1.1,0,0,1,.535.959,1.1,1.1,0,0,1-.959.535,3.146,3.146,0,0,1-.839-2.737L3.746-9.708a3.185,3.185,0,0,1,4.394-.911l2.424,1.58a3.148,3.148,0,0,1,1.372,2.008,3.137,3.137,0,0,1-.454,2.379L6.9,2.319A3.158,3.158,0,0,1,4.252,3.747Z" fill="#fff"/>
              </g>
              <g id="g2887" transform="translate(12.296 -53.941)">
                <path id="path2889" d="M7.172,24.792H-4.572a1.1,1.1,0,0,1-1.1-1.1V13.808A40.865,40.865,0,0,1-4.212,2.992,5.9,5.9,0,0,1-2.1-.127,5.888,5.888,0,0,1-.335-1.046a1.1,1.1,0,0,1,1.381.711A1.1,1.1,0,0,1,.335,1.046a3.694,3.694,0,0,0-1.108.576,3.644,3.644,0,0,0-1.32,1.951,38.668,38.668,0,0,0-1.38,10.234V22.6H6.194L7.336,12.8a1.1,1.1,0,0,1,2.182.255L8.263,23.821A1.1,1.1,0,0,1,7.172,24.792Z" fill="#fff"/>
              </g>
              <g id="g2891" transform="translate(19.901 -52.938)">
                <path id="path2893" d="M1.469,7.477A1.1,1.1,0,0,1,.377,6.251L.665,3.782A3.976,3.976,0,0,0-.718.832,1.1,1.1,0,0,1-.832-.718,1.1,1.1,0,0,1,.718-.832,6.171,6.171,0,0,1,2.862,3.842a1.1,1.1,0,0,1-.007.127l-.3,2.536A1.1,1.1,0,0,1,1.469,7.477Z" fill="#fff"/>
              </g>
              <g id="g2895" transform="translate(10.171 -1.099)">
                <path id="path2897" d="M9.049,1.1H0A1.979,1.979,0,0,1-1.986-.869V-6.2a1.1,1.1,0,0,1,1.1-1.1H5.684a5.313,5.313,0,0,1,5.35,5.263V-.869A1.979,1.979,0,0,1,9.049,1.1ZM.212-1.1H8.837v-.935A3.114,3.114,0,0,0,5.684-5.1H.212Z" fill="#fff"/>
              </g>
              <g id="g2899" transform="translate(24.719 -64.198)">
                <path id="path2901" d="M0,1.1A1.1,1.1,0,0,1-1.1,0,1.1,1.1,0,0,1,0-1.1l5.933,0a1.475,1.475,0,0,0,1.48-1.468A1.472,1.472,0,0,0,5.936-4.036l-6.906,0a1.1,1.1,0,0,1-1.1-1.1,1.1,1.1,0,0,1,1.1-1.1l6.907,0A3.672,3.672,0,0,1,9.609-2.572,3.676,3.676,0,0,1,5.933,1.1L0,1.1Z" fill="#fff"/>
              </g>
              <g id="g2903" transform="translate(22.947 -64.198)">
                <path id="path2905" d="M-6.808,12.554a7.814,7.814,0,0,1-5.561-2.3,7.819,7.819,0,0,1-2.306-5.569l0-4.676a1.1,1.1,0,0,1,1.1-1.1,1.1,1.1,0,0,1,1.1,1.1l0,4.676A5.636,5.636,0,0,0-10.815,8.7,5.63,5.63,0,0,0-6.8,10.356h2.471A3.237,3.237,0,0,0-1.1,7.126L-1.1,0A1.1,1.1,0,0,1,0-1.1,1.1,1.1,0,0,1,1.1,0l0,7.126a5.437,5.437,0,0,1-5.426,5.427H-6.808Z" fill="#fff"/>
              </g>
              <g id="g2907" transform="translate(16.164 -73.901)">
                <path id="path2909" d="M0-1.1H0A9.607,9.607,0,0,1,6.827,1.716a9.529,9.529,0,0,1,2.826,6.8V9.7a1.1,1.1,0,0,1-1.1,1.1l-15.926.007a2.278,2.278,0,0,1-1.618-.667,2.266,2.266,0,0,1-.672-1.618A9.658,9.658,0,0,1,0-1.1ZM7.456,8.6V8.516a7.346,7.346,0,0,0-2.18-5.243A7.424,7.424,0,0,0,0,1.1V0L0,1.1A7.458,7.458,0,0,0-7.464,8.524a.08.08,0,0,0,.025.059.092.092,0,0,0,.067.027Z" fill="#fff"/>
              </g>
              <g id="g2911" transform="translate(14.46 -64.194)">
                <path id="path2913" d="M-4.895,7.409a1.1,1.1,0,0,1-.971-.583A1.1,1.1,0,0,1-5.411,5.34l3.889-2.066a.79.79,0,0,0,.422-.7V0A1.1,1.1,0,0,1,0-1.1,1.1,1.1,0,0,1,1.1,0V2.577A2.983,2.983,0,0,1-.491,5.214L-4.38,7.28A1.094,1.094,0,0,1-4.895,7.409Z" fill="#fff"/>
              </g>
              <g id="g2915" transform="translate(17.917 -48.518)">
                <path id="path2917" d="M8.035,11.021A5.194,5.194,0,0,1,5.4,10.3L-3.1,5.315a1.1,1.1,0,0,1-.391-1.5,1.1,1.1,0,0,1,1.5-.391l8.5,4.989A3,3,0,0,0,10,8.089L18.264.907a1.288,1.288,0,0,0,.45-.98,1.29,1.29,0,0,0-.443-.985,1.331,1.331,0,0,0-1.69-.057L8.52,5.1a1.415,1.415,0,0,1-1.564.11L-.542.956a1.1,1.1,0,0,1-.414-1.5,1.1,1.1,0,0,1,1.5-.414l7.047,4L15.24-2.855a3.531,3.531,0,0,1,4.485.15A3.5,3.5,0,0,1,20.912-.064a3.5,3.5,0,0,1-1.206,2.63L11.441,9.747A5.187,5.187,0,0,1,8.035,11.021Z" fill="#fff"/>
              </g>
              <g id="g2919" transform="translate(21.476 -46.501)">
                <path id="path2921" d="M-2.3,5.682a1.094,1.094,0,0,1-.491-.117,1.1,1.1,0,0,1-.49-1.474l2.3-4.583A1.1,1.1,0,0,1,.492-.982,1.1,1.1,0,0,1,.982.492l-2.3,4.583A1.1,1.1,0,0,1-2.3,5.682Z" fill="#fff"/>
              </g>
              <g id="g2923" transform="translate(8.676 -16.237)">
                <path id="path2925" d="M6.4,10.039H.607a1.1,1.1,0,0,1-1.1-1.024L-1.1.074A1.1,1.1,0,0,1-.074-1.1,1.1,1.1,0,0,1,1.1-.074l.538,7.916H5.489L9.463-12.913H.224L.75-5.169A1.1,1.1,0,0,1-.272-4,1.1,1.1,0,0,1-1.442-5.02l-.606-8.917a1.1,1.1,0,0,1,.293-.825,1.1,1.1,0,0,1,.8-.349H10.792a1.1,1.1,0,0,1,.847.4,1.1,1.1,0,0,1,.232.907L7.476,9.147A1.1,1.1,0,0,1,6.4,10.039Z" fill="#fff"/>
              </g>
              <g id="g2927" transform="translate(60.852 -70.304)">
                <path id="path2929" d="M6.091,15.238a2.543,2.543,0,0,1-1.826-.765c-1.892-1.923-5.192-5.7-6.029-9.4A1.1,1.1,0,0,1-.935,3.76a1.1,1.1,0,0,1,1.314.829c.744,3.284,4.061,6.928,5.452,8.343a.364.364,0,0,0,.519,0c1.684-1.711,5.6-6.069,5.6-9.572A5.859,5.859,0,0,0,.961.532,1.1,1.1,0,0,1-.532.961,1.1,1.1,0,0,1-.961-.532,8.056,8.056,0,0,1,14.148,3.36c0,4.159-3.9,8.748-6.231,11.112A2.543,2.543,0,0,1,6.091,15.238Z" fill="#fff"/>
              </g>
              <g id="g2931" transform="translate(69.507 -66.943)">
                <path id="path2933" d="M-2.563-3.662A3.666,3.666,0,0,1,1.1,0,3.666,3.666,0,0,1-2.563,3.662,3.666,3.666,0,0,1-6.226,0,3.666,3.666,0,0,1-2.563-3.662Zm0,5.127A1.467,1.467,0,0,0-1.1,0,1.467,1.467,0,0,0-2.563-1.465,1.467,1.467,0,0,0-4.028,0,1.467,1.467,0,0,0-2.563,1.465Z" fill="#fff"/>
              </g>
            </g>
          </g>
        </g>
      </g>
    </g>
  </g>
</svg>
