<svg xmlns="http://www.w3.org/2000/svg" xmlns:xlink="http://www.w3.org/1999/xlink" width="105.979" height="107" viewBox="0 0 105.979 107">
  <defs>
    <clipPath id="clip-path">
      <rect id="Rectángulo_403652" data-name="Rectángulo 403652" width="75" height="75" transform="translate(804.051 2119.236)" fill="#fff"/>
    </clipPath>
  </defs>
  <g id="Grupo_1103132" data-name="Grupo 1103132" transform="translate(-902.062 -2793.236)">
    <g id="Grupo_1103106" data-name="Grupo 1103106" transform="translate(113.011 681)">
      <path id="Trazado_876162" data-name="Trazado 876162" d="M0,0V105.979H81.432L107,51.826,81.432,0Z" transform="translate(895.029 2112.236) rotate(90)" fill="#012d71"/>
      <g id="Enmascarar_grupo_1098708" data-name="Enmascarar grupo 1098708" clip-path="url(#clip-path)">
        <g id="Photography-Man-Lifestyle-Camera-Mountain" transform="translate(801.596 2116.824)">
          <path id="Trazado_877140" data-name="Trazado 877140" d="M21.226,62.429a1.249,1.249,0,1,0,0,2.5,2.5,2.5,0,0,1,2.5,2.5,1.249,1.249,0,1,0,2.5,0A4.994,4.994,0,0,0,21.226,62.429Z" fill="#fff"/>
          <path id="Trazado_877141" data-name="Trazado 877141" d="M68.672,58.683H61.18a1.249,1.249,0,0,0-1.249,1.249v6.243a4.994,4.994,0,0,0,9.989,0V59.932A1.249,1.249,0,0,0,68.672,58.683Zm-1.249,7.491a2.5,2.5,0,0,1-4.994,0V61.18h4.994Z" fill="#fff"/>
          <path id="Trazado_877142" data-name="Trazado 877142" d="M34.81,36.858,27.319,23.124a1.249,1.249,0,0,0-2.06-.2L20.19,29l-6.6-12.124a1.314,1.314,0,0,0-1.149-.649,1.284,1.284,0,0,0-1.1.749L2.6,36.958a1.287,1.287,0,0,0,.1,1.186,1.265,1.265,0,0,0,1.049.562H33.712a1.264,1.264,0,0,0,1.074-.612A1.249,1.249,0,0,0,34.81,36.858ZM5.656,36.209l6.955-15.894,6.268,11.5a1.249,1.249,0,0,0,2.06.2l5.069-6.081,5.606,10.276Z" fill="#fff"/>
          <circle id="Elipse_11552" data-name="Elipse 11552" cx="2.497" cy="2.497" r="2.497" transform="translate(46.197 24.972)" fill="#fff"/>
          <circle id="Elipse_11553" data-name="Elipse 11553" cx="2.497" cy="2.497" r="2.497" transform="translate(56.186 24.972)" fill="#fff"/>
          <path id="Trazado_877143" data-name="Trazado 877143" d="M23.723,49.943H18.729a1.249,1.249,0,1,0,0,2.5h4.994a1.249,1.249,0,1,0,0-2.5Z" fill="#fff"/>
          <path id="Trazado_877144" data-name="Trazado 877144" d="M21.226,17.48a3.746,3.746,0,1,0-3.746-3.746A3.746,3.746,0,0,0,21.226,17.48Zm0-4.994a1.249,1.249,0,1,1-1.249,1.249A1.249,1.249,0,0,1,21.226,12.486Z" fill="#fff"/>
          <circle id="Elipse_11554" data-name="Elipse 11554" cx="2.497" cy="2.497" r="2.497" transform="translate(29.966 54.938)" fill="#fff"/>
          <path id="Trazado_877145" data-name="Trazado 877145" d="M65.613,48.42l-5.681-.812V42.015a12.4,12.4,0,0,0,6.193-9.751,3.567,3.567,0,0,0,1.436-.886,3.71,3.71,0,0,0,1.111-2.659v-2.5a3.726,3.726,0,0,0-2.148-3.371c5.906-.886,10.888-2.522,10.888-5.369,0-2.46-3.658-4.258-10.863-5.356L65.8,7.629A6.243,6.243,0,0,0,58.134,2.6L54.6,3.484a3.753,3.753,0,0,1-1.823,0L49.244,2.6a6.243,6.243,0,0,0-7.666,5.032l-.749,4.495c-7.2,1.1-10.863,2.9-10.863,5.356,0,2.847,4.994,4.495,10.9,5.369a3.542,3.542,0,0,0-1.049.712,3.71,3.71,0,0,0-1.111,2.659v2.5a3.746,3.746,0,0,0,2.535,3.546,12.322,12.322,0,0,0,3.621,7.766,11.979,11.979,0,0,0,2.585,1.985v5.594l-5.681.812a13.942,13.942,0,0,0-4.757,1.611,4.233,4.233,0,0,0-.8-.087H31.215a1.249,1.249,0,0,1-1.249-1.249,3.746,3.746,0,0,0-3.746-3.746H16.232a3.757,3.757,0,0,0-3.746,3.746,1.185,1.185,0,0,1-.387.886,1.159,1.159,0,0,1-.862.362H6.243A3.757,3.757,0,0,0,2.5,53.689v17.48a3.757,3.757,0,0,0,3.746,3.746h8.4a9.917,9.917,0,0,0,13.16,0h8.4c.15,0,.312-.037.462-.05l11.837,2.522a1.866,1.866,0,0,0,.262.025h9.876a1.864,1.864,0,0,0,.262-.025l17.518-3.746a1.249,1.249,0,0,0,.986-1.224v-10.4a13.822,13.822,0,0,0-11.8-13.6ZM44.05,8.028a3.643,3.643,0,0,1,1.636-2.51,3.7,3.7,0,0,1,2.959-.5l3.533.886a6.187,6.187,0,0,0,3.022,0l3.533-.886a3.7,3.7,0,0,1,2.959.5,3.643,3.643,0,0,1,1.636,2.51l.8,4.795a50.53,50.53,0,0,1-10.438.911,50.53,50.53,0,0,1-10.438-.911ZM32.463,17.505c.1-.362,1.86-1.835,8.515-2.884a1,1,0,0,0,.474.3,45.8,45.8,0,0,0,12.236,1.311,45.8,45.8,0,0,0,12.236-1.311,1,1,0,0,0,.474-.3c6.655,1.049,8.415,2.522,8.515,2.834-.362,1.323-7.978,3.771-21.226,3.771S32.825,18.779,32.463,17.505ZM46.622,38.269A9.875,9.875,0,0,1,43.7,31.215a1.249,1.249,0,0,0-1.249-1.249A1.249,1.249,0,0,1,41.2,28.717v-2.5a1.185,1.185,0,0,1,.387-.886,1.159,1.159,0,0,1,.862-.362A1.249,1.249,0,0,0,43.7,23.723v-.512c3.5.362,7.067.512,9.989.512s6.493-.15,9.989-.512v.512a1.249,1.249,0,0,0,1.249,1.249,1.249,1.249,0,0,1,1.249,1.249v2.5a1.185,1.185,0,0,1-.387.886,1.159,1.159,0,0,1-.862.362,1.249,1.249,0,0,0-1.249,1.249,9.989,9.989,0,0,1-17.056,7.054Zm2.247,11.662a1.249,1.249,0,0,0,1.074-1.236V43.126a12.5,12.5,0,0,0,7.491,0v5.569a1.249,1.249,0,0,0,1.074,1.236l4.383.624c-1.448,1.686-4.795,3.134-9.2,3.134s-7.754-1.448-9.2-3.134ZM21.226,74.915a7.491,7.491,0,1,1,7.491-7.491A7.491,7.491,0,0,1,21.226,74.915Zm16.232-3.746A1.256,1.256,0,0,1,36.5,72.38a1.21,1.21,0,0,1-.287.037H29.866a9.989,9.989,0,1,0-17.28,0H6.243a1.249,1.249,0,0,1-1.249-1.249V53.689A1.249,1.249,0,0,1,6.243,52.44h4.994a3.746,3.746,0,0,0,3.746-3.746,1.249,1.249,0,0,1,1.249-1.249H26.22a1.185,1.185,0,0,1,.886.387,1.159,1.159,0,0,1,.362.862,3.757,3.757,0,0,0,3.746,3.746h4.994a1.189,1.189,0,0,1,.474.087,1.282,1.282,0,0,1,.774,1.161Zm37.457.237L58.508,74.915h-9.6l-9.4-2a3.639,3.639,0,0,0,.449-1.748V53.689a3.663,3.663,0,0,0-.6-2.023,11.5,11.5,0,0,1,2.422-.712c1.573,3.084,6.318,5.232,11.911,5.232S64.027,54.039,65.6,50.955a11.3,11.3,0,0,1,9.314,11.062Z" fill="#fff"/>
        </g>
      </g>
    </g>
  </g>
</svg>
