<svg xmlns="http://www.w3.org/2000/svg" xmlns:xlink="http://www.w3.org/1999/xlink" width="85" height="91" viewBox="0 0 85 91">
  <defs>
    <clipPath id="clip-path">
      <rect id="Rectángulo_403765" data-name="Rectángulo 403765" width="68" height="68" transform="translate(189.051 1768)" fill="#fff"/>
    </clipPath>
  </defs>
  <g id="Grupo_1103137" data-name="Grupo 1103137" transform="translate(-180.051 -1756)">
    <rect id="Rectángulo_403764" data-name="Rectángulo 403764" width="85" height="91" transform="translate(180.051 1756)" fill="#ffa06f"/>
    <g id="Enmascarar_grupo_1098705" data-name="Enmascarar grupo 1098705" clip-path="url(#clip-path)">
      <g id="destino" transform="translate(188.783 1767.752)">
        <path id="Trazado_877109" data-name="Trazado 877109" d="M1.07,56.723H54.583v6.421A4.281,4.281,0,0,1,50.3,67.426H5.351A4.281,4.281,0,0,1,1.07,63.145Z" fill="#1ee0d7"/>
        <path id="Trazado_877110" data-name="Trazado 877110" d="M50.3,1.07H5.351A4.281,4.281,0,0,0,1.07,5.351V56.723H54.583V5.351A4.281,4.281,0,0,0,50.3,1.07Z" fill="#4a9fff"/>
        <path id="Trazado_877111" data-name="Trazado 877111" d="M43.88,7.492l10.7,12.843h-21.4Z" fill="#ffbe2c"/>
        <path id="Trazado_877112" data-name="Trazado 877112" d="M33.713,10.7l8.027,9.632H25.686Z" fill="#fff56e"/>
        <path id="Trazado_877113" data-name="Trazado 877113" d="M33.713,10.7l8.027,9.632H28.9Z" fill="#ffdc28"/>
        <path id="Trazado_877114" data-name="Trazado 877114" d="M1.07,20.335H54.583V38.529H1.07Z" fill="#a0f0ff"/>
        <path id="Trazado_877115" data-name="Trazado 877115" d="M29.967,34.248l-4.281-7.492L21.4,34.248h2.447L21.4,38.529h8.562L27.52,34.248Z" fill="#23da7d"/>
        <circle id="Elipse_11546" data-name="Elipse 11546" cx="4.281" cy="4.281" r="4.281" transform="translate(9.632 25.686)" fill="#23da7d"/>
        <path id="Trazado_877116" data-name="Trazado 877116" d="M1.07,38.529H54.583V56.723H1.07Z" fill="#fff56e"/>
        <path id="Trazado_877117" data-name="Trazado 877117" d="M22.475,48.161h8.562v8.562H22.475Z" fill="#f98026"/>
        <path id="Trazado_877118" data-name="Trazado 877118" d="M18.194,50.3v2.14H13.913V50.3H9.632v2.14H5.351V50.3H1.07v6.421h21.4V50.3Z" fill="#fa9537"/>
        <path id="Trazado_877119" data-name="Trazado 877119" d="M26.756,42.81l-4.281,5.351h8.562Z" fill="#fa9537"/>
        <rect id="Rectángulo_403766" data-name="Rectángulo 403766" width="8.562" height="4.281" rx="2.14" transform="translate(23.545 59.934)" fill="#00cabd"/>
        <path id="Trazado_877120" data-name="Trazado 877120" d="M52.131,39.826h4.28V51.6h-4.28Z" transform="translate(-16.429 51.772) rotate(-45)" fill="#50faf0"/>
        <path id="Trazado_877121" data-name="Trazado 877121" d="M59.007,48.306h6.421V55.8a3.21,3.21,0,1,1-6.421,0Z" transform="translate(-19.72 59.719) rotate(-45)" fill="#465064"/>
        <circle id="Elipse_11547" data-name="Elipse 11547" cx="10.701" cy="10.701" r="10.701" transform="translate(31.948 38.53) rotate(-45)" fill="#f0f0f0"/>
        <circle id="Elipse_11548" data-name="Elipse 11548" cx="8.561" cy="8.561" r="8.561" transform="translate(36.045 39.6) rotate(-45)" fill="#fff"/>
        <path id="Trazado_877122" data-name="Trazado 877122" d="M32.91,5.351a.8.8,0,0,0-.8-.8H23.545a.8.8,0,0,0,0,1.605h8.562A.8.8,0,0,0,32.91,5.351Z"/>
        <circle id="Elipse_11549" data-name="Elipse 11549" cx="1.07" cy="1.07" r="1.07" transform="translate(35.318 4.281)"/>
        <path id="Trazado_877123" data-name="Trazado 877123" d="M36.388,62.877h4.281a.8.8,0,1,0,0-1.605H36.388a.8.8,0,1,0,0,1.605Z"/>
        <path id="Trazado_877124" data-name="Trazado 877124" d="M14.983,62.877h4.281a.8.8,0,1,0,0-1.605H14.983a.8.8,0,0,0,0,1.605Z"/>
        <path id="Trazado_877125" data-name="Trazado 877125" d="M25.686,65.017h4.281a2.943,2.943,0,1,0,0-5.886H25.686a2.943,2.943,0,0,0,0,5.886Zm0-4.281h4.281a1.338,1.338,0,1,1,0,2.676H25.686a1.338,1.338,0,1,1,0-2.676Z"/>
        <path id="Trazado_877126" data-name="Trazado 877126" d="M66.578,52.34l-5.3-5.3a.8.8,0,0,0-1.136,0l-.188.189-2.928-2.924a11.515,11.515,0,0,0-1.643-13.742V5.351A5.09,5.09,0,0,0,50.3.268H5.351A5.09,5.09,0,0,0,.268,5.351V63.145a5.09,5.09,0,0,0,5.084,5.084H50.3a5.09,5.09,0,0,0,5.084-5.084V52.228a.787.787,0,0,0,.214.487l5.3,5.3a4.013,4.013,0,0,0,5.672-5.672ZM1.873,5.351A3.483,3.483,0,0,1,5.351,1.873H50.3A3.483,3.483,0,0,1,53.78,5.351V18.118L44.5,6.978a.8.8,0,0,0-1.233,0l-5.805,6.966-3.129-3.755a.8.8,0,0,0-1.233,0L25.31,19.532H1.873ZM38.5,15.2,43.88,8.745l8.99,10.787H42.115Zm1.524,4.334H27.4l6.314-7.576ZM1.873,21.137H53.78v8.046a11.475,11.475,0,0,0-18.15,8.543h-5.2L28.9,35.051h1.063a.8.8,0,0,0,.7-1.2l-4.281-7.492a.8.8,0,0,0-1.391,0L20.71,33.85a.8.8,0,0,0,.695,1.2h1.063l-1.528,2.676H14.716V34.969a5.084,5.084,0,1,0-1.605,0v2.757H1.873Zm24.95,13.509,1.761,3.08H22.789l1.761-3.08a.8.8,0,0,0-.7-1.2H22.788l2.9-5.071,2.9,5.071H27.519a.8.8,0,0,0-.7,1.2ZM13.913,32.375a.8.8,0,0,0-.8.8v.165a3.478,3.478,0,1,1,1.605,0v-.165A.8.8,0,0,0,13.913,32.375ZM1.873,51.1H4.549v1.338a.8.8,0,0,0,.8.8H9.632a.8.8,0,0,0,.8-.8V51.1h2.676v1.338a.8.8,0,0,0,.8.8h4.281a.8.8,0,0,0,.8-.8V51.1h2.676V55.92H1.873ZM53.78,63.145A3.483,3.483,0,0,1,50.3,66.623H5.351a3.483,3.483,0,0,1-3.478-3.478V57.526H53.78ZM30.234,48.964V55.92H23.278V48.964Zm-6.089-1.605,2.61-3.264,2.61,3.263ZM53.78,55.92H31.84V48.161a.809.809,0,0,0-.176-.5l-4.281-5.351a.833.833,0,0,0-1.254,0l-4.281,5.351a.809.809,0,0,0-.176.5V49.5H18.194a.8.8,0,0,0-.8.8v1.338H14.716V50.3a.8.8,0,0,0-.8-.8H9.632a.8.8,0,0,0-.8.8v1.338H6.154V50.3a.8.8,0,0,0-.8-.8H1.873V39.332H35.63a11.473,11.473,0,0,0,17.231,9.133l.915.915ZM40.09,45.529a9.9,9.9,0,1,1,14,0,9.9,9.9,0,0,1-14,0Zm15.519,6.054a.787.787,0,0,0-.214.487V50.985l.409.409ZM54.22,47.551a10.71,10.71,0,0,0,1.893-1.893l2.708,2.709-1.892,1.892ZM65.442,56.88a2.407,2.407,0,0,1-3.4,0l-4.73-4.73,3.406-3.406,4.729,4.73a2.406,2.406,0,0,1,0,3.406Z"/>
      </g>
    </g>
  </g>
</svg>
