<svg xmlns="http://www.w3.org/2000/svg" xmlns:xlink="http://www.w3.org/1999/xlink" width="105.979" height="107" viewBox="0 0 105.979 107">
  <defs>
    <clipPath id="clip-path">
      <rect id="Rectángulo_403652" data-name="Rectángulo 403652" width="75" height="75" transform="translate(804.051 2119.236)" fill="#fff"/>
    </clipPath>
  </defs>
  <g id="Grupo_1103133" data-name="Grupo 1103133" transform="translate(-1212.051 -2793.236)">
    <g id="Grupo_1103107" data-name="Grupo 1103107" transform="translate(423 681)">
      <path id="Trazado_876162" data-name="Trazado 876162" d="M0,0V105.979H81.432L107,51.826,81.432,0Z" transform="translate(895.029 2112.236) rotate(90)" fill="#012d71"/>
      <g id="Enmascarar_grupo_1098709" data-name="Enmascarar grupo 1098709" clip-path="url(#clip-path)">
        <path id="viajero" d="M60.863,32.392H56.778a2.126,2.126,0,0,0-2.01-1.442H52.522a2.126,2.126,0,0,0-2.009,1.442h-.543a13.935,13.935,0,0,0,1.451-4.567h1.808A3.025,3.025,0,0,0,56.25,24.8V21.294a3.007,3.007,0,0,0-.117-.824h.312a3.43,3.43,0,0,0,3.427-3.427V16.9a3.43,3.43,0,0,0-3.427-3.427H53.989L50.21,5.472A9.2,9.2,0,0,0,41.922,0H33.574a9.2,9.2,0,0,0-8.288,5.472l-3.779,8.005H18.556A3.43,3.43,0,0,0,15.13,16.9v.14a3.43,3.43,0,0,0,3.427,3.427h.312a3.007,3.007,0,0,0-.117.824V24.8a3.025,3.025,0,0,0,3.021,3.021H23.59a13.933,13.933,0,0,0,1.451,4.567h-.56a2.126,2.126,0,0,0-2.009-1.442H20.226a2.126,2.126,0,0,0-2.01,1.442H14.137a4.766,4.766,0,0,0-4.761,4.761v7.375a4.766,4.766,0,0,0,4.462,4.75,12.562,12.562,0,0,0-.819,4.455V70.927a1.112,1.112,0,0,0-.007.121V73.9a1.1,1.1,0,0,0,1.1,1.1h46.77a1.1,1.1,0,0,0,1.1-1.1v-.015s0,0,0-.006V59.83a1.1,1.1,0,1,0-2.2,0v8.88l-5.552-4.6A4.5,4.5,0,0,1,52.6,60.636V43.783a10.51,10.51,0,0,1,7.183,9.949v1.3a1.1,1.1,0,1,0,2.2,0v-1.3a12.6,12.6,0,0,0-.815-4.455,4.766,4.766,0,0,0,4.458-4.75V37.152a4.766,4.766,0,0,0-4.761-4.761ZM50.4,34.589v3.477H48.133a2.127,2.127,0,0,0-2.124,2.124v.887H43.7V38.525a14.133,14.133,0,0,0,4.847-3.936Zm-28,9.2v16.85a4.5,4.5,0,0,1-1.631,3.471l-5.545,4.6V53.732A10.529,10.529,0,0,1,22.393,43.787Zm-7.177,29V71.559l6.948-5.76h0a6.688,6.688,0,0,0,2.426-5.162L24.6,40.263h2.192V60.636a8.879,8.879,0,0,1-3.22,6.854l-6.383,5.291Zm9.753-3.6a11.07,11.07,0,0,0,4.015-8.546V43.274h2.4a6.218,6.218,0,0,0,5.02,5.087V57.63a1.1,1.1,0,0,0,2.2,0V48.361a6.218,6.218,0,0,0,5.02-5.087h2.389V60.636a11.07,11.07,0,0,0,4.016,8.546l4.342,3.6H20.627ZM37.505,39.97a14,14,0,0,0,4-.582v2.868a4.007,4.007,0,1,1-8.014,0V39.385A13.994,13.994,0,0,0,37.505,39.97ZM54.052,21.294V24.8a.825.825,0,0,1-.824.824H51.549V20.47h1.679a.825.825,0,0,1,.824.824ZM27.273,6.41a7.028,7.028,0,0,1,6.3-4.213h8.348a7.028,7.028,0,0,1,6.3,4.213l3.336,7.067H23.937ZM17.327,17.044V16.9a1.231,1.231,0,0,1,1.229-1.229H56.444A1.231,1.231,0,0,1,57.673,16.9v.14a1.231,1.231,0,0,1-1.229,1.229H39.892a1.1,1.1,0,0,0,0,2.2h9.46v5.456a11.846,11.846,0,0,1-23.693,0V20.47h9.447a1.1,1.1,0,0,0,0-2.2H18.556a1.231,1.231,0,0,1-1.229-1.229ZM20.948,24.8V21.294a.825.825,0,0,1,.824-.824h1.689v5.157H21.772a.825.825,0,0,1-.824-.824ZM31.3,38.52v2.556H28.985V40.19a2.127,2.127,0,0,0-2.124-2.124H24.6V34.589h1.863A14.136,14.136,0,0,0,31.3,38.52Zm-8.9-5.373v6.941c0,.034-.005.067-.005.1v1.3a12.482,12.482,0,0,0-2.094.771V33.147ZM14.137,47.09a2.566,2.566,0,0,1-2.563-2.563V37.152a2.566,2.566,0,0,1,2.563-2.563H18.1v9a12.826,12.826,0,0,0-3.187,3.5ZM52.829,65.8l6.955,5.766v1.218H57.81l-6.383-5.291a8.879,8.879,0,0,1-3.221-6.855V40.263H50.4L50.4,60.636A6.688,6.688,0,0,0,52.829,65.8ZM52.6,40.088V33.147h2.1V42.26a12.544,12.544,0,0,0-2.094-.768v-1.3C52.6,40.156,52.6,40.122,52.6,40.088Zm10.832,4.439a2.566,2.566,0,0,1-2.563,2.563h-.772a12.779,12.779,0,0,0-3.2-3.507V34.589h3.971a2.566,2.566,0,0,1,2.563,2.563Z" transform="translate(804.051 2119.236)" fill="#fff"/>
      </g>
    </g>
  </g>
</svg>
