<svg xmlns="http://www.w3.org/2000/svg" xmlns:xlink="http://www.w3.org/1999/xlink" width="105.979" height="107" viewBox="0 0 105.979 107">
  <defs>
    <clipPath id="clip-path">
      <rect id="Rect치ngulo_403670" data-name="Rect치ngulo 403670" width="75" height="75" transform="translate(-5940.52 -9488.764)" fill="#fff"/>
    </clipPath>
  </defs>
  <g id="Grupo_1103126" data-name="Grupo 1103126" transform="translate(5957 9495.764)">
    <g id="Grupo_1102998" data-name="Grupo 1102998">
      <path id="Trazado_876609" data-name="Trazado 876609" d="M0,0V105.979H81.432L107,51.826,81.432,0Z" transform="translate(-5851.021 -9495.764) rotate(90)" fill="#afd1e6"/>
      <g id="Enmascarar_grupo_1098688" data-name="Enmascarar grupo 1098688" clip-path="url(#clip-path)">
        <g id="_5-hotel" data-name="5-hotel" transform="translate(-5940.52 -9488.764)">
          <path id="Trazado_876645" data-name="Trazado 876645" d="M3.516,26.953H71.484V73.828H3.516Z" fill="#f6f0e5"/>
          <path id="Trazado_876646" data-name="Trazado 876646" d="M73.828,26.953H1.172l2.344-7.031H71.484Z" fill="#7bace6"/>
          <path id="Trazado_876647" data-name="Trazado 876647" d="M7.031,1.172H67.969v18.75H7.031Z" fill="#a8d7e4"/>
          <path id="Trazado_876648" data-name="Trazado 876648" d="M3.516,26.953H24.609V73.828H3.516Z" fill="#ebe5db"/>
          <path id="Trazado_876649" data-name="Trazado 876649" d="M50.391,26.953H71.484V73.828H50.391Z" fill="#ebe5db"/>
          <g id="Grupo_1102992" data-name="Grupo 1102992">
            <path id="Trazado_876650" data-name="Trazado 876650" d="M30.469,31.641h4.688v4.688H30.469Z" fill="#a8d7e4"/>
            <path id="Trazado_876651" data-name="Trazado 876651" d="M39.844,31.641h4.688v4.688H39.844Z" fill="#a8d7e4"/>
            <path id="Trazado_876652" data-name="Trazado 876652" d="M11.719,31.641h4.688v4.688H11.719Z" fill="#a8d7e4"/>
            <path id="Trazado_876653" data-name="Trazado 876653" d="M11.719,41.016h4.688V45.7H11.719Z" fill="#a8d7e4"/>
            <path id="Trazado_876654" data-name="Trazado 876654" d="M9.375,63.281h4.688v4.688H9.375Z" fill="#a8d7e4"/>
            <path id="Trazado_876655" data-name="Trazado 876655" d="M14.063,63.281H18.75v4.688H14.063Z" fill="#a8d7e4"/>
          </g>
          <path id="Trazado_876656" data-name="Trazado 876656" d="M3.516,52.734H24.609v4.688H3.516Z" fill="#ccc7be"/>
          <path id="Trazado_876657" data-name="Trazado 876657" d="M58.594,31.641h4.688v4.688H58.594Z" fill="#a8d7e4"/>
          <path id="Trazado_876658" data-name="Trazado 876658" d="M58.594,41.016h4.688V45.7H58.594Z" fill="#a8d7e4"/>
          <path id="Trazado_876659" data-name="Trazado 876659" d="M56.25,63.281h4.688v4.688H56.25Z" fill="#a8d7e4"/>
          <path id="Trazado_876660" data-name="Trazado 876660" d="M60.938,63.281h4.688v4.688H60.938Z" fill="#a8d7e4"/>
          <path id="Trazado_876661" data-name="Trazado 876661" d="M50.391,52.734H71.484v4.688H50.391Z" fill="#ccc7be"/>
          <rect id="Rect치ngulo_403672" data-name="Rect치ngulo 403672" width="39.844" height="4.688" rx="1.172" transform="translate(17.578 52.734)" fill="#ebe5db"/>
          <path id="Trazado_876662" data-name="Trazado 876662" d="M28.125,57.422h18.75V73.828H28.125Z" fill="#a8d7e4"/>
          <path id="Trazado_876663" data-name="Trazado 876663" d="M23.438,57.422h4.688V73.828H23.438Z" fill="#7bace6"/>
          <path id="Trazado_876664" data-name="Trazado 876664" d="M46.875,57.422h4.688V73.828H46.875Z" fill="#7bace6"/>
          <path id="Trazado_876665" data-name="Trazado 876665" d="M37.5,57.422h9.375V73.828H37.5Z" fill="#96c8d6"/>
          <path id="Trazado_876666" data-name="Trazado 876666" d="M19.922,52.734,37.5,41.016,55.078,52.734Z" fill="#7bace6"/>
          <path id="Trazado_876667" data-name="Trazado 876667" d="M74.939,26.583,72.6,19.552a1.172,1.172,0,0,0-1.111-.8H69.141V1.172A1.172,1.172,0,0,0,67.969,0H7.031A1.172,1.172,0,0,0,5.859,1.172V18.75H3.516a1.172,1.172,0,0,0-1.111.8L.061,26.583a1.172,1.172,0,0,0,1.111,1.542H2.344v45.7A1.172,1.172,0,0,0,3.516,75H71.484a1.172,1.172,0,0,0,1.172-1.172v-45.7h1.172a1.172,1.172,0,0,0,1.111-1.542ZM8.2,2.344H66.8V18.75H8.2ZM4.361,21.094H70.639L72.2,25.781H2.8ZM56.25,53.906V56.25H18.75V53.906ZM23.789,51.563,37.5,42.422l13.711,9.141Zm.82,7.031h2.344V72.656H24.609Zm4.688,0h7.031V72.656H29.3Zm9.375,0H45.7V72.656H38.672Zm9.375,14.063V58.594h2.344V72.656ZM70.313,51.563h-8.2a1.172,1.172,0,0,0,0,2.344h8.2V56.25h-8.2a1.172,1.172,0,0,0,0,2.344h8.2V72.656H52.734V58.594H56.25a2.344,2.344,0,0,0,2.344-2.344V53.906a2.344,2.344,0,0,0-2.344-2.344h-.82L38.15,40.041a1.172,1.172,0,0,0-1.3,0L19.57,51.563h-.82a2.344,2.344,0,0,0-2.344,2.344V56.25a2.344,2.344,0,0,0,2.344,2.344h3.516V72.656H4.688V58.594h8.2a1.172,1.172,0,0,0,0-2.344h-8.2V53.906h8.2a1.172,1.172,0,0,0,0-2.344h-8.2V28.125h18.75V44.531a1.172,1.172,0,0,0,2.344,0V28.125H49.219V44.531a1.172,1.172,0,0,0,2.344,0V28.125h18.75Z"/>
          <path id="Trazado_876668" data-name="Trazado 876668" d="M21.094,4.688a1.172,1.172,0,0,0-1.172,1.172V9.375H15.234V5.859a1.172,1.172,0,0,0-2.344,0v9.375a1.172,1.172,0,0,0,2.344,0V11.719h4.688v3.516a1.172,1.172,0,0,0,2.344,0V5.859A1.172,1.172,0,0,0,21.094,4.688Z"/>
          <path id="Trazado_876669" data-name="Trazado 876669" d="M30.469,4.688H25.781a2.344,2.344,0,0,0-2.344,2.344v7.031a2.344,2.344,0,0,0,2.344,2.344h4.688a2.344,2.344,0,0,0,2.344-2.344V7.031A2.344,2.344,0,0,0,30.469,4.688Zm-4.687,9.375V7.031h4.688v7.031Z"/>
          <path id="Trazado_876670" data-name="Trazado 876670" d="M42.188,4.688H35.156a1.172,1.172,0,0,0,0,2.344H37.5v8.2a1.172,1.172,0,0,0,2.344,0v-8.2h2.344a1.172,1.172,0,0,0,0-2.344Z"/>
          <path id="Trazado_876671" data-name="Trazado 876671" d="M52.734,7.031a1.172,1.172,0,0,0,0-2.344H45.7a1.172,1.172,0,0,0-1.172,1.172v9.375A1.172,1.172,0,0,0,45.7,16.406h7.031a1.172,1.172,0,0,0,0-2.344H46.875V11.719h5.859a1.172,1.172,0,0,0,0-2.344H46.875V7.031Z"/>
          <path id="Trazado_876672" data-name="Trazado 876672" d="M60.938,14.063H57.422v-8.2a1.172,1.172,0,0,0-2.344,0v9.375a1.172,1.172,0,0,0,1.172,1.172h4.688a1.172,1.172,0,0,0,0-2.344Z"/>
          <path id="Trazado_876673" data-name="Trazado 876673" d="M35.156,30.469H30.469A1.172,1.172,0,0,0,29.3,31.641v4.688A1.172,1.172,0,0,0,30.469,37.5h4.688a1.172,1.172,0,0,0,1.172-1.172V31.641A1.172,1.172,0,0,0,35.156,30.469Zm-1.172,4.688H31.641V32.813h2.344Z"/>
          <path id="Trazado_876674" data-name="Trazado 876674" d="M44.531,30.469H39.844a1.172,1.172,0,0,0-1.172,1.172v4.688A1.172,1.172,0,0,0,39.844,37.5h4.688A1.172,1.172,0,0,0,45.7,36.328V31.641A1.172,1.172,0,0,0,44.531,30.469Zm-1.172,4.688H41.016V32.813h2.344Z"/>
          <path id="Trazado_876675" data-name="Trazado 876675" d="M16.406,30.469H11.719a1.172,1.172,0,0,0-1.172,1.172v4.688A1.172,1.172,0,0,0,11.719,37.5h4.688a1.172,1.172,0,0,0,1.172-1.172V31.641A1.172,1.172,0,0,0,16.406,30.469Zm-1.172,4.688H12.891V32.813h2.344Z"/>
          <path id="Trazado_876676" data-name="Trazado 876676" d="M16.406,39.844H11.719a1.172,1.172,0,0,0-1.172,1.172V45.7a1.172,1.172,0,0,0,1.172,1.172h4.688A1.172,1.172,0,0,0,17.578,45.7V41.016A1.172,1.172,0,0,0,16.406,39.844Zm-1.172,4.688H12.891V42.188h2.344Z"/>
          <path id="Trazado_876677" data-name="Trazado 876677" d="M9.375,62.109A1.172,1.172,0,0,0,8.2,63.281v4.688a1.172,1.172,0,0,0,1.172,1.172H18.75a1.172,1.172,0,0,0,1.172-1.172V63.281a1.172,1.172,0,0,0-1.172-1.172Zm1.172,2.344h2.344V66.8H10.547ZM17.578,66.8H15.234V64.453h2.344Z"/>
          <path id="Trazado_876678" data-name="Trazado 876678" d="M58.594,37.5h4.688a1.172,1.172,0,0,0,1.172-1.172V31.641a1.172,1.172,0,0,0-1.172-1.172H58.594a1.172,1.172,0,0,0-1.172,1.172v4.688A1.172,1.172,0,0,0,58.594,37.5Zm1.172-4.687h2.344v2.344H59.766Z"/>
          <path id="Trazado_876679" data-name="Trazado 876679" d="M58.594,46.875h4.688A1.172,1.172,0,0,0,64.453,45.7V41.016a1.172,1.172,0,0,0-1.172-1.172H58.594a1.172,1.172,0,0,0-1.172,1.172V45.7A1.172,1.172,0,0,0,58.594,46.875Zm1.172-4.687h2.344v2.344H59.766Z"/>
          <path id="Trazado_876680" data-name="Trazado 876680" d="M56.25,62.109a1.172,1.172,0,0,0-1.172,1.172v4.688a1.172,1.172,0,0,0,1.172,1.172h9.375A1.172,1.172,0,0,0,66.8,67.969V63.281a1.172,1.172,0,0,0-1.172-1.172Zm1.172,2.344h2.344V66.8H57.422ZM64.453,66.8H62.109V64.453h2.344Z"/>
        </g>
      </g>
    </g>
  </g>
</svg>
