<svg xmlns="http://www.w3.org/2000/svg" xmlns:xlink="http://www.w3.org/1999/xlink" width="85" height="127" viewBox="0 0 85 127">
  <defs>
    <clipPath id="clip-path">
      <rect id="Rectángulo_403675" data-name="Rectángulo 403675" width="67" height="67" transform="translate(189.051 3000)" fill="#99abc6"/>
    </clipPath>
  </defs>
  <g id="Grupo_1103124" data-name="Grupo 1103124" transform="translate(-180.051 -2948)">
    <g id="Grupo_1103123" data-name="Grupo 1103123">
      <rect id="Rectángulo_403674" data-name="Rectángulo 403674" width="85" height="127" transform="translate(180.051 2948)" fill="#afd1e6"/>
    </g>
    <g id="Enmascarar_grupo_1098689" data-name="Enmascarar grupo 1098689" transform="translate(0 -25)" clip-path="url(#clip-path)">
      <g id="guia-turistico" transform="translate(185.777 2996.726)">
        <path id="Trazado_876682" data-name="Trazado 876682" d="M22.5,21.26c.716-2.005,2.683-1.015,4-.016l-.021,6.278a10.454,10.454,0,0,0,.063,1.151,11.349,11.349,0,0,1-1.164-.347C22.958,27.5,21.48,24.114,22.5,21.26Z" fill="#ffbbb7"/>
        <path id="Trazado_876683" data-name="Trazado 876683" d="M51.106,21.26c-.716-2.005-2.664-1.017-3.983-.02l-.061,6.214a11.317,11.317,0,0,1-.068,1.2,11.165,11.165,0,0,0,1.23-.323C50.647,27.5,52.124,24.114,51.106,21.26Z" fill="#ffbbb7"/>
        <rect id="Rectángulo_403676" data-name="Rectángulo 403676" width="54.744" height="14.46" rx="2.298" transform="translate(9.401 30.567)" fill="#c27e72"/>
        <path id="Trazado_876684" data-name="Trazado 876684" d="M61.848,30.568h-.326a2.292,2.292,0,0,1,.039.391v9.863a2.3,2.3,0,0,1-2.3,2.3H9.44A2.3,2.3,0,0,0,11.7,45.028H61.848a2.3,2.3,0,0,0,2.3-2.3V32.866a2.3,2.3,0,0,0-2.3-2.3Z" fill="#bb765c"/>
        <path id="Trazado_876685" data-name="Trazado 876685" d="M61.848,30.568h-.326a2.292,2.292,0,0,1,.039.391v9.863a2.3,2.3,0,0,1-2.3,2.3H9.44A2.3,2.3,0,0,0,11.7,45.028H61.848a2.3,2.3,0,0,0,2.3-2.3V32.866a2.3,2.3,0,0,0-2.3-2.3Z" fill="#bb765c"/>
        <ellipse id="Elipse_11534" data-name="Elipse 11534" cx="2.882" cy="1.911" rx="2.882" ry="1.911" transform="matrix(0.459, -0.889, 0.889, 0.459, 44.301, 26.25)" fill="#ffb2ad"/>
        <ellipse id="Elipse_11535" data-name="Elipse 11535" cx="1.911" cy="2.882" rx="1.911" ry="2.882" transform="matrix(0.889, -0.459, 0.459, 0.889, 23.299, 22.908)" fill="#ffb2ad"/>
        <path id="Trazado_876686" data-name="Trazado 876686" d="M53.567,45.324,46.005,42.64a12.2,12.2,0,0,1-18.5-.115l-7.548,2.758a9.883,9.883,0,0,0-6.493,9.285V69.124H60.146V54.645a9.883,9.883,0,0,0-6.579-9.321Z" fill="#ffe17f"/>
        <path id="Trazado_876687" data-name="Trazado 876687" d="M24.661,69.124l.7-26.6a.556.556,0,0,0-.675-.558l-2.988.648a1.894,1.894,0,0,0-1.494,1.9l.671,24.615Z" fill="#46b3cc"/>
        <path id="Trazado_876688" data-name="Trazado 876688" d="M52.7,69.124l.671-24.615a1.894,1.894,0,0,0-1.494-1.9l-2.988-.648a.556.556,0,0,0-.675.558l.7,26.608Z" fill="#46b3cc"/>
        <path id="Trazado_876689" data-name="Trazado 876689" d="M36.8,46.835A12.181,12.181,0,0,0,46,42.64a3.677,3.677,0,0,1-2.45-3.469v-4.9a14.066,14.066,0,0,1-4.914,3.317,5.056,5.056,0,0,1-1.371.253,6.321,6.321,0,0,1-2.3-.252,14.061,14.061,0,0,1-4.916-3.318v4.615a3.883,3.883,0,0,1-2.549,3.646,12.188,12.188,0,0,0,9.3,4.306Z" fill="#ffb09e"/>
        <path id="Trazado_876690" data-name="Trazado 876690" d="M37.269,37.837a6.321,6.321,0,0,1-2.3-.252,14.061,14.061,0,0,1-4.916-3.318v2.3a15.816,15.816,0,0,0,5.837,3.975,8.189,8.189,0,0,0,4.759,0,11.879,11.879,0,0,0,2.9-1.509V34.267a14.066,14.066,0,0,1-4.914,3.317,5.056,5.056,0,0,1-1.371.253Z" fill="#ffa691"/>
        <path id="Trazado_876691" data-name="Trazado 876691" d="M47.1,28.66a10.274,10.274,0,0,1-2.77,5.976,15.514,15.514,0,0,1-5.7,4.1,6.488,6.488,0,0,1-3.666,0,15.514,15.514,0,0,1-5.7-4.1A10.275,10.275,0,0,1,26.5,28.66c-.238-1.2-.1-7.458-.107-7.458-1.528-3.781-2.663-8.355-.215-10.021,0,0-.3-7.113,10.837-6.746,4.9.161,7.355,1.345,9.343,4.172a11.123,11.123,0,0,1,1.724,4.758,17.073,17.073,0,0,1-.919,7.814l.011.034A47.634,47.634,0,0,1,47.1,28.66Z" fill="#ffc6b7"/>
        <path id="Trazado_876692" data-name="Trazado 876692" d="M47.162,21.179a17.073,17.073,0,0,0,.919-7.814,11.123,11.123,0,0,0-1.724-4.758A9.623,9.623,0,0,0,44.42,6.539c.115.153.242.293.357.46A11.123,11.123,0,0,1,46.5,11.756a30.082,30.082,0,0,1-.908,7.849,47.633,47.633,0,0,1-.069,7.447,10.274,10.274,0,0,1-2.77,5.976,15.514,15.514,0,0,1-5.7,4.1,6.488,6.488,0,0,1-3.666,0,13.273,13.273,0,0,1-4.474-2.895c.115.136.23.274.354.4a15.514,15.514,0,0,0,5.7,4.1,6.488,6.488,0,0,0,3.666,0,15.514,15.514,0,0,0,5.7-4.1,10.274,10.274,0,0,0,2.77-5.976,47.633,47.633,0,0,0,.069-7.447Z" fill="#ffb8a6"/>
        <path id="Trazado_876693" data-name="Trazado 876693" d="M59.973,24.625c-1.689-1.724-4.569-5.189-4.7-8.879a6.008,6.008,0,0,1,5.737-6.165,5.911,5.911,0,0,1,6.08,5.908c0,3.792-2.988,7.389-4.712,9.149a1.681,1.681,0,0,1-2.406-.013Z" fill="#ff4a4a"/>
        <path id="Trazado_876694" data-name="Trazado 876694" d="M63.4,10.015A5.885,5.885,0,0,1,65.259,14.3c0,3.792-2.988,7.389-4.712,9.149a1.656,1.656,0,0,1-1.2.5c.223.245.438.475.634.675a1.681,1.681,0,0,0,2.4.013c1.724-1.759,4.712-5.354,4.712-9.149A5.91,5.91,0,0,0,63.4,10.015Z" fill="#e7343f"/>
        <circle id="Elipse_11536" data-name="Elipse 11536" cx="2.626" cy="2.626" r="2.626" transform="translate(58.555 12.9)" fill="#fff"/>
        <path id="Trazado_876695" data-name="Trazado 876695" d="M26.431,21.213,27.76,18.6c-.413-5.314,1.457-6.257,3.428-7.157s5.614.815,5.614.815,3.643-1.715,5.614-.815,3.842,1.839,3.428,7.157l1.314,2.584a17.073,17.073,0,0,0,.919-7.814,11.1,11.1,0,0,0-1.724-4.758C44.373,5.776,41.91,4.6,37.017,4.437,25.87,4.069,26.175,11.18,26.175,11.18c-2.456,1.674-1.287,6.272.257,10.066Z" fill="#83718c"/>
        <path id="Trazado_876696" data-name="Trazado 876696" d="M9.46,66.826V50.2l12.377,4.6L36.8,50.2,51.77,54.8l12.377-4.6V66.826a2.3,2.3,0,0,1-2.3,2.3H11.758a2.3,2.3,0,0,1-2.3-2.3Z" fill="#bbec6a"/>
        <path id="Trazado_876697" data-name="Trazado 876697" d="M59.951,69.124h1.9a2.3,2.3,0,0,0,2.3-2.3V50.2l-4.194,1.558Z" fill="#66b373"/>
        <path id="Trazado_876698" data-name="Trazado 876698" d="M36.753,69.124H51.775V54.793l-.006,0L36.8,50.2l-.051.016Z" fill="#4ce166"/>
        <path id="Trazado_876699" data-name="Trazado 876699" d="M21.772,54.772,9.46,50.2V66.826a2.3,2.3,0,0,0,2.3,2.3H21.772Z" fill="#4ce166"/>
        <path id="Trazado_876700" data-name="Trazado 876700" d="M56.42,30.567h3.768v14.46H56.42Z" fill="#ffe7cc"/>
        <path id="Trazado_876701" data-name="Trazado 876701" d="M13.393,30.567h3.768v14.46H13.393Z" fill="#ffe7cc"/>
        <path id="Trazado_876702" data-name="Trazado 876702" d="M67.349,65.186h-3.3a4.093,4.093,0,0,1,0-8.187h3.3a15.149,15.149,0,0,1,0,8.188Z" fill="#ffcebf"/>
        <path id="Trazado_876703" data-name="Trazado 876703" d="M6.2,65.186H9.5A4.093,4.093,0,1,0,9.5,57H6.2a15.148,15.148,0,0,0,0,8.188Z" fill="#ffcebf"/>
        <path id="Trazado_876704" data-name="Trazado 876704" d="M67.349,57H65.916a15.3,15.3,0,0,1,.1,2.39,3.656,3.656,0,0,1-3.66,3.5h-.192a4.05,4.05,0,0,1-1.994-.539,4.081,4.081,0,0,0,3.876,2.837h3.3a15.147,15.147,0,0,0,0-8.188Z" fill="#ffb8a6"/>
        <path id="Trazado_876705" data-name="Trazado 876705" d="M6.2,57H7.632a15.3,15.3,0,0,0-.1,2.39,3.656,3.656,0,0,0,3.66,3.5h.192a4.05,4.05,0,0,0,1.994-.539A4.081,4.081,0,0,1,9.5,65.187H6.2A15.147,15.147,0,0,1,6.2,57Z" fill="#ffb8a6"/>
        <path id="Trazado_876706" data-name="Trazado 876706" d="M26.431,21.214v.034c-.011-.011-.011-.034-.023-.046C26.42,21.2,26.42,21.214,26.431,21.214Z" fill="#ffbaa8"/>
        <path id="Trazado_876707" data-name="Trazado 876707" d="M26.431,21.214v.034c-.011-.011-.011-.034-.023-.046C26.42,21.2,26.42,21.214,26.431,21.214Z" fill="#ffbaa8"/>
        <path id="Trazado_876708" data-name="Trazado 876708" d="M59.262,43.119H56.425v1.908h3.768V42.922a2.285,2.285,0,0,1-.931.2Z" fill="#ffd9ad"/>
        <path id="Trazado_876709" data-name="Trazado 876709" d="M13.393,43.119h3.768v1.908H13.393Z" fill="#ffd9ad"/>
        <path id="Trazado_876710" data-name="Trazado 876710" d="M14.079,33.983v4.169a1.149,1.149,0,1,0,2.3,0V33.983a1.149,1.149,0,0,0-2.3,0Z" fill="#fffdfa"/>
        <circle id="Elipse_11537" data-name="Elipse 11537" cx="1.199" cy="1.199" r="1.199" transform="translate(14.079 40.363)" fill="#fffdfa"/>
        <path id="Trazado_876711" data-name="Trazado 876711" d="M61.184,26.285a2.794,2.794,0,0,0,2.009-.841c1.885-1.92,5.046-5.767,5.046-9.954A7.021,7.021,0,0,0,56.08,10.67a7.167,7.167,0,0,0-1.954,5.116c.144,4.073,3.211,7.789,5.028,9.643a2.828,2.828,0,0,0,2.031.856ZM57.75,12.243a4.735,4.735,0,0,1,8.191,3.246c0,3.371-2.749,6.674-4.388,8.343a.538.538,0,0,1-.76-.013c-1.582-1.615-4.252-4.816-4.367-8.114A4.855,4.855,0,0,1,57.75,12.243Zm7.205,3.282A3.775,3.775,0,1,0,61.18,19.3a3.775,3.775,0,0,0,3.775-3.775Zm-5.252,0A1.477,1.477,0,1,1,61.18,17,1.477,1.477,0,0,1,59.7,15.525Zm8.752,41.162a1.149,1.149,0,0,0-1.107-.839H65.3V50.2a1.149,1.149,0,0,0-1.549-1.077l-3.333,1.237a11.1,11.1,0,0,0-3.092-4.182h4.525a3.448,3.448,0,0,0,3.448-3.448V32.866a3.448,3.448,0,0,0-3.448-3.448H48.61a5.806,5.806,0,0,0,3.253-3.075,7.155,7.155,0,0,0,.328-5.464,2.711,2.711,0,0,0-1.747-1.826,2.873,2.873,0,0,0-1.484-.02,19.053,19.053,0,0,0,.268-5.757A12.2,12.2,0,0,0,47.3,7.955c-2.232-3.187-5.1-4.5-10.247-4.666-4.482-.148-7.825.843-9.909,2.948a7.319,7.319,0,0,0-2.09,4.367c-1.678,1.54-1.877,4.367-.635,8.406a2.79,2.79,0,0,0-1.264.046,2.714,2.714,0,0,0-1.735,1.821,7.158,7.158,0,0,0,.328,5.465A5.807,5.807,0,0,0,25,29.419H11.7a3.448,3.448,0,0,0-3.448,3.448V42.73A3.448,3.448,0,0,0,11.7,46.177h4.5A11.1,11.1,0,0,0,13.16,50.36l-3.3-1.238A1.149,1.149,0,0,0,8.311,50.2V55.85H6.2a1.149,1.149,0,0,0-1.107.839,16.3,16.3,0,0,0,0,8.808,1.149,1.149,0,0,0,1.107.839H8.311v2.789A1.149,1.149,0,0,0,9.46,70.274H64.146A1.149,1.149,0,0,0,65.3,69.125v-2.79h2.054a1.149,1.149,0,0,0,1.107-.839A16.3,16.3,0,0,0,68.455,56.688Zm-10.192-5.53L54.3,52.632,54.457,47a8.8,8.8,0,0,1,3.806,4.157ZM37.139,49.1a1.149,1.149,0,0,0-.675,0L26.255,52.236l.214-8.105.719-.263a13.276,13.276,0,0,0,19.123.1l.8.284.21,7.975Zm-8.7-13.675c.155.163.31.314.46.469v2.988a2.742,2.742,0,0,1-1.8,2.567l-.781.286a1.688,1.688,0,0,0-1.879-.9l-2.988.648a3.041,3.041,0,0,0-2.334,2.4h-.8V31.717h7.76a11.388,11.388,0,0,0,2.363,3.708Zm3.229-22.939c1.117-.508,3.614.325,4.648.8a1.149,1.149,0,0,0,.977,0c1.034-.484,3.534-1.317,4.648-.8,1.742.8,3.117,1.423,2.758,6.023a1.149,1.149,0,0,0,.121.609l1.207,2.371V27.51a9.13,9.13,0,0,1-2.52,6.332,14.174,14.174,0,0,1-5.23,3.8,5.352,5.352,0,0,1-2.943,0,14.189,14.189,0,0,1-5.231-3.8,9.131,9.131,0,0,1-2.52-6.334V21.49l1.2-2.37a1.149,1.149,0,0,0,.121-.61c-.356-4.6,1.019-5.228,2.761-6.023Zm20.461,29-2.988-.647a1.694,1.694,0,0,0-1.933,1.011l-.815-.29A2.536,2.536,0,0,1,44.7,39.171V35.895c.155-.155.309-.306.46-.469a11.384,11.384,0,0,0,2.368-3.708h7.744V43.879h-.8a3.042,3.042,0,0,0-2.344-2.394Zm-7.979,1.4a11.032,11.032,0,0,1-14.806-.1A5.056,5.056,0,0,0,31.2,38.881v-.958a12.088,12.088,0,0,0,3.4,1.9,7.648,7.648,0,0,0,4.4,0,12.086,12.086,0,0,0,3.4-1.9v1.246a4.838,4.838,0,0,0,1.743,3.715ZM21.6,53.524l-.249-9.051a.745.745,0,0,1,.587-.747l2.252-.488-.255,9.706L21.81,53.6Zm28.04-.584-.255-9.7,2.252.487a.747.747,0,0,1,.587.748l-.246,9.014-.246.091ZM63,32.866V42.73a1.149,1.149,0,0,1-1.149,1.149h-.51V31.717h.51A1.149,1.149,0,0,1,63,32.866Zm-3.958-1.149V43.879H57.574V31.717ZM49.766,21.251c.078.024.179.182.257.4a4.9,4.9,0,0,1-.23,3.7,3.849,3.849,0,0,1-1.466,1.67V21.825c.8-.522,1.288-.619,1.439-.576ZM26.822,12.13a1.149,1.149,0,0,0,.5-1,4.908,4.908,0,0,1,1.456-3.279c1.594-1.609,4.439-2.387,8.2-2.268,4.428.146,6.635,1.111,8.44,3.687a9.922,9.922,0,0,1,1.517,4.192,21.594,21.594,0,0,1,.071,2.651A5.983,5.983,0,0,0,42.9,10.394c-1.978-.9-4.906.115-6.091.606-1.187-.488-4.115-1.51-6.091-.606-2.437,1.112-4.43,2.486-4.126,7.843C25.635,15.09,25.691,12.9,26.822,12.13ZM23.816,25.345a4.906,4.906,0,0,1-.23-3.7c.078-.219.179-.378.257-.4.146-.044.637.047,1.445.575v5.2a3.851,3.851,0,0,1-1.472-1.667ZM10.551,42.73V32.866A1.149,1.149,0,0,1,11.7,31.717h.545V43.879H11.7A1.149,1.149,0,0,1,10.551,42.73Zm3.992,1.149V31.717h1.47V43.879Zm4.581,3.063.156,5.711-3.967-1.487a8.8,8.8,0,0,1,3.81-4.224ZM7.1,58.148H9.5a2.945,2.945,0,1,1,0,5.89H7.1a14,14,0,0,1,0-5.89Zm14.675,3.273a1.149,1.149,0,0,0-1.149,1.149v5.4H10.609V66.212a5.238,5.238,0,0,0,0-10.24V51.857l10.76,4.035a1.162,1.162,0,0,0,.741.023l13.544-4.16V67.975H22.921v-5.4a1.149,1.149,0,0,0-1.149-1.154Zm16.18,6.55V51.754l12.674,3.893v4.779a1.149,1.149,0,0,0,2.3,0V55.593L63,51.851v4.1a5.243,5.243,0,0,0,0,10.274v1.746Zm28.5-3.938H64.045a2.945,2.945,0,1,1,0-5.89H66.45a14,14,0,0,1,0,5.893ZM22.921,58.909a1.149,1.149,0,1,1-1.149-1.149A1.149,1.149,0,0,1,22.921,58.909Zm30,5.177a1.149,1.149,0,1,1-1.149-1.149,1.149,1.149,0,0,1,1.149,1.149Z"/>
      </g>
    </g>
  </g>
</svg>
