<svg xmlns="http://www.w3.org/2000/svg" xmlns:xlink="http://www.w3.org/1999/xlink" width="85" height="163" viewBox="0 0 85 163">
  <defs>
    <clipPath id="clip-path">
      <rect id="Rect치ngulo_403726" data-name="Rect치ngulo 403726" width="67" height="67" transform="translate(189.051 4795)" fill="#99abc6"/>
    </clipPath>
  </defs>
  <g id="Grupo_1103135" data-name="Grupo 1103135" transform="translate(-180.051 -4758)">
    <rect id="Rect치ngulo_403724" data-name="Rect치ngulo 403724" width="85" height="163" transform="translate(180.051 4758)" fill="#ffa06f"/>
    <g id="Enmascarar_grupo_1098703" data-name="Enmascarar grupo 1098703" transform="translate(0 11)" clip-path="url(#clip-path)">
      <g id="viaje" transform="translate(189.07 4795.019)">
        <path id="Trazado_877057" data-name="Trazado 877057" d="M36.274,46.057l.345,4.185H32.435l.345-4.185Z" fill="#965353"/>
        <path id="Trazado_877058" data-name="Trazado 877058" d="M34.527,37.687H33.481l-.345,4.185-.356,4.185-.345,4.185H25.111a3.135,3.135,0,0,0-3.139,3.139v2.093H15.809a21.972,21.972,0,1,1,37.436,0H47.082V53.381a3.135,3.135,0,0,0-3.139-3.139H36.62l-.345-4.185-.356-4.185-.345-4.185Z" fill="#87bcf4"/>
        <path id="Trazado_877059" data-name="Trazado 877059" d="M47.082,55.474h6.163a21.975,21.975,0,0,1-37.436,0Z" fill="#5d9cec"/>
        <path id="Trazado_877060" data-name="Trazado 877060" d="M41.851,14.627v1.046H37.666V5.21h4.185v9.416Z" fill="#656d78"/>
        <path id="Trazado_877061" data-name="Trazado 877061" d="M47.082,55.474H21.972V53.381a3.135,3.135,0,0,1,3.139-3.139H43.944a3.135,3.135,0,0,1,3.139,3.139Z" fill="#ffce54"/>
        <circle id="Elipse_11545" data-name="Elipse 11545" cx="6.278" cy="6.278" r="6.278" transform="translate(53.36 16.72)" fill="#a0d468"/>
        <path id="Trazado_877062" data-name="Trazado 877062" d="M12.555,13.581a2.094,2.094,0,1,1-2.093,2.093A2.094,2.094,0,0,1,12.555,13.581Z" fill="#ac92ec"/>
        <path id="Trazado_877063" data-name="Trazado 877063" d="M12.555,24.043a2.09,2.09,0,1,1-1.831,1.078A2.09,2.09,0,0,1,12.555,24.043Z" fill="#ac92ec"/>
        <path id="Trazado_877064" data-name="Trazado 877064" d="M35.919,41.872l.356,4.185H32.78l.356-4.185Z" fill="#844747"/>
        <path id="Trazado_877065" data-name="Trazado 877065" d="M30.2,4.834a4.067,4.067,0,0,1,0,5.755l-.366.366L24.064,16.72l-5.775-5.765-.356-.366a4.076,4.076,0,0,1,5.775-5.755l.356.356.356-.356a4.092,4.092,0,0,1,5.775,0Z" fill="#ed5565"/>
        <path id="Trazado_877066" data-name="Trazado 877066" d="M33.481,37.687h2.093l.345,4.185H33.136Z" fill="#965353"/>
        <path id="Trazado_877067" data-name="Trazado 877067" d="M4.97,19.89a2.093,2.093,0,1,1-1.831-1.078A2.116,2.116,0,0,1,4.97,19.89Z" fill="#ac92ec"/>
        <path id="Trazado_877068" data-name="Trazado 877068" d="M51.268,6.257A2.092,2.092,0,0,1,53.36,8.349v5.231a2.085,2.085,0,0,1-2.093,2.093H44.99l-1.046-1.046H41.851V6.257H44.99l1.046-3.662c.3-1.057.7-1.569,1.569-1.569a1.567,1.567,0,0,1,1.569,1.569V6.257Z" fill="#eac6bb"/>
        <path id="Trazado_877069" data-name="Trazado 877069" d="M24.064,17.768a1.047,1.047,0,0,1-.74-.307L17.2,11.333A5.121,5.121,0,0,1,20.8,2.59h.012a5.1,5.1,0,0,1,3.249,1.157,5.124,5.124,0,0,1,6.869,7.587l-.369.363L24.8,17.461A1.046,1.046,0,0,1,24.064,17.768ZM20.815,4.683h-.007a3.027,3.027,0,0,0-2.133,5.169l5.39,5.39,5.4-5.394a3.027,3.027,0,0,0-.005-4.276,3.109,3.109,0,0,0-4.293,0L24.8,5.93a1.047,1.047,0,0,1-1.475,0l-.36-.358h0a3.025,3.025,0,0,0-2.151-.888Z"/>
        <path id="Trazado_877070" data-name="Trazado 877070" d="M53.36,9.4a1.046,1.046,0,0,1-1.046-1.046,1.047,1.047,0,0,0-1.046-1.046,1.046,1.046,0,0,1,0-2.093,3.142,3.142,0,0,1,3.139,3.139A1.046,1.046,0,0,1,53.36,9.4Z"/>
        <path id="Trazado_877071" data-name="Trazado 877071" d="M51.268,16.721a1.046,1.046,0,0,1,0-2.093,1.047,1.047,0,0,0,1.046-1.046,1.046,1.046,0,0,1,2.093,0A3.142,3.142,0,0,1,51.268,16.721Z"/>
        <path id="Trazado_877072" data-name="Trazado 877072" d="M53.36,14.629a1.046,1.046,0,0,1-1.046-1.046V8.351a1.046,1.046,0,0,1,2.093,0v5.231a1.046,1.046,0,0,1-1.046,1.046Z"/>
        <path id="Trazado_877073" data-name="Trazado 877073" d="M51.268,7.305H49.175a1.046,1.046,0,0,1,0-2.093h2.093a1.046,1.046,0,0,1,0,2.093Z"/>
        <path id="Trazado_877074" data-name="Trazado 877074" d="M51.268,16.721H44.99a1.046,1.046,0,0,1,0-2.093h6.278a1.046,1.046,0,0,1,0,2.093Z"/>
        <path id="Trazado_877075" data-name="Trazado 877075" d="M49.175,7.305a1.046,1.046,0,0,1-1.046-1.046V2.6a1.046,1.046,0,0,1,2.093,0V6.259a1.046,1.046,0,0,1-1.046,1.046Z"/>
        <path id="Trazado_877076" data-name="Trazado 877076" d="M44.991,7.306a1.049,1.049,0,0,1-1.007-1.334L45.03,2.309a1.047,1.047,0,1,1,2.013.575L46,6.546a1.048,1.048,0,0,1-1.005.759Z"/>
        <path id="Trazado_877077" data-name="Trazado 877077" d="M46.036,3.644a1.047,1.047,0,0,1-1.005-1.335A2.7,2.7,0,0,1,47.606-.019,2.618,2.618,0,0,1,50.221,2.6a1.046,1.046,0,0,1-2.093,0,.524.524,0,0,0-.523-.523c-.192,0-.331,0-.564.812A1.047,1.047,0,0,1,46.036,3.644Z"/>
        <path id="Trazado_877078" data-name="Trazado 877078" d="M44.99,16.721a1.043,1.043,0,0,1-.74-.307L43.2,15.369a1.046,1.046,0,1,1,1.479-1.479l1.046,1.046a1.046,1.046,0,0,1-.74,1.786Z"/>
        <path id="Trazado_877079" data-name="Trazado 877079" d="M44.99,7.305H41.851a1.046,1.046,0,0,1,0-2.093H44.99a1.046,1.046,0,0,1,0,2.093Z"/>
        <path id="Trazado_877080" data-name="Trazado 877080" d="M43.944,15.675H41.851a1.046,1.046,0,0,1,0-2.093h2.093a1.046,1.046,0,0,1,0,2.093Z"/>
        <path id="Trazado_877081" data-name="Trazado 877081" d="M41.851,16.721H37.666a1.046,1.046,0,0,1-1.046-1.046V5.212a1.046,1.046,0,0,1,1.046-1.046h4.185A1.046,1.046,0,0,1,42.9,5.212V15.675a1.046,1.046,0,0,1-1.046,1.046Zm-3.139-2.093H40.8V6.259H38.712Z"/>
        <path id="Trazado_877082" data-name="Trazado 877082" d="M59.638,30.323A7.324,7.324,0,1,1,66.962,23a7.324,7.324,0,0,1-7.324,7.324Zm0-12.555A5.231,5.231,0,1,0,64.869,23a5.231,5.231,0,0,0-5.231-5.231Z"/>
        <path id="Trazado_877083" data-name="Trazado 877083" d="M59.638,26.138a1.046,1.046,0,0,1-1.046-1.046V20.907a1.046,1.046,0,0,1,2.093,0v4.185a1.046,1.046,0,0,1-1.046,1.046Z"/>
        <path id="Trazado_877084" data-name="Trazado 877084" d="M61.73,24.045H57.545a1.046,1.046,0,0,1,0-2.093H61.73a1.046,1.046,0,0,1,0,2.093Z"/>
        <path id="Trazado_877085" data-name="Trazado 877085" d="M3.139,24.045a3.139,3.139,0,1,1,3.139-3.139,3.139,3.139,0,0,1-3.139,3.139Zm0-4.185a1.046,1.046,0,1,0,1.046,1.046A1.046,1.046,0,0,0,3.139,19.86Z"/>
        <path id="Trazado_877086" data-name="Trazado 877086" d="M12.555,18.814a3.139,3.139,0,1,1,3.139-3.139A3.139,3.139,0,0,1,12.555,18.814Zm0-4.185A1.046,1.046,0,1,0,13.6,15.675a1.046,1.046,0,0,0-1.046-1.046Z"/>
        <path id="Trazado_877087" data-name="Trazado 877087" d="M12.555,29.277a3.139,3.139,0,1,1,3.139-3.139A3.139,3.139,0,0,1,12.555,29.277Zm0-4.185A1.046,1.046,0,1,0,13.6,26.138a1.046,1.046,0,0,0-1.046-1.046Z"/>
        <path id="Trazado_877088" data-name="Trazado 877088" d="M10.725,26.169a1.04,1.04,0,0,1-.507-.132l-5.761-3.2a1.046,1.046,0,1,1,1.016-1.829l5.761,3.2a1.046,1.046,0,0,1-.509,1.961Z"/>
        <path id="Trazado_877089" data-name="Trazado 877089" d="M4.969,20.937a1.046,1.046,0,0,1-.509-1.961l5.761-3.2a1.046,1.046,0,0,1,1.016,1.829l-5.761,3.2a1.039,1.039,0,0,1-.507.132Z"/>
        <path id="Trazado_877090" data-name="Trazado 877090" d="M34.526,66.981A23.018,23.018,0,1,1,57.544,43.963,23.018,23.018,0,0,1,34.526,66.981Zm0-43.944A20.926,20.926,0,1,0,55.452,43.963,20.926,20.926,0,0,0,34.526,23.037Z"/>
        <path id="Trazado_877091" data-name="Trazado 877091" d="M53.246,56.518H15.807a1.046,1.046,0,0,1,0-2.093H53.246a1.046,1.046,0,0,1,0,2.093Z"/>
        <path id="Trazado_877092" data-name="Trazado 877092" d="M21.971,54.426a1.046,1.046,0,0,1-1.046-1.046,4.189,4.189,0,0,1,4.185-4.185,1.046,1.046,0,1,1,0,2.093,2.1,2.1,0,0,0-2.093,2.093,1.046,1.046,0,0,1-1.046,1.046Z"/>
        <path id="Trazado_877093" data-name="Trazado 877093" d="M47.081,54.426a1.046,1.046,0,0,1-1.046-1.046,2.1,2.1,0,0,0-2.093-2.093,1.046,1.046,0,1,1,0-2.093,4.189,4.189,0,0,1,4.185,4.185,1.046,1.046,0,0,1-1.046,1.046Z"/>
        <path id="Trazado_877094" data-name="Trazado 877094" d="M43.943,51.287H25.11a1.046,1.046,0,0,1,0-2.093H43.943a1.046,1.046,0,1,1,0,2.093Z"/>
        <path id="Trazado_877095" data-name="Trazado 877095" d="M47.081,56.518a1.046,1.046,0,0,1-1.046-1.046V53.38a1.046,1.046,0,0,1,2.093,0v2.093a1.046,1.046,0,0,1-1.046,1.046Z"/>
        <path id="Trazado_877096" data-name="Trazado 877096" d="M21.971,56.518a1.046,1.046,0,0,1-1.046-1.046V53.38a1.046,1.046,0,0,1,2.093,0v2.093a1.046,1.046,0,0,1-1.046,1.046Z"/>
        <path id="Trazado_877097" data-name="Trazado 877097" d="M32.435,51.287a.855.855,0,0,1-.088,0,1.045,1.045,0,0,1-.955-1.129L32.438,37.6a1.033,1.033,0,0,1,1.129-.955,1.045,1.045,0,0,1,.955,1.129L33.476,50.328a1.045,1.045,0,0,1-1.041.959Z"/>
        <path id="Trazado_877098" data-name="Trazado 877098" d="M36.618,51.287a1.045,1.045,0,0,1-1.041-.959L34.53,37.772a1.046,1.046,0,1,1,2.084-.174l1.046,12.555a1.045,1.045,0,0,1-.955,1.129.854.854,0,0,1-.088,0Z"/>
        <path id="Trazado_877099" data-name="Trazado 877099" d="M35.572,38.732H33.48a1.046,1.046,0,0,1,0-2.093h2.093a1.046,1.046,0,1,1,0,2.093Z"/>
        <path id="Trazado_877100" data-name="Trazado 877100" d="M47.082,38.732a1.046,1.046,0,0,1-1.046-1.046,5.232,5.232,0,0,0-10.464,0,1.046,1.046,0,1,1-2.093,0,7.324,7.324,0,0,1,14.649,0,1.046,1.046,0,0,1-1.046,1.046Z"/>
        <path id="Trazado_877101" data-name="Trazado 877101" d="M40.8,38.732a1.046,1.046,0,0,1-1.046-1.046,2.093,2.093,0,0,0-4.185,0,1.046,1.046,0,1,1-2.093,0,4.185,4.185,0,0,1,8.37,0A1.046,1.046,0,0,1,40.8,38.732Z"/>
        <path id="Trazado_877102" data-name="Trazado 877102" d="M34.526,38.732a1.046,1.046,0,0,1-1.046-1.046,5.231,5.231,0,1,0-10.462,0,1.046,1.046,0,1,1-2.093,0,7.323,7.323,0,1,1,14.647,0,1.046,1.046,0,0,1-1.046,1.046Z"/>
        <path id="Trazado_877103" data-name="Trazado 877103" d="M34.526,38.732a1.046,1.046,0,0,1-1.046-1.046,2.093,2.093,0,1,0-4.185,0,1.046,1.046,0,0,1-2.093,0,4.185,4.185,0,1,1,8.37,0,1.046,1.046,0,0,1-1.046,1.046Z"/>
        <path id="Trazado_877104" data-name="Trazado 877104" d="M35.922,42.917h-2.79a1.046,1.046,0,1,1,0-2.093h2.79a1.046,1.046,0,1,1,0,2.093Z"/>
        <path id="Trazado_877105" data-name="Trazado 877105" d="M36.27,47.1H32.783a1.046,1.046,0,1,1,0-2.093H36.27a1.046,1.046,0,0,1,0,2.093Z"/>
      </g>
    </g>
  </g>
</svg>
