<svg xmlns="http://www.w3.org/2000/svg" width="72" height="72" viewBox="0 0 72 72">
  <g id="Grupo_1103122" data-name="Grupo 1103122" transform="translate(-218.32 -1177.008)">
    <g id="Grupo_1102963" data-name="Grupo 1102963" transform="translate(-200.68 56.008)">
      <path id="Trazado_824488" data-name="Trazado 824488" d="M36,0A36,36,0,1,1,0,36,36,36,0,0,1,36,0Z" transform="translate(419 1121)" fill="#56e9cc"/>
      <g id="Fill_out_line" data-name="Fill out line" transform="translate(414.667 1116.667)">
        <path id="Trazado_877167" data-name="Trazado 877167" d="M368.517,30.489a2.028,2.028,0,0,0,2.028-2.028V27.244A3.244,3.244,0,0,0,367.3,24H360v6.489Z" transform="translate(-309.123 -7.189)" fill="#f0bca1"/>
        <path id="Trazado_877168" data-name="Trazado 877168" d="M115.577,71.044H88v-43.8A3.244,3.244,0,0,1,91.244,24h30.822a3.244,3.244,0,0,0-3.244,3.244V67.8A3.244,3.244,0,0,1,115.577,71.044Z" transform="translate(-64.7 -7.189)" fill="#ffd9b5"/>
        <path id="Trazado_877169" data-name="Trazado 877169" d="M306.028,424a2.028,2.028,0,0,1,2.028,2.028v1.217H304V424Z" transform="translate(-258.8 -366.634)" fill="#f5c9aa"/>
        <path id="Trazado_877170" data-name="Trazado 877170" d="M52.389,428.461a2.028,2.028,0,0,0,2.028,2.028H26.028A2.028,2.028,0,0,1,24,428.461v-2.433A2.028,2.028,0,0,1,26.028,424H54.416a2.028,2.028,0,0,0-2.028,2.028Z" transform="translate(-7.189 -366.634)" fill="#ffe3cd"/>
        <path id="Trazado_877171" data-name="Trazado 877171" d="M392,56h3.244v1.217a2.028,2.028,0,0,0,2.028,2.028H392Z" transform="translate(-337.878 -35.944)" fill="#f5c9aa"/>
        <path id="Trazado_877172" data-name="Trazado 877172" d="M219.244,112.111H216l.811-8.111h1.622Z" transform="translate(-179.722 -79.078)" fill="#ba8b5d"/>
        <path id="Trazado_877173" data-name="Trazado 877173" d="M131.244,140.867A3.248,3.248,0,0,1,128,137.622v-.811a.811.811,0,0,1,.811-.811h4.867a.811.811,0,0,1,.811.811v.811A3.248,3.248,0,0,1,131.244,140.867Z" transform="translate(-100.645 -107.833)" fill="#fab53f"/>
        <path id="Trazado_877174" data-name="Trazado 877174" d="M275.244,140.867A3.248,3.248,0,0,1,272,137.622v-.811a.811.811,0,0,1,.811-.811h4.867a.811.811,0,0,1,.811.811v.811A3.248,3.248,0,0,1,275.244,140.867Z" transform="translate(-230.045 -107.833)" fill="#fab53f"/>
        <rect id="Rectángulo_403792" data-name="Rectángulo 403792" width="8" height="3" rx="1.5" transform="translate(34.332 33.333)" fill="#9f764a"/>
        <path id="Trazado_877175" data-name="Trazado 877175" d="M155.466,61.711a1.622,1.622,0,0,0-1.622-1.622h-.811a4.588,4.588,0,0,0-6.489,0h-1.622a4.588,4.588,0,0,0-6.489,0h-.811a1.622,1.622,0,1,0,0,3.244h.811a4.588,4.588,0,0,1,6.489,0h1.622a4.588,4.588,0,0,1,6.489,0h.811A1.622,1.622,0,0,0,155.466,61.711Z" transform="translate(-107.833 -38.411)" fill="#9f764a"/>
        <path id="Trazado_877176" data-name="Trazado 877176" d="M365.789,145.622l-1.259,2.518-.726,1.452-7.748,15.5L352,169.144l.569-3.985.242-1.693,7.748-15.5.726-1.451L362.544,144Z" transform="translate(-301.934 -115.022)" fill="#529ddf"/>
        <path id="Trazado_877177" data-name="Trazado 877177" d="M361.1,337.622l-1.21,1.21-2.277-1.139.242-1.693Z" transform="translate(-306.975 -287.556)" fill="#4384c3"/>
        <path id="Trazado_877178" data-name="Trazado 877178" d="M354.846,353.839,352,356.685l.569-3.985Z" transform="translate(-301.934 -302.563)" fill="#68737f"/>
        <path id="Trazado_877179" data-name="Trazado 877179" d="M358.962,137.706l-3.244-1.622a.811.811,0,0,0-1.088.363l-1.259,2.519-.788-.394a2.636,2.636,0,0,0-3.6,1.319l-1.671,3.9,1.491.639,1.671-3.9a1.014,1.014,0,0,1,1.385-.507l.788.394-7.748,15.5a.812.812,0,0,0-.078.248l-.811,5.678a.811.811,0,0,0,1.377.688l4.055-4.056a.812.812,0,0,0,.152-.211l9.733-19.466a.811.811,0,0,0-.363-1.088ZM348.2,157.418l-2.242,2.242.448-3.139,7.689-15.379,1.793.9Zm8.415-16.83-1.793-.9.9-1.793,1.793.9Z" transform="translate(-294.744 -107.832)"/>
        <path id="Trazado_877180" data-name="Trazado 877180" d="M81.623,20.056a2.436,2.436,0,0,1,2.433-2.433h27.579a4.035,4.035,0,0,0-.813,2.433v9.733h1.622V20.056a2.436,2.436,0,0,1,2.433-2.433h.811a2.436,2.436,0,0,1,2.433,2.433v1.217a1.217,1.217,0,1,1-2.433,0V20.056a.811.811,0,0,0-.811-.811h-1.622v1.622h.811v.406a2.822,2.822,0,0,0,.274,1.217h-1.085v1.622h3.65a2.842,2.842,0,0,0,2.839-2.839V20.056A4.06,4.06,0,0,0,115.689,16H84.056A4.06,4.06,0,0,0,80,20.056V54.933h1.622Z" transform="translate(-57.512)"/>
        <path id="Trazado_877181" data-name="Trazado 877181" d="M53.311,391.3a2.436,2.436,0,0,1-2.433,2.433h-3.65a1.218,1.218,0,0,1-1.217-1.217v-2.433a1.217,1.217,0,0,1,2.433,0v.406H46.822v1.622h2.433a.811.811,0,0,0,.811-.811v-1.217a2.842,2.842,0,0,0-2.839-2.839H18.839A2.842,2.842,0,0,0,16,390.083v2.433a2.842,2.842,0,0,0,2.839,2.839H50.877a4.06,4.06,0,0,0,4.056-4.056V384H53.311Zm-8.648,2.433H18.839a1.218,1.218,0,0,1-1.217-1.217v-2.433a1.218,1.218,0,0,1,1.217-1.217H44.663a2.822,2.822,0,0,0-.274,1.217v2.433A2.822,2.822,0,0,0,44.663,393.733Z" transform="translate(0 -330.689)"/>
        <path id="Trazado_877182" data-name="Trazado 877182" d="M128,58.544a3.244,3.244,0,0,0,6.489,0v-.811a.806.806,0,0,0-.116-.417h0l-2.08-3.467a3.778,3.778,0,0,1,4.593.154l-.7,6.975h-.077a2.433,2.433,0,0,0,0,4.867h4.867a2.433,2.433,0,1,0,0-4.867H140.9L140.2,54a3.778,3.778,0,0,1,4.593-.154l-2.08,3.467h0a.806.806,0,0,0-.116.417v.811a3.244,3.244,0,0,0,6.489,0v-.811a.806.806,0,0,0-.116-.417h0l-1.738-2.9a2.433,2.433,0,0,0-.579-4.8h-.491a5.4,5.4,0,0,0-6.809-.26V48h-1.622v1.362a5.4,5.4,0,0,0-6.809.26h-.491a2.433,2.433,0,0,0-.579,4.8l-1.738,2.9h0a.806.806,0,0,0-.116.417Zm3.244,1.622a1.624,1.624,0,0,1-1.622-1.622h3.244A1.624,1.624,0,0,1,131.243,60.167Zm1-3.244h-2l1-1.668Zm9.544,6.489a.812.812,0,0,1-.811.811h-4.867a.811.811,0,1,1,0-1.622h4.867A.812.812,0,0,1,141.787,63.411Zm-3.97-2.433.649-6.489h.154l.649,6.489Zm9.027-4.056h-2l1-1.668Zm-1,3.244a1.624,1.624,0,0,1-1.622-1.622h3.244A1.624,1.624,0,0,1,145.843,60.167Zm-15.411-8.922h.811a.811.811,0,0,0,.574-.238,3.777,3.777,0,0,1,5.342,0,.811.811,0,0,0,.574.238h1.622a.811.811,0,0,0,.574-.238,3.777,3.777,0,0,1,5.342,0,.811.811,0,0,0,.574.238h.811a.811.811,0,1,1,0,1.622h-.49a5.4,5.4,0,0,0-7.13,0h-.981a5.4,5.4,0,0,0-7.13,0h-.49a.811.811,0,1,1,0-1.622Z" transform="translate(-100.643 -28.756)"/>
        <path id="Trazado_877183" data-name="Trazado 877183" d="M112,224h4.867v1.622H112Z" transform="translate(-86.267 -186.911)"/>
        <path id="Trazado_877184" data-name="Trazado 877184" d="M112,256h6.489v1.622H112Z" transform="translate(-86.267 -215.667)"/>
        <path id="Trazado_877185" data-name="Trazado 877185" d="M192,256h6.489v1.622H192Z" transform="translate(-158.156 -215.667)"/>
        <path id="Trazado_877186" data-name="Trazado 877186" d="M272,256h9.733v1.622H272Z" transform="translate(-230.045 -215.667)"/>
        <path id="Trazado_877187" data-name="Trazado 877187" d="M112,384h6.489v1.622H112Z" transform="translate(-86.267 -330.689)"/>
        <path id="Trazado_877188" data-name="Trazado 877188" d="M192,384h9.733v1.622H192Z" transform="translate(-158.156 -330.689)"/>
        <path id="Trazado_877189" data-name="Trazado 877189" d="M112,288h3.244v1.622H112Z" transform="translate(-86.267 -244.423)"/>
        <path id="Trazado_877190" data-name="Trazado 877190" d="M160,288h8.111v1.622H160Z" transform="translate(-129.4 -244.423)"/>
        <path id="Trazado_877191" data-name="Trazado 877191" d="M256,288h9.733v1.622H256Z" transform="translate(-215.667 -244.423)"/>
        <path id="Trazado_877192" data-name="Trazado 877192" d="M112,352h3.244v1.622H112Z" transform="translate(-86.267 -301.934)"/>
        <path id="Trazado_877193" data-name="Trazado 877193" d="M160,352h8.111v1.622H160Z" transform="translate(-129.4 -301.934)"/>
        <path id="Trazado_877194" data-name="Trazado 877194" d="M256,352h7.3v1.622H256Z" transform="translate(-215.667 -301.934)"/>
        <path id="Trazado_877195" data-name="Trazado 877195" d="M112,320h13.789v1.622H112Z" transform="translate(-86.267 -273.178)"/>
      </g>
    </g>
  </g>
</svg>
