<svg xmlns="http://www.w3.org/2000/svg" xmlns:xlink="http://www.w3.org/1999/xlink" width="105.979" height="107" viewBox="0 0 105.979 107">
  <defs>
    <clipPath id="clip-path">
      <rect id="Rectángulo_403652" data-name="Rectángulo 403652" width="75" height="75" transform="translate(804.051 2119.236)" fill="#fff"/>
    </clipPath>
  </defs>
  <g id="Grupo_1103129" data-name="Grupo 1103129" transform="translate(-282.051 -1237.236)">
    <g id="Grupo_1103019" data-name="Grupo 1103019" transform="translate(-507 -875)">
      <path id="Trazado_876162" data-name="Trazado 876162" d="M0,0V105.979H81.432L107,51.826,81.432,0Z" transform="translate(895.029 2112.236) rotate(90)" fill="#012d71"/>
      <g id="Enmascarar_grupo_1098697" data-name="Enmascarar grupo 1098697" clip-path="url(#clip-path)">
        <g id="turismo_2_" data-name="turismo (2)" transform="translate(804.051 2119.236)">
          <path id="Línea_142" data-name="Línea 142" d="M0,17.146a1.1,1.1,0,0,1-1.1-1.1V0A1.1,1.1,0,0,1,0-1.1,1.1,1.1,0,0,1,1.1,0V16.047A1.1,1.1,0,0,1,0,17.146Z" transform="translate(18.312 31.429)" fill="#fff"/>
          <path id="Línea_143" data-name="Línea 143" d="M0,17.146a1.1,1.1,0,0,1-1.1-1.1V0A1.1,1.1,0,0,1,0-1.1,1.1,1.1,0,0,1,1.1,0V16.047A1.1,1.1,0,0,1,0,17.146Z" transform="translate(56.687 31.429)" fill="#fff"/>
          <path id="Trazado_876823" data-name="Trazado 876823" d="M15.5,33.1a4.026,4.026,0,0,1-4.015-4.024V19.554a4.028,4.028,0,0,1,4.024-4.022h6.053a1.1,1.1,0,0,1,0,2.2H15.514a1.828,1.828,0,0,0-1.827,1.825v9.524a1.825,1.825,0,0,0,2.238,1.778c1.036-.24,10.124-2.343,10.615-2.443a1.1,1.1,0,0,1,.437,2.153c-.349.071-6.5,1.492-10.556,2.43A4.049,4.049,0,0,1,15.5,33.1Z" fill="#fff"/>
          <path id="Trazado_876824" data-name="Trazado 876824" d="M59.494,33.1A4.052,4.052,0,0,1,58.575,33c-4.05-.938-10.205-2.358-10.554-2.429a1.1,1.1,0,1,1,.437-2.153c.491.1,9.579,2.2,10.614,2.442a1.825,1.825,0,0,0,2.24-1.777V19.554a1.828,1.828,0,0,0-1.827-1.825H53.432a1.1,1.1,0,0,1,0-2.2h6.053a4.028,4.028,0,0,1,4.024,4.022v9.524A4.025,4.025,0,0,1,59.494,33.1Z" fill="#fff"/>
          <path id="Trazado_876825" data-name="Trazado 876825" d="M53.432,21.788a1.1,1.1,0,0,1-1.1-1.1V11.654a6.33,6.33,0,0,0-.279-1.869,1.1,1.1,0,1,1,2.1-.648,8.524,8.524,0,0,1,.377,2.517v9.035A1.1,1.1,0,0,1,53.432,21.788Z" fill="#fff"/>
          <path id="Trazado_876826" data-name="Trazado 876826" d="M21.567,21.788a1.1,1.1,0,0,1-1.1-1.1V15.978a6.125,6.125,0,0,1,.873-11.172,6.124,6.124,0,0,1,11.321-1.68H46A8.5,8.5,0,0,1,50.632,4.49a1.1,1.1,0,0,1-1.193,1.845A6.308,6.308,0,0,0,46,5.323H32.581a2.066,2.066,0,0,1-1.81-1.078,3.927,3.927,0,0,0-7.309,1.161,1.851,1.851,0,0,1-1.268,1.432,3.927,3.927,0,0,0-.621,7.239,2.011,2.011,0,0,1,1.093,1.789v4.824A1.1,1.1,0,0,1,21.567,21.788Z" fill="#fff"/>
          <path id="Trazado_876827" data-name="Trazado 876827" d="M26.483,44.185a1.1,1.1,0,0,1-.412-2.117l3.85-1.556a.228.228,0,0,0,.142-.212V34.551a1.1,1.1,0,1,1,2.2,0V40.3a2.418,2.418,0,0,1-1.514,2.248L26.894,44.1A1.1,1.1,0,0,1,26.483,44.185Z" fill="#fff"/>
          <path id="Línea_144" data-name="Línea 144" d="M22.034,1.1H0A1.1,1.1,0,0,1-1.1,0,1.1,1.1,0,0,1,0-1.1H22.034a1.1,1.1,0,0,1,1.1,1.1A1.1,1.1,0,0,1,22.034,1.1Z" transform="translate(26.482 72.728)" fill="#fff"/>
          <path id="Trazado_876828" data-name="Trazado 876828" d="M7.468,69.018a1.1,1.1,0,0,1-.979-1.6L15.64,49.4a11.81,11.81,0,0,1,5.59-5.367,1.1,1.1,0,0,1,.915,2A9.6,9.6,0,0,0,17.6,50.4L8.449,68.417A1.1,1.1,0,0,1,7.468,69.018Z" fill="#fff"/>
          <path id="Trazado_876829" data-name="Trazado 876829" d="M67.531,69.018a1.1,1.1,0,0,1-.98-.6L57.4,50.4a9.6,9.6,0,0,0-4.546-4.365,1.1,1.1,0,1,1,.915-2,11.81,11.81,0,0,1,5.59,5.367l9.151,18.017a1.1,1.1,0,0,1-.979,1.6Z" fill="#fff"/>
          <path id="Trazado_876830" data-name="Trazado 876830" d="M48.516,44.185a1.1,1.1,0,0,1-.411-.08l-3.85-1.556A2.418,2.418,0,0,1,42.739,40.3V34.551a1.1,1.1,0,1,1,2.2,0V40.3a.229.229,0,0,0,.144.213l3.848,1.555a1.1,1.1,0,0,1-.412,2.117Z" fill="#fff"/>
          <path id="Trazado_876831" data-name="Trazado 876831" d="M37.5,45.35A14.77,14.77,0,0,1,29.036,42.7a1.1,1.1,0,0,1,1.253-1.8,12.657,12.657,0,0,0,14.42,0,1.1,1.1,0,0,1,1.253,1.8A14.77,14.77,0,0,1,37.5,45.35Z" fill="#fff"/>
          <path id="Trazado_876832" data-name="Trazado 876832" d="M52.2,27.571H48.8a1.1,1.1,0,0,1,0-2.2H52.2a1.925,1.925,0,1,0,0-3.85H48.8a1.1,1.1,0,0,1,0-2.2H52.2a4.122,4.122,0,1,1,0,8.244Z" fill="#fff"/>
          <path id="Trazado_876833" data-name="Trazado 876833" d="M26.2,27.571H22.8a4.122,4.122,0,1,1,0-8.244H26.2a1.1,1.1,0,0,1,0,2.2H22.8a1.925,1.925,0,0,0,0,3.85H26.2a1.1,1.1,0,0,1,0,2.2Z" fill="#fff"/>
          <path id="Trazado_876834" data-name="Trazado 876834" d="M38.994,8.134h5.549A5.359,5.359,0,0,1,49.9,13.494V26.938a8.179,8.179,0,0,1-1.41,4.4,14.933,14.933,0,0,1-3.244,3.521C42.7,36.9,39.66,38.222,37.5,38.222s-5.2-1.319-7.75-3.361a14.933,14.933,0,0,1-3.244-3.521,8.179,8.179,0,0,1-1.41-4.4V14.958a3.138,3.138,0,0,1,3.135-3.135h5.32A3.794,3.794,0,0,0,37.1,9.41,2.047,2.047,0,0,1,38.994,8.134ZM37.5,36.025c1.64,0,4.261-1.184,6.375-2.879,2.434-1.952,3.83-4.215,3.83-6.209V13.493a3.162,3.162,0,0,0-3.162-3.162H39.1a6.012,6.012,0,0,1-5.545,3.689h-5.32a.938.938,0,0,0-.937.937v11.98c0,1.994,1.4,4.257,3.83,6.209C33.238,34.841,35.86,36.025,37.5,36.025Z" fill="#fff"/>
          <path id="Trazado_876835" data-name="Trazado 876835" d="M37.5,30.074a5.316,5.316,0,0,1-3.882-1.645,1.1,1.1,0,1,1,1.6-1.5,3.209,3.209,0,0,0,4.555,0,1.1,1.1,0,0,1,1.6,1.5A5.316,5.316,0,0,1,37.5,30.074Z" fill="#fff"/>
          <g id="Grupo_1103027" data-name="Grupo 1103027">
            <path id="Línea_145" data-name="Línea 145" d="M0,2.212a1.1,1.1,0,0,1-1.1-1.1V0A1.1,1.1,0,0,1,0-1.1,1.1,1.1,0,0,1,1.1,0V1.114A1.1,1.1,0,0,1,0,2.212Z" transform="translate(32.429 21.186)" fill="#fff"/>
            <path id="Trazado_876836" data-name="Trazado 876836" d="M34.586,18.921a1.1,1.1,0,0,1-.8-.348,1.919,1.919,0,0,0-2.709,0,1.1,1.1,0,1,1-1.6-1.5,4.114,4.114,0,0,1,5.919,0,1.1,1.1,0,0,1-.8,1.849Z" fill="#fff"/>
            <path id="Línea_146" data-name="Línea 146" d="M0,2.212a1.1,1.1,0,0,1-1.1-1.1V0A1.1,1.1,0,0,1,0-1.1,1.1,1.1,0,0,1,1.1,0V1.114A1.1,1.1,0,0,1,0,2.212Z" transform="translate(42.57 21.186)" fill="#fff"/>
            <path id="Trazado_876837" data-name="Trazado 876837" d="M44.727,18.921a1.1,1.1,0,0,1-.8-.348,1.919,1.919,0,0,0-2.709,0,1.1,1.1,0,1,1-1.6-1.5,4.114,4.114,0,0,1,5.919,0,1.1,1.1,0,0,1-.8,1.849Z" fill="#fff"/>
          </g>
          <path id="Trazado_876838" data-name="Trazado 876838" d="M26.482,53.665a1.1,1.1,0,0,1-1.1-1.1V43.015l-2.28.776a.468.468,0,0,0-.317.444v8.228a1.1,1.1,0,1,1-2.2,0V44.235A2.664,2.664,0,0,1,22.4,41.711l2.771-.943A1.826,1.826,0,0,1,27.581,42.5V52.567A1.1,1.1,0,0,1,26.482,53.665Z" fill="#fff"/>
          <path id="Trazado_876839" data-name="Trazado 876839" d="M26.482,73.827H22.421A1.833,1.833,0,0,1,20.59,72v-7.5a1.1,1.1,0,0,1,2.2,0V71.63h2.6V62.44a1.1,1.1,0,1,1,2.2,0V72.728A1.1,1.1,0,0,1,26.482,73.827Z" fill="#fff"/>
          <path id="Trazado_876840" data-name="Trazado 876840" d="M9.732,75a4.513,4.513,0,0,1-2.989-7.9L19.274,56.048A1.1,1.1,0,0,1,20.727,57.7L8.2,68.744a2.319,2.319,0,1,0,3.068,3.478l1.827-1.61a1.1,1.1,0,1,1,1.453,1.648l-1.827,1.61A4.5,4.5,0,0,1,9.732,75Z" fill="#fff"/>
          <path id="Línea_147" data-name="Línea 147" d="M0,6.574A1.1,1.1,0,0,1-.824,6.2a1.1,1.1,0,0,1,.1-1.551L5.484-.824a1.1,1.1,0,0,1,1.551.1,1.1,1.1,0,0,1-.1,1.551L.727,6.3A1.1,1.1,0,0,1,0,6.574Z" transform="translate(17.691 62.544)" fill="#fff"/>
          <path id="Trazado_876841" data-name="Trazado 876841" d="M21.276,51.363h4.5a3.493,3.493,0,0,1,3.489,3.489v5.3a3.493,3.493,0,0,1-3.489,3.489h-4.5A2.377,2.377,0,0,1,18.9,61.268V53.738A2.377,2.377,0,0,1,21.276,51.363Zm4.5,10.082a1.293,1.293,0,0,0,1.292-1.292v-5.3a1.293,1.293,0,0,0-1.292-1.292h-4.5a.177.177,0,0,0-.177.177v7.531a.177.177,0,0,0,.177.177Z" fill="#fff"/>
          <path id="Trazado_876842" data-name="Trazado 876842" d="M52.578,73.827H48.516a1.1,1.1,0,0,1-1.1-1.1V62.44a1.1,1.1,0,0,1,2.2,0v9.19h2.6V64.5a1.1,1.1,0,1,1,2.2,0V72A1.833,1.833,0,0,1,52.578,73.827Z" fill="#fff"/>
          <path id="Trazado_876843" data-name="Trazado 876843" d="M48.516,53.665a1.1,1.1,0,0,1-1.1-1.1V42.5a1.826,1.826,0,0,1,2.416-1.728l2.769.943a2.664,2.664,0,0,1,1.807,2.524v8.228a1.1,1.1,0,0,1-2.2,0V44.235a.468.468,0,0,0-.317-.444l-2.281-.776v9.552A1.1,1.1,0,0,1,48.516,53.665Z" fill="#fff"/>
          <path id="Trazado_876844" data-name="Trazado 876844" d="M65.267,75a4.5,4.5,0,0,1-2.984-1.125l-11.914-10.5a1.1,1.1,0,1,1,1.453-1.648l11.913,10.5A2.319,2.319,0,1,0,66.8,68.744L54.272,57.7a1.1,1.1,0,0,1,1.453-1.648L68.256,67.1a4.513,4.513,0,0,1-2.99,7.9Z" fill="#fff"/>
          <path id="Trazado_876845" data-name="Trazado 876845" d="M49.22,51.363h4.5A2.377,2.377,0,0,1,56.1,53.738v7.531a2.377,2.377,0,0,1-2.374,2.374h-4.5a3.493,3.493,0,0,1-3.489-3.489v-5.3A3.493,3.493,0,0,1,49.22,51.363Zm4.5,10.082a.177.177,0,0,0,.177-.177V53.738a.177.177,0,0,0-.177-.177h-4.5a1.293,1.293,0,0,0-1.292,1.292v5.3a1.293,1.293,0,0,0,1.292,1.292Z" fill="#fff"/>
          <path id="Línea_148" data-name="Línea 148" d="M22.035,1.1H0A1.1,1.1,0,0,1-1.1,0,1.1,1.1,0,0,1,0-1.1H22.035a1.1,1.1,0,0,1,1.1,1.1A1.1,1.1,0,0,1,22.035,1.1Z" transform="translate(26.482 49.078)" fill="#fff"/>
        </g>
      </g>
    </g>
  </g>
</svg>
