<svg xmlns="http://www.w3.org/2000/svg" xmlns:xlink="http://www.w3.org/1999/xlink" width="85" height="64.276" viewBox="0 0 85 64.276">
  <defs>
    <clipPath id="clip-path">
      <rect id="Rect치ngulo_403696" data-name="Rect치ngulo 403696" width="48" height="48" transform="translate(1038.051 940)" fill="#fff" stroke="#707070" stroke-width="1"/>
    </clipPath>
  </defs>
  <g id="Grupo_1103124" data-name="Grupo 1103124" transform="translate(-1020.051 -932)">
    <g id="Grupo_1103123" data-name="Grupo 1103123">
      <rect id="Rect치ngulo_402927" data-name="Rect치ngulo 402927" width="85" height="64.276" transform="translate(1020.051 932)" fill="#dfecf5"/>
      <g id="Enmascarar_grupo_1098690" data-name="Enmascarar grupo 1098690" clip-path="url(#clip-path)">
        <g id="agente-de-viajes" transform="translate(1036.451 938.4)">
          <g id="Grupo_1103005" data-name="Grupo 1103005">
            <path id="Trazado_876712" data-name="Trazado 876712" d="M4,15.2H47.2V45.6H4Z" fill="#80daff"/>
            <path id="Trazado_876713" data-name="Trazado 876713" d="M2.4,5.6H48.8v9.6H2.4Z" fill="#25b1fa"/>
            <path id="Trazado_876714" data-name="Trazado 876714" d="M28,6.4V4.8H2.4a.8.8,0,0,0-.8.8v9.6a.8.8,0,0,0,.8.8h.8v2.4H4.8V16H27.2V14.4H3.2v-8Z"/>
            <path id="Trazado_876715" data-name="Trazado 876715" d="M48.8,4.8H48v9.6H36.8V16h9.6V40H48V16h.8a.8.8,0,0,0,.8-.8V5.6A.8.8,0,0,0,48.8,4.8Z"/>
            <path id="Trazado_876716" data-name="Trazado 876716" d="M2.4,45.6H48.8v3.2H2.4Z" fill="#25b1fa"/>
            <path id="Trazado_876717" data-name="Trazado 876717" d="M44.792,6.859,46.5,3.768A1.071,1.071,0,0,0,45.553,2.4l-2.934.534a1.647,1.647,0,0,0-1,.286L39.442,4.727l-7.307-1L29.948,5.463l5.77,2.782-3.724,3.518-3.258-.578-1.536.842,4.326,3.795Z" fill="#fdbf44"/>
            <path id="Trazado_876718" data-name="Trazado 876718" d="M31.526,16.621a.8.8,0,0,1-.528-.2l-4.326-3.795a.8.8,0,0,1,.143-1.3l1.536-.842a.8.8,0,0,1,.524-.086l2.862.508,2.587-2.443L29.6,6.184a.8.8,0,0,1-.15-1.347L31.638,3.1a.8.8,0,0,1,.607-.167l7,.961,1.917-1.329a2.428,2.428,0,0,1,1.393-.43h0l2.856-.52a.8.8,0,0,1,.172-.012A1.87,1.87,0,0,1,47.26,4.022a.807.807,0,0,1-.059.133L45.492,7.246a.8.8,0,0,1-.252.276L31.974,16.484a.8.8,0,0,1-.448.137Zm-2.94-4.442,3,2.634L44.185,6.3l1.564-2.83a.28.28,0,0,0-.054-.16.287.287,0,0,0-.124-.1l-2.81.511a.818.818,0,0,1-.173.012.845.845,0,0,0-.519.145L39.9,5.385a.8.8,0,0,1-.565.135l-6.968-.957-.922.733,4.622,2.228a.8.8,0,0,1,.2,1.3l-3.724,3.518a.8.8,0,0,1-.689.206l-2.981-.529Z"/>
            <path id="Trazado_876719" data-name="Trazado 876719" d="M6.4,8.8H24V12H6.4Z" fill="#fdbf44"/>
            <path id="Trazado_876720" data-name="Trazado 876720" d="M24,12.8H6.4a.8.8,0,0,1-.8-.8V8.8A.8.8,0,0,1,6.4,8H24a.8.8,0,0,1,.8.8V12A.8.8,0,0,1,24,12.8ZM7.2,11.2h16V9.6H7.2Z"/>
          </g>
          <path id="Trazado_876721" data-name="Trazado 876721" d="M7.2,19.2h16V45.6H7.2Z" fill="#fcfeff"/>
          <path id="Trazado_876722" data-name="Trazado 876722" d="M48.8,44.8H48V41.6H46.4v3.2H24V19.2a.8.8,0,0,0-.8-.8H7.2a.8.8,0,0,0-.8.8V44.8H4.8V20H3.2V44.8H2.4a.8.8,0,0,0-.8.8v3.2a.8.8,0,0,0,.8.8H48.8a.8.8,0,0,0,.8-.8V45.6A.8.8,0,0,0,48.8,44.8ZM8,20H22.4V44.8H8ZM48,48H3.2V46.4H48Z"/>
          <path id="Trazado_876723" data-name="Trazado 876723" d="M26.4,19.2H44V40.8H26.4Z" fill="#fcfeff"/>
          <path id="Trazado_876724" data-name="Trazado 876724" d="M10.4,27.2H20V32H10.4Z" fill="#fdbf44"/>
          <path id="Trazado_876725" data-name="Trazado 876725" d="M20,26.4h-.425l-3.76-4.512a.8.8,0,0,0-1.229,0L10.825,26.4H10.4a.8.8,0,0,0-.8.8V32a.8.8,0,0,0,.8.8H20a.8.8,0,0,0,.8-.8V27.2A.8.8,0,0,0,20,26.4Zm-4.8-2.75,2.292,2.75H12.908Zm4,7.55h-8V28h8Z"/>
          <path id="Trazado_876726" data-name="Trazado 876726" d="M9.6,34.4h1.6v3.2H9.6Z"/>
          <path id="Trazado_876727" data-name="Trazado 876727" d="M26.4,37.6H44v3.2H26.4Z" fill="#fdbf44"/>
          <path id="Trazado_876728" data-name="Trazado 876728" d="M44,18.4H26.4a.8.8,0,0,0-.8.8V40.8a.8.8,0,0,0,.8.8H44a.8.8,0,0,0,.8-.8V19.2A.8.8,0,0,0,44,18.4ZM43.2,20V36.8h-16V20Zm0,20h-16V38.4h16Z"/>
        </g>
      </g>
    </g>
  </g>
</svg>
