<svg xmlns="http://www.w3.org/2000/svg" xmlns:xlink="http://www.w3.org/1999/xlink" width="105.979" height="107" viewBox="0 0 105.979 107">
  <defs>
    <clipPath id="clip-path">
      <rect id="Rectángulo_403652" data-name="Rectángulo 403652" width="75" height="75" transform="translate(804.051 2119.236)" fill="#fff"/>
    </clipPath>
  </defs>
  <g id="Grupo_1103131" data-name="Grupo 1103131" transform="translate(-902.062 -1237.236)">
    <g id="Grupo_1103025" data-name="Grupo 1103025" transform="translate(113.011 -875)">
      <path id="Trazado_876162" data-name="Trazado 876162" d="M0,0V105.979H81.432L107,51.826,81.432,0Z" transform="translate(895.029 2112.236) rotate(90)" fill="#012d71"/>
      <g id="Enmascarar_grupo_1098696" data-name="Enmascarar grupo 1098696" clip-path="url(#clip-path)">
        <g id="_OUTLINE" data-name=" OUTLINE" transform="translate(801.734 2116.91)">
          <path id="Trazado_876820" data-name="Trazado 876820" d="M38.888,28.138a85.667,85.667,0,0,0-20.85,44.694l-.605,4.134,2.462.36.6-4.134a83.185,83.185,0,0,1,20.246-43.4Z" fill="#fff"/>
          <rect id="Rectángulo_403712" data-name="Rectángulo 403712" width="3.733" height="2.489" transform="translate(54.749 74.658)" fill="#fff"/>
          <path id="Trazado_876821" data-name="Trazado 876821" d="M73.413,34.84H68.436V21.153a4.977,4.977,0,0,0-9.451-2.178,33.835,33.835,0,0,0-3.066-2.534A83.459,83.459,0,0,1,67.353,9.882l-1.932,3.864,2.226,1.113L71.824,6.5,63.469,2.327,62.356,4.552,67.444,7.1a85.947,85.947,0,0,0-13.738,7.852,33.569,33.569,0,0,0-4.766-2.443,13.161,13.161,0,0,0,3.32-8.773V2.489H51.016A13.174,13.174,0,0,0,41.64,6.372L39.518,8.494,29.36,4.431a3.729,3.729,0,0,0-4.026.826L21.6,9l4.463,2.479A33.6,33.6,0,0,0,14.616,69.393l1.591-1.914a31.278,31.278,0,0,1-5.01-5.265h.215a4.769,4.769,0,0,0,4.764-4.764,2.26,2.26,0,0,1,.666-1.609l2.916-2.916a4.733,4.733,0,0,0,1.4-3.368v-.817a4.733,4.733,0,0,0-1.4-3.368L18.3,43.915a4.769,4.769,0,0,0-6.737,0l-.214.214a2.26,2.26,0,0,1-1.609.666H5c-.016-.414-.028-.828-.028-1.244A31.125,31.125,0,0,1,5.2,39.817H9.8a3.884,3.884,0,0,0,2.746-6.63L8.517,29.154A31.1,31.1,0,0,1,29.184,13.213l3.61,2.006-7.908,7.908v3.655L19.609,24.67l-5.647,5.647,7.478,2.991,2.991,7.478,5.647-5.647-2.111-5.277h3.655l7.908-7.908,6.221,11.2,3.739-3.739a3.729,3.729,0,0,0,.826-4.026L46.255,15.231l.8-.8a30.9,30.9,0,0,1,4.461,2.106q-.755.566-1.5,1.146l1.536,1.958q1.1-.859,2.218-1.68a31.3,31.3,0,0,1,4.713,4V34.84H53.5a3.737,3.737,0,0,0-3.733,3.733V68.436a3.718,3.718,0,0,0,1,2.541,30.9,30.9,0,0,1-4.734,2.051V71.956a3.709,3.709,0,0,0-1.093-2.64l-2.275-2.275a1.236,1.236,0,0,1-.365-.88V64.7a1.246,1.246,0,0,1,1.244-1.244,3.737,3.737,0,0,0,3.733-3.733V55.993A3.737,3.737,0,0,0,43.55,52.26h-2.7a3.709,3.709,0,0,0-2.64,1.093L32.2,59.362a1.236,1.236,0,0,1-.88.365H29.863a3.737,3.737,0,0,0-3.733,3.733v2.7a3.709,3.709,0,0,0,1.093,2.64l1.031,1.031a1.236,1.236,0,0,1,.365.88v3.045a30.88,30.88,0,0,1-4.5-1.482l-.958,2.3a33.658,33.658,0,0,0,30.527-2.4H73.413a3.737,3.737,0,0,0,3.733-3.733V38.573A3.737,3.737,0,0,0,73.413,34.84ZM9.741,47.283a4.733,4.733,0,0,0,3.368-1.4l.214-.214a2.275,2.275,0,0,1,3.217,0L18,47.132a2.26,2.26,0,0,1,.666,1.609v.817A2.26,2.26,0,0,1,18,51.167l-2.916,2.916a4.733,4.733,0,0,0-1.4,3.368,2.278,2.278,0,0,1-2.275,2.275H9.507A30.987,30.987,0,0,1,5.2,47.283ZM10.79,34.947A1.4,1.4,0,0,1,9.8,37.329h-4.2a30.992,30.992,0,0,1,1.785-5.781Zm14.55,1.412-1.986-4.965L18.39,29.409l1.818-1.818,4.965,1.986,1.986,4.965Zm21.277-25.01-3.282,3.282,4.672,11.681a1.243,1.243,0,0,1-.276,1.342l-1.406,1.406L40.1,17.862l-9.512,9.512H27.375V24.157l9.512-9.512-7.254-4.03-.008-.04-.047.01-3.89-2.161,1.406-1.406a1.243,1.243,0,0,1,1.342-.276l11.681,4.672L43.4,8.132a10.69,10.69,0,0,1,6.292-3.075,10.69,10.69,0,0,1-3.075,6.292Zm-3.067,62.4a31.328,31.328,0,0,1-12.443.508v-3.55a3.709,3.709,0,0,0-1.093-2.64l-1.031-1.031a1.236,1.236,0,0,1-.365-.88v-2.7a1.246,1.246,0,0,1,1.244-1.244h1.458a3.709,3.709,0,0,0,2.64-1.093l6.008-6.008a1.236,1.236,0,0,1,.88-.365h2.7a1.246,1.246,0,0,1,1.244,1.244v3.733a1.246,1.246,0,0,1-1.244,1.244A3.737,3.737,0,0,0,39.817,64.7v1.458a3.709,3.709,0,0,0,1.093,2.64l2.275,2.275a1.236,1.236,0,0,1,.365.88Zm17.42-52.6a2.489,2.489,0,0,1,4.977,0V34.84H60.971ZM74.658,68.436a1.246,1.246,0,0,1-1.244,1.244H53.5a1.246,1.246,0,0,1-1.244-1.244V38.573A1.246,1.246,0,0,1,53.5,37.329H73.413a1.246,1.246,0,0,1,1.244,1.244Z" fill="#fff"/>
          <rect id="Rectángulo_403713" data-name="Rectángulo 403713" width="3.733" height="2.489" transform="translate(69.681 74.658)" fill="#fff"/>
          <rect id="Rectángulo_403714" data-name="Rectángulo 403714" width="2.489" height="27.375" transform="translate(55.993 39.817)" fill="#fff"/>
          <rect id="Rectángulo_403715" data-name="Rectángulo 403715" width="2.489" height="27.375" transform="translate(62.215 39.817)" fill="#fff"/>
          <rect id="Rectángulo_403716" data-name="Rectángulo 403716" width="2.489" height="27.375" transform="translate(68.436 39.817)" fill="#fff"/>
          <path id="Trazado_876822" data-name="Trazado 876822" d="M37.329,41.062v.729l-3,3a2.473,2.473,0,0,0-.729,1.76v.729a2.491,2.491,0,0,0,2.489,2.489H39.3a2.473,2.473,0,0,0,1.76-.729l1.76-1.76h1.973a2.491,2.491,0,0,0,2.489-2.489V41.062a2.491,2.491,0,0,0-2.489-2.489H39.817A2.491,2.491,0,0,0,37.329,41.062Zm2.489.729v-.729h4.977v3.733H42.821a2.473,2.473,0,0,0-1.76.729l-1.76,1.76H36.085v-.729l3-3a2.473,2.473,0,0,0,.729-1.76Z" fill="#fff"/>
        </g>
      </g>
    </g>
  </g>
</svg>
