<svg xmlns="http://www.w3.org/2000/svg" xmlns:xlink="http://www.w3.org/1999/xlink" width="105.979" height="107" viewBox="0 0 105.979 107">
  <defs>
    <clipPath id="clip-path">
      <rect id="Rectángulo_403652" data-name="Rectángulo 403652" width="75" height="75" transform="translate(804.051 2119.236)" fill="#fff"/>
    </clipPath>
    <clipPath id="clip-path-2">
      <path id="path735" d="M0-75H75V0H0Z"/>
    </clipPath>
  </defs>
  <g id="Grupo_1103123" data-name="Grupo 1103123" transform="translate(-789.051 -2112.236)">
    <g id="Grupo_1102993" data-name="Grupo 1102993">
      <path id="Trazado_876162" data-name="Trazado 876162" d="M0,0V105.979H81.432L107,51.826,81.432,0Z" transform="translate(895.029 2112.236) rotate(90)" fill="#afd1e6"/>
      <g id="Enmascarar_grupo_1098683" data-name="Enmascarar grupo 1098683" clip-path="url(#clip-path)">
        <g id="g729" transform="translate(804.051 2194.236)">
          <g id="g731">
            <g id="g733" clip-path="url(#clip-path-2)">
              <g id="g739" transform="translate(43.64 -51.798)">
                <path id="path741" d="M0,0H-12.281V-11.117a2.2,2.2,0,0,1,2.2-2.2H-2.2a2.2,2.2,0,0,1,2.2,2.2Z" fill="#eaf6ff"/>
              </g>
              <g id="g743" transform="translate(41.443 -65.112)">
                <path id="path745" d="M0,0H-4.395A2.2,2.2,0,0,1-2.2,2.2V13.315H2.2V2.2A2.2,2.2,0,0,0,0,0" fill="#d8ecfe"/>
              </g>
              <g id="g747" transform="translate(37.572 -1.099)">
                <path id="path749" d="M0,0A28.623,28.623,0,0,1-20.391-8.388a28.639,28.639,0,0,1-8.442-20.344,28.616,28.616,0,0,1,8.442-20.406A28.637,28.637,0,0,1-.009-57.582a28.62,28.62,0,0,1,20.369,8.443,28.557,28.557,0,0,1,8.33,20.422,28.592,28.592,0,0,1-8.33,20.329A28.581,28.581,0,0,1,0,0Z" fill="#ffe179"/>
              </g>
              <g id="g751" transform="translate(57.931 -50.237)">
                <path id="path753" d="M0,0A28.62,28.62,0,0,0-20.369-8.443q-1.106,0-2.2.082A28.6,28.6,0,0,1-4.395,0a28.558,28.558,0,0,1,8.33,20.422,28.592,28.592,0,0,1-8.33,20.329,28.515,28.515,0,0,1-18.163,8.307q1.091.081,2.2.081h0A28.58,28.58,0,0,0,0,40.751,28.592,28.592,0,0,0,8.33,20.422,28.558,28.558,0,0,0,0,0" fill="#fbd268"/>
              </g>
              <g id="g755" transform="translate(53.315 -45.611)">
                <path id="path757" d="M0,0C-.275-.275-.082-1.024-.367-1.282a22.948,22.948,0,0,0-30.771-.013c-.29.262-.346.79-.626,1.069s-.751.278-1,.553a22.95,22.95,0,0,0-.026,30.815c.258.285.74.205,1.014.48.246.246.281.845.536,1.077a23.1,23.1,0,0,0,30.9.055c.276-.25.02-.92.286-1.185s1.029-.1,1.269-.367A23.272,23.272,0,0,0,1.278.366C1.018.077.277.277,0,0" fill="#eaf6ff"/>
              </g>
              <g id="g759" transform="translate(53.315 -45.611)">
                <path id="path761" d="M0,0C-.275-.275-.082-1.024-.367-1.282A22.885,22.885,0,0,0-17.949-7.1,22.85,22.85,0,0,1-3.922-.483a23.225,23.225,0,0,1,0,32.464A22.771,22.771,0,0,1-17.94,38.549,22.945,22.945,0,0,0-.34,32.755c.276-.25.02-.92.286-1.185s1.029-.1,1.269-.367A23.272,23.272,0,0,0,1.278.366C1.018.077.277.277,0,0" fill="#d8ecfe"/>
              </g>
              <g id="g763" transform="translate(33.683 -33.969)">
                <path id="path765" d="M0,0,14.211-7.1A.586.586,0,0,1,15-6.314L7.9,7.9a.585.585,0,0,1-.262.262l-14.211,7.1a.586.586,0,0,1-.786-.786L-.262.262A.586.586,0,0,1,0,0" fill="#f58a97"/>
              </g>
              <g id="g767" transform="translate(41.579 -26.072)">
                <path id="path769" d="M0,0A.587.587,0,0,1-.262.262l-14.211,7.1a.586.586,0,0,1-.786-.786l7.1-14.211A.585.585,0,0,1-7.9-7.9Z" fill="#f58a97"/>
              </g>
              <g id="g771" transform="translate(28.462 -23.782)">
                <path id="path773" d="M0,0-2.141,4.286a.586.586,0,0,0,.786.786l14.211-7.1a.585.585,0,0,0,.262-.262L10.275-5.134Z" fill="#f07281"/>
              </g>
              <g id="g775" transform="translate(33.421 -33.706)">
                <path id="path777" d="M0,0A.587.587,0,0,1,.262-.262l14.211-7.1a.586.586,0,0,1,.786.786L8.159,7.634A.585.585,0,0,1,7.9,7.9Z" fill="#8ac9fe"/>
              </g>
              <g id="g779" transform="translate(47.894 -41.069)">
                <path id="path781" d="M0,0-4.286,2.141-9.419,12.416l2.843,2.843A.585.585,0,0,0-6.314,15L.786.786A.586.586,0,0,0,0,0" fill="#60b7ff"/>
              </g>
              <g id="g783" transform="translate(32.802 -34.588)">
                <path id="path785" d="M0,0A6.644,6.644,0,1,1,0,9.4,6.644,6.644,0,0,1,0,0" fill="#ffe179"/>
              </g>
              <g id="g787" transform="translate(42.198 -34.588)">
                <path id="path789" d="M0,0A6.644,6.644,0,0,0-6.9-1.574,6.618,6.618,0,0,1-4.395,0a6.644,6.644,0,0,1,0,9.4A6.616,6.616,0,0,1-6.9,10.97,6.645,6.645,0,0,0,0,9.4,6.644,6.644,0,0,0,0,0" fill="#fbd268"/>
              </g>
              <g id="g791" transform="translate(43.641 -61.5)">
                <path id="path793" d="M0,0A7.8,7.8,0,0,0,1.458-4.556,7.846,7.846,0,0,0-6.388-12.4a7.846,7.846,0,0,0-7.846,7.846A7.81,7.81,0,0,0-12.281.623" fill="none" stroke="#000" stroke-linecap="round" stroke-linejoin="round" stroke-miterlimit="10" stroke-width="2.197"/>
              </g>
              <g id="g795" transform="translate(31.359 -58.015)">
                <path id="path797" d="M0,0V-4.9A2.2,2.2,0,0,1,2.2-7.1h7.887a2.2,2.2,0,0,1,2.2,2.2V-.025" fill="none" stroke="#000" stroke-linecap="round" stroke-linejoin="round" stroke-miterlimit="10" stroke-width="2.197"/>
              </g>
              <g id="g799" transform="translate(18.657 -51.615)">
                <path id="path801" d="M0,0A28.809,28.809,0,0,1,39.275,1.378,28.557,28.557,0,0,1,47.6,21.8,28.541,28.541,0,0,1,18.917,50.517h0A28.731,28.731,0,0,1-9.919,21.785,28.578,28.578,0,0,1-3.586,3.728" fill="none" stroke="#000" stroke-linecap="round" stroke-linejoin="round" stroke-miterlimit="10" stroke-width="2.197"/>
              </g>
              <g id="g803" transform="translate(53.788 -46.094)">
                <path id="path805" d="M0,0A22.947,22.947,0,0,0-32.464,0a22.949,22.949,0,0,0,0,32.464A23.083,23.083,0,0,0,0,32.464,23.225,23.225,0,0,0,0,0Z" fill="none" stroke="#000" stroke-linecap="round" stroke-linejoin="round" stroke-miterlimit="10" stroke-width="2.197"/>
              </g>
              <g id="g807" transform="translate(23.268 -44.123)">
                <path id="path809" d="M0,0-1.957-1.957" fill="none" stroke="#000" stroke-linecap="round" stroke-linejoin="round" stroke-miterlimit="10" stroke-width="2.197"/>
              </g>
              <g id="g811" transform="translate(51.733 -15.656)">
                <path id="path813" d="M0,0,1.982,1.982" fill="none" stroke="#000" stroke-linecap="round" stroke-linejoin="round" stroke-miterlimit="10" stroke-width="2.197"/>
              </g>
              <g id="g815" transform="translate(21.285 -13.674)">
                <path id="path817" d="M0,0,1.982-1.982" fill="none" stroke="#000" stroke-linecap="round" stroke-linejoin="round" stroke-miterlimit="10" stroke-width="2.197"/>
              </g>
              <g id="g819" transform="translate(51.733 -44.122)">
                <path id="path821" d="M0,0,1.982-1.982" fill="none" stroke="#000" stroke-linecap="round" stroke-linejoin="round" stroke-miterlimit="10" stroke-width="2.197"/>
              </g>
              <g id="g823" transform="translate(38.627 -36.438)">
                <path id="path825" d="M0,0,9.267-4.63a.586.586,0,0,1,.787.785L5.421,5.424" fill="none" stroke="#000" stroke-linecap="round" stroke-linejoin="round" stroke-miterlimit="10" stroke-width="2.197"/>
              </g>
              <g id="g827" transform="translate(36.376 -23.341)">
                <path id="path829" d="M0,0-9.27,4.63a.586.586,0,0,1-.787-.785l4.63-9.27" fill="none" stroke="#000" stroke-linecap="round" stroke-linejoin="round" stroke-miterlimit="10" stroke-width="2.197"/>
              </g>
              <g id="g831" transform="translate(39.62 -23.591)">
                <path id="path833" d="M0,0A6.644,6.644,0,0,1-6.818-1.6a6.644,6.644,0,0,1,0-9.4,6.644,6.644,0,0,1,9.4,0A6.647,6.647,0,0,1,3.824-3.325" fill="none" stroke="#000" stroke-linecap="round" stroke-linejoin="round" stroke-miterlimit="10" stroke-width="2.197"/>
              </g>
              <g id="g835" transform="translate(35.123 -42.438)">
                <path id="path837" d="M0,0V-6.786L4.577-.142c.085.123.176.063.176-.087L4.69-6.8" fill="none" stroke="#000" stroke-linecap="round" stroke-linejoin="round" stroke-miterlimit="10" stroke-width="2.197"/>
              </g>
              <g id="g839" transform="translate(21.794 -33.289)">
                <path id="path841" d="M0,0H-2.865V6.8H0" fill="none" stroke="#000" stroke-linecap="round" stroke-linejoin="round" stroke-miterlimit="10" stroke-width="2.197"/>
              </g>
              <g id="g843" transform="translate(21.582 -29.889)">
                <path id="path845" d="M0,0H-2.653" fill="none" stroke="#000" stroke-linecap="round" stroke-linejoin="round" stroke-miterlimit="10" stroke-width="2.197"/>
              </g>
              <g id="g847" transform="translate(39.501 -16.513)">
                <path id="path849" d="M0,0A3.129,3.129,0,0,0-2.683-.6,1.431,1.431,0,0,0-3.238,1.97s.946.422,2,.809c2.527.932,1.438,3.376-.6,3.376A3.24,3.24,0,0,1-4.229,5.139" fill="none" stroke="#000" stroke-linecap="round" stroke-linejoin="round" stroke-miterlimit="10" stroke-width="2.197"/>
              </g>
              <g id="g851" transform="translate(49.018 -33.32)">
                <path id="path853" d="M0,0,1.337,6.758a.155.155,0,0,0,.293,0L3.717.013" fill="none" stroke="#000" stroke-linecap="round" stroke-linejoin="round" stroke-miterlimit="10" stroke-width="2.197"/>
              </g>
              <g id="g855" transform="translate(52.734 -33.32)">
                <path id="path857" d="M0,0,2.082,6.758a.155.155,0,0,0,.293,0L3.717.013" fill="none" stroke="#000" stroke-linecap="round" stroke-linejoin="round" stroke-miterlimit="10" stroke-width="2.197"/>
              </g>
            </g>
          </g>
        </g>
      </g>
    </g>
  </g>
</svg>
