<svg xmlns="http://www.w3.org/2000/svg" xmlns:xlink="http://www.w3.org/1999/xlink" width="105.979" height="107" viewBox="0 0 105.979 107">
  <defs>
    <clipPath id="clip-path">
      <rect id="Rectángulo_403652" data-name="Rectángulo 403652" width="75" height="75" transform="translate(804.051 2119.236)" fill="#fff"/>
    </clipPath>
  </defs>
  <g id="Grupo_1103134" data-name="Grupo 1103134" transform="translate(-1212.051 -1237.236)">
    <g id="Grupo_1103133" data-name="Grupo 1103133">
      <g id="Grupo_1103132" data-name="Grupo 1103132">
        <g id="Grupo_1103026" data-name="Grupo 1103026" transform="translate(423 -875)">
          <path id="Trazado_876162" data-name="Trazado 876162" d="M0,0V105.979H81.432L107,51.826,81.432,0Z" transform="translate(895.029 2112.236) rotate(90)" fill="#012d71"/>
          <g id="Enmascarar_grupo_1098699" data-name="Enmascarar grupo 1098699" clip-path="url(#clip-path)">
            <g id="agencia-de-viajes_1_" data-name="agencia-de-viajes (1)" transform="translate(804.055 2119.24)">
              <path id="_x35_" d="M65.812,13.9a25.579,25.579,0,0,1-4.4,2.857A42.532,42.532,0,0,1,63.4,28.844h9.217a22.358,22.358,0,0,0-6.543-14.682Zm6.81,17.289H63.4a42.027,42.027,0,0,1-1.877,11.691,3.883,3.883,0,0,1-.133.4,25.079,25.079,0,0,1,4.417,2.857,22.457,22.457,0,0,0,6.81-14.947Zm-8.6,16.507a23.461,23.461,0,0,0-3.437-2.225,19.677,19.677,0,0,1-4.319,6.626,1.158,1.158,0,0,1-1.645-.033,1.178,1.178,0,0,1,.033-1.66,17.236,17.236,0,0,0,3.8-5.9,2.242,2.242,0,0,1-.3-.116A22.18,22.18,0,0,0,51.4,42.994v.315a1.17,1.17,0,0,1-1.162,1.179,1.185,1.185,0,0,1-1.18-1.179V31.186h-5.5A1.17,1.17,0,0,1,42.4,30.007a1.155,1.155,0,0,1,1.162-1.162h5.5v-9.45a25.064,25.064,0,0,1-5.381-.864,23.535,23.535,0,0,1-2.458-.814,39.848,39.848,0,0,0-1.826,12.29,1.171,1.171,0,1,1-2.342,0,42.728,42.728,0,0,1,2.009-13.253c-.5-.266-.98-.531-1.461-.814a1.165,1.165,0,0,1,1.18-2.01c.365.216.73.432,1.112.615.25-.6.515-1.179.814-1.744a18.474,18.474,0,0,1,2.823-4.186,22.709,22.709,0,0,0-5.447,2.558A1.173,1.173,0,0,1,36.815,9.2,24.559,24.559,0,0,1,50.234,5.26,24.754,24.754,0,0,1,61.777,51.911a1.155,1.155,0,0,1-1.578-.482,1.172,1.172,0,0,1,.482-1.577,32.308,32.308,0,0,0,3.338-2.159ZM56.944,8.615A18.953,18.953,0,0,1,59.766,12.8c.282.565.548,1.146.815,1.744a23.268,23.268,0,0,0,3.437-2.209A22.562,22.562,0,0,0,56.944,8.615Zm2.31,33.7.049-.133a39.516,39.516,0,0,0,1.761-10.994H51.4v9.45a25.028,25.028,0,0,1,7.589,1.577C59.086,42.246,59.169,42.279,59.253,42.312Zm1.81-13.469a39.067,39.067,0,0,0-1.81-11.127c-.084.033-.183.066-.267.1A24.994,24.994,0,0,1,51.4,19.394v9.45ZM51.4,7.735v9.3a22.189,22.189,0,0,0,6.759-1.411c.1-.033.2-.066.281-.1-.232-.581-.482-1.13-.747-1.661-1.711-3.338-3.9-5.564-6.294-6.128Zm-2.342,9.3v-9.3c-2.392.565-4.583,2.79-6.278,6.128-.265.531-.515,1.08-.763,1.661a21.514,21.514,0,0,0,2.275.747,21.443,21.443,0,0,0,4.766.764Z" fill="#fff"/>
              <path id="_x34_" d="M14.462,33.66l2.358,7.423L21.337,37.8l-5.066-5.7Zm2.823-3.953,5.779,6.51,5.763-6.51.016-.016a1.146,1.146,0,0,1,1.644-.116l3.139,2.707,7.523,3.288a8.116,8.116,0,0,1,3.637,3.089,8.624,8.624,0,0,1,1.329,4.65v4.268a1.171,1.171,0,1,1-2.341,0V43.309a6.254,6.254,0,0,0-.946-3.388,5.984,5.984,0,0,0-2.608-2.209l-6.51-2.84-2.69,8.47a1.16,1.16,0,0,1-1.794.581l-5-3.637v8.171a1.17,1.17,0,0,1-1.162,1.179,1.184,1.184,0,0,1-1.179-1.179v-8.17L16.9,43.924a3.516,3.516,0,0,1-.349.166,1.154,1.154,0,0,1-1.462-.747l-2.69-8.47-6.51,2.84A5.847,5.847,0,0,0,3.3,39.922a6.129,6.129,0,0,0-.963,3.388V62.641A1.17,1.17,0,0,1,1.176,63.82,1.184,1.184,0,0,1,0,62.641V43.309a8.631,8.631,0,0,1,1.329-4.65A8.2,8.2,0,0,1,4.962,35.57l7.523-3.288,3.139-2.707a1.147,1.147,0,0,1,1.645.116ZM9.047,52.327a1.171,1.171,0,0,1,2.342,0V62.64a1.171,1.171,0,1,1-2.342,0ZM29.84,32.1l-5.066,5.7,4.517,3.288L31.65,33.66Z" fill="#fff"/>
              <path id="_x33_" d="M48.823,50.418H22.849a2.3,2.3,0,0,0-2.126,1.826l-3.289,18.7a1.365,1.365,0,0,0,1.395,1.71H44.222A2.667,2.667,0,0,0,46.7,70.529l3.273-18.684A1.529,1.529,0,0,0,50,51.563a1.107,1.107,0,0,0-1.18-1.145ZM35.089,60.3a1.184,1.184,0,0,1,1.179,1.179,1.169,1.169,0,0,1-1.179,1.162,1.155,1.155,0,0,1-1.162-1.162A1.17,1.17,0,0,1,35.089,60.3ZM22.849,48.076H48.823a2.859,2.859,0,0,1,.647.066,3.416,3.416,0,0,1,2.873,3.421,4.773,4.773,0,0,1-.066.681l-3.272,18.7A5.047,5.047,0,0,1,44.222,75H18.83a3.674,3.674,0,0,1-3.753-3.737,5.756,5.756,0,0,1,.05-.731l3.288-18.684A4.673,4.673,0,0,1,22.849,48.076Z" fill="#fff"/>
              <path id="_x32_" d="M16.77,66.809a1.17,1.17,0,0,1,1.179,1.162,1.252,1.252,0,0,1-.033.249l-.482,2.724a2.03,2.03,0,0,0-.016.315,1.377,1.377,0,0,0,.3.914,1.319,1.319,0,0,0,.814.448c.083.016.183.016.282.033L18.83,75H7.851a4,4,0,0,1-2.175-.631,3.01,3.01,0,0,1-1.312-1.81L3.3,68.254a1.167,1.167,0,0,1,.864-1.411.772.772,0,0,1,.282-.033Zm-1.395,2.342H5.925l.714,2.856a.618.618,0,0,0,.316.4,1.618,1.618,0,0,0,.9.249h7.474a3.842,3.842,0,0,1-.249-1.395,5.756,5.756,0,0,1,.05-.731Z" fill="#fff"/>
              <path id="_x31_" d="M17.949,27.582l-.4,3.023a1.173,1.173,0,1,1-2.325-.316L15.84,25.8l-.3-.265a9.66,9.66,0,0,1-2.525-3.488,10.772,10.772,0,0,1-.864-4.351V10.609a10.445,10.445,0,0,1,3.023-7.69A11.052,11.052,0,0,1,23.064,0a11.039,11.039,0,0,1,7.873,2.922,10.445,10.445,0,0,1,3.023,7.69V17.7a10.89,10.89,0,0,1-.864,4.351,9.655,9.655,0,0,1-2.525,3.488l-.3.265.615,4.484a1.191,1.191,0,0,1-1,1.329A1.164,1.164,0,0,1,28.578,30.6l-.415-3.023a7.691,7.691,0,0,1-1.628.864,10.842,10.842,0,0,1-6.959,0,7.654,7.654,0,0,1-1.628-.864ZM14.528,9.845c1.212.4,3.82.765,5.165-2.541a1.166,1.166,0,0,1,1.528-.631,1.141,1.141,0,0,1,.647.681c.016.016,2.143,6.112,9.749,4.2v-.946A8.134,8.134,0,0,0,29.309,4.6a8.729,8.729,0,0,0-6.244-2.259A8.745,8.745,0,0,0,16.8,4.6a7.915,7.915,0,0,0-2.275,5.248Zm17.089,4.119c-6.095,1.329-9.35-1.645-10.862-3.8a5.688,5.688,0,0,1-6.261,2.092V17.7a8.73,8.73,0,0,0,.664,3.422A7.294,7.294,0,0,0,17.1,23.8l1.412,1.262a6.341,6.341,0,0,0,1.926,1.212,8.523,8.523,0,0,0,5.231,0,6.627,6.627,0,0,0,1.943-1.212L29.026,23.8A6.969,6.969,0,0,0,30.9,21.221a8.568,8.568,0,0,0,.714-3.521V13.963Z" fill="#fff"/>
            </g>
          </g>
        </g>
      </g>
    </g>
  </g>
</svg>
