<svg xmlns="http://www.w3.org/2000/svg" xmlns:xlink="http://www.w3.org/1999/xlink" width="63.73" height="69.64" viewBox="0 0 63.73 69.64">
  <defs>
    <clipPath id="clip-path">
      <rect id="Rectángulo_403698" data-name="Rectángulo 403698" width="50" height="50" transform="translate(817.051 1289)" fill="#fff" stroke="#707070" stroke-width="1"/>
    </clipPath>
  </defs>
  <g id="Grupo_1103126" data-name="Grupo 1103126" transform="translate(-810 -1285)">
    <path id="Trazado_876729" data-name="Trazado 876729" d="M0,0V63.73H53L69.64,31.166,53,0Z" transform="translate(873.73 1285) rotate(90)" fill="#56e9cc"/>
    <g id="Enmascarar_grupo_1098693" data-name="Enmascarar grupo 1098693" clip-path="url(#clip-path)">
      <g id="aerolinea" transform="translate(815.384 1287.334)">
        <circle id="Elipse_11539" data-name="Elipse 11539" cx="24.166" cy="24.166" r="24.166" transform="translate(2.5 2.5)" fill="#ffa488"/>
        <path id="Trazado_876782" data-name="Trazado 876782" d="M24.113,2.634A24.173,24.173,0,0,0,2.615,24.31l1.31,1.637a3.333,3.333,0,0,0,4.452.691l1.337-.891a3.333,3.333,0,0,1,2.445-.506l3.292.6a3.333,3.333,0,0,0,3.9-3.751l-.068-.476a3.333,3.333,0,0,1,.138-1.526l.981-2.944a3.333,3.333,0,0,1,1.672-1.927l.784-.392a3.333,3.333,0,0,0,1.491-4.472L23.169,8.005a3.333,3.333,0,0,1-.114-2.729Z" fill="#00b378"/>
        <path id="Trazado_876783" data-name="Trazado 876783" d="M46.8,13.3l-4.814,1.2a3.125,3.125,0,0,0-2.325,2.518l-.849,5.092a3.125,3.125,0,0,1-3.393,2.6l-1-.1a3.125,3.125,0,0,0-3.343,3.867l.073.293a3.125,3.125,0,0,1-1.215,3.3l-.628.449a3.125,3.125,0,0,0-.059,5.043l1.044.783a3.125,3.125,0,0,1,.838,4.05l-.781,1.366a3.125,3.125,0,0,0,.5,3.76l2.4,2.4A24.174,24.174,0,0,0,46.8,13.3Z" fill="#31c292"/>
        <path id="Trazado_876784" data-name="Trazado 876784" d="M32.74,7.28l-4.3,12.9L30.8,21.356l6.527-9.428ZM46.119,2.5,33.084,6.845,37.7,11.5l9.6-6.646Zm-3.5,14.031-2.394,7.182L41.4,24.891l4.011-5.365Zm7.034-2.246-6.309,2.1,2.071,3.141,5.417-4.062ZM22.534,31.977l-6.06,8.762,4.474,4.245,3.943-11.828ZM14.97,42.29,6.035,48.476l1.179,2.357,11.953-3.984ZM11.928,28.441,7.917,33.79l3.054,2.237,2.136-6.407ZM7.917,33.79,2.5,37.869l1.179,1.179,6.249-2.083Z" fill="#dfdfdf"/>
        <path id="Trazado_876785" data-name="Trazado 876785" d="M15.991,17.511l-2.657,3.322-2.657-3.322A3.085,3.085,0,0,1,13.085,12.5h.5a3.085,3.085,0,0,1,2.409,5.012Z" fill="#f4f4f4"/>
        <path id="Trazado_876786" data-name="Trazado 876786" d="M12.5,15h1.667v1.667H12.5Z" fill="#dfdfdf"/>
        <path id="Trazado_876787" data-name="Trazado 876787" d="M41.824,35.845l-2.657,3.322-2.657-3.322a3.085,3.085,0,0,1,2.409-5.012h.5a3.085,3.085,0,0,1,2.409,5.012Z" fill="#f4f4f4"/>
        <path id="Trazado_876788" data-name="Trazado 876788" d="M38.333,33.333H40V35H38.333Z" fill="#dfdfdf"/>
        <path id="Trazado_876789" data-name="Trazado 876789" d="M22.5,20h1.667v1.667H22.5Zm1.667,4.167h1.667v1.667H24.166Z" fill="#00b378"/>
        <path id="Trazado_876790" data-name="Trazado 876790" d="M18.333,28.333H20V30H18.333Zm-2.5,3.333H17.5v1.667H15.833Zm10,10H27.5v1.667H25.833Z" fill="#46c89d"/>
        <path id="Trazado_876791" data-name="Trazado 876791" d="M45.524,18.163a20.833,20.833,0,0,0-2.8-3.9L34.584,5.309A8.333,8.333,0,0,0,29.6,2.665L28.441,2.5l.165,1.155A8.333,8.333,0,0,0,31.25,8.643l8.958,8.143a20.833,20.833,0,0,0,3.9,2.8L47.3,21.356ZM24.891,50.833l-.165-1.155a8.333,8.333,0,0,0-2.644-4.988l-8.958-8.143a20.834,20.834,0,0,0-3.9-2.8L6.035,31.977,7.809,35.17a20.833,20.833,0,0,0,2.8,3.9l8.143,8.958a8.333,8.333,0,0,0,4.988,2.644Z" fill="#f4f4f4"/>
        <g id="Grupo_1103008" data-name="Grupo 1103008">
          <path id="Trazado_876792" data-name="Trazado 876792" d="M45.573,12.989l1.349-.978A25.186,25.186,0,0,0,44.77,9.425l-1.207,1.15a23.519,23.519,0,0,1,2.01,2.414ZM4.232,33.1a23.376,23.376,0,0,1-.9-6.437c0-.042,0-.084,0-.127a4.14,4.14,0,0,0,5.5.792l1.337-.891a2.488,2.488,0,0,1,1.834-.379l3.292.6a4.167,4.167,0,0,0,4.87-4.689l-.068-.476a2.513,2.513,0,0,1,.1-1.144l.981-2.944a2.483,2.483,0,0,1,1.254-1.445l.784-.392a4.171,4.171,0,0,0,1.863-5.59L23.915,7.633a2.5,2.5,0,0,1-.085-2.046L24.7,3.415q.579-.048,1.164-.069L25.8,1.681A25.02,25.02,0,0,0,2.63,33.563ZM9.9,10.434a23.2,23.2,0,0,1,12.9-6.783l-.526,1.316a4.17,4.17,0,0,0,.142,3.411L23.6,10.724a2.5,2.5,0,0,1-1.118,3.354l-.784.392a4.14,4.14,0,0,0-2.089,2.409l-.981,2.944a4.188,4.188,0,0,0-.172,1.907l.068.476A2.5,2.5,0,0,1,15.6,25.019l-3.292-.6a4.147,4.147,0,0,0-3.056.633l-1.337.891a2.486,2.486,0,0,1-3.339-.518l-1.1-1.37A23.193,23.193,0,0,1,9.9,10.434ZM7.76,40.344l-1.349.978a25.217,25.217,0,0,0,2.152,2.586l1.207-1.15a23.556,23.556,0,0,1-2.01-2.414ZM50.7,19.77l-1.6.459A23.363,23.363,0,0,1,33.5,48.986l-2.055-2.054a2.3,2.3,0,0,1-.369-2.757l.781-1.366a3.965,3.965,0,0,0-1.062-5.131l-1.044-.783a2.292,2.292,0,0,1,.043-3.7l.628-.449a3.936,3.936,0,0,0,1.54-4.181l-.073-.293a2.292,2.292,0,0,1,2.451-2.836l1,.1a3.963,3.963,0,0,0,2.634-.675l-.943-1.374a2.3,2.3,0,0,1-1.524.39l-1-.1a3.958,3.958,0,0,0-4.234,4.9l.073.293a2.279,2.279,0,0,1-.891,2.42l-.628.449a3.958,3.958,0,0,0-.074,6.388l1.044.783a2.3,2.3,0,0,1,.615,2.97l-.78,1.366a3.967,3.967,0,0,0,.638,4.763l1.361,1.361a23.45,23.45,0,0,1-4.155.515l.056,1.666A25.02,25.02,0,0,0,50.7,19.77Z"/>
          <path id="Trazado_876793" data-name="Trazado 876793" d="M27.781,3.773A9.187,9.187,0,0,0,30.69,9.259l.393.358-3.432,10.3a.833.833,0,0,0,.418,1.009L30.426,22.1a.833.833,0,0,0,1.058-.271l5.035-7.272L39.647,17.4q.68.618,1.412,1.177l-1.623,4.87a.833.833,0,0,0,.2.853l1.178,1.178a.833.833,0,0,0,.589.244l.059,0a.833.833,0,0,0,.608-.331l3.169-4.225,1.652.918a.833.833,0,0,0,1.133-1.133L47.108,19.3l4.225-3.169a.833.833,0,0,0,.089-1.256L50.244,13.7a.834.834,0,0,0-.853-.2l-4.87,1.623q-.559-.73-1.177-1.412L40.5,10.577l7.272-5.035a.833.833,0,0,0,.271-1.058L46.864,2.127a.833.833,0,0,0-1.009-.418l-10.3,3.432L35.2,4.748A9.187,9.187,0,0,0,29.714,1.84l-1.155-.165a.833.833,0,0,0-.943.943Zm2.743,16.515-1.064-.532,2.971-8.913,2.843,2.584Zm10.79,3.335-.135-.135,1.3-3.909c.4.257.8.5,1.217.731l.07.039Zm8.115-8.384.135.135-3.273,2.455-.039-.07q-.346-.62-.731-1.217ZM45.7,3.519l.532,1.064-6.86,4.75L36.784,6.49ZM29.478,3.49a7.517,7.517,0,0,1,4.489,2.38l8.143,8.958A20.028,20.028,0,0,1,44.8,18.568l.357.644-.643-.357a20.03,20.03,0,0,1-3.741-2.684L31.811,8.026a7.516,7.516,0,0,1-2.38-4.489l-.008-.055ZM25.551,49.56a9.187,9.187,0,0,0-2.908-5.486l-.393-.358,3.432-10.3a.833.833,0,0,0-.418-1.009l-2.357-1.179a.833.833,0,0,0-1.058.271l-5.035,7.272L13.685,35.93q-.68-.618-1.412-1.177l1.623-4.87a.833.833,0,0,0-.2-.853l-1.178-1.178a.833.833,0,0,0-1.256.089L8.093,32.166,6.44,31.248a.833.833,0,0,0-1.133,1.133l.918,1.652L2,37.2a.833.833,0,0,0-.089,1.256l1.178,1.179a.833.833,0,0,0,.853.2l4.87-1.623q.559.73,1.177,1.412l2.845,3.129L5.561,47.791a.833.833,0,0,0-.271,1.058l1.178,2.357a.833.833,0,0,0,1.009.418l10.3-3.432.358.393a9.187,9.187,0,0,0,5.487,2.908l1.155.165a.833.833,0,0,0,.943-.943ZM22.808,33.045l1.064.532L20.9,42.49l-2.843-2.584ZM12.018,29.71l.135.135-1.3,3.909q-.6-.386-1.217-.731l-.07-.039ZM3.9,38.094l-.135-.135L7.042,35.5l.039.07q.346.62.732,1.217ZM7.636,49.814,7.1,48.75,13.965,44l2.584,2.843Zm16.218.029a7.516,7.516,0,0,1-4.489-2.38l-8.143-8.958a20.028,20.028,0,0,1-2.684-3.741l-.357-.644.643.357a20.03,20.03,0,0,1,3.741,2.684l8.958,8.143A7.516,7.516,0,0,1,23.9,49.8l.008.055ZM12.682,21.354a.833.833,0,0,0,1.3,0l2.657-3.322a3.918,3.918,0,0,0-3.059-6.365h-.5a3.918,3.918,0,0,0-3.059,6.365Zm.4-8.021h.5a2.251,2.251,0,0,1,1.758,3.658L13.333,19.5l-2.007-2.508a2.251,2.251,0,0,1,1.758-3.658Z"/>
          <path id="Trazado_876794" data-name="Trazado 876794" d="M12.5,15h1.667v1.667H12.5ZM38.918,30a3.918,3.918,0,0,0-3.059,6.365l2.657,3.322a.833.833,0,0,0,1.3,0l2.657-3.322A3.918,3.918,0,0,0,39.415,30Zm2.749,3.918a2.259,2.259,0,0,1-.493,1.406l-2.007,2.508L37.16,35.324a2.251,2.251,0,0,1,1.758-3.658h.5a2.254,2.254,0,0,1,2.251,2.251Z"/>
          <path id="Trazado_876795" data-name="Trazado 876795" d="M38.333,33.333H40V35H38.333ZM22.5,20h1.667v1.667H22.5Zm1.667,4.167h1.667v1.667H24.166Zm-5.833,4.167H20V30H18.333Zm-2.5,3.333H17.5v1.667H15.833Zm10,10H27.5v1.667H25.833Z"/>
        </g>
      </g>
    </g>
  </g>
</svg>
