<svg xmlns="http://www.w3.org/2000/svg" xmlns:xlink="http://www.w3.org/1999/xlink" width="63.73" height="69.64" viewBox="0 0 63.73 69.64">
  <defs>
    <clipPath id="clip-path">
      <rect id="Rect치ngulo_403700" data-name="Rect치ngulo 403700" width="50" height="50" transform="translate(292.051 1486.261)" fill="#fff" stroke="#707070" stroke-width="1"/>
    </clipPath>
  </defs>
  <g id="Grupo_1103127" data-name="Grupo 1103127" transform="translate(-285 -1482.261)">
    <path id="Trazado_876731" data-name="Trazado 876731" d="M0,0V63.73H53L69.64,31.166,53,0Z" transform="translate(348.73 1482.261) rotate(90)" fill="#56e9cc"/>
    <g id="Enmascarar_grupo_1098692" data-name="Enmascarar grupo 1098692" clip-path="url(#clip-path)">
      <g id="_FILLED_OUTLINE" data-name="/ FILLED_OUTLINE" transform="translate(290.471 1484.6)">
        <path id="Trazado_876745" data-name="Trazado 876745" d="M40.427,33.852a8.311,8.311,0,0,0-1.106-.435l-8.589-2.684H22.427l-8.589,2.684a8.306,8.306,0,0,0-5.667,6.3L5.814,51.5h29.9V49.837Z" fill="#ed8f4f"/>
        <path id="Trazado_876746" data-name="Trazado 876746" d="M30.733,30.733H22.427l-5.093,1.592,9.246,5.884,9.246-5.884Z" fill="#ca7a43"/>
        <path id="Trazado_876747" data-name="Trazado 876747" d="M25.749,37.68l.831.529.831-.529V30.733H25.749Z" fill="#f7a46b"/>
        <path id="Trazado_876748" data-name="Trazado 876748" d="M19.1,41.531l4.153,4.153L26.089,37.9l-2.047-1.3Z" fill="#ffd168"/>
        <path id="Trazado_876749" data-name="Trazado 876749" d="M34.055,41.531,29.9,45.684,27.07,37.9l2.047-1.3Z" fill="#ffd168"/>
        <path id="Trazado_876750" data-name="Trazado 876750" d="M22.427,24.919v5.814l4.153,2.492,4.153-2.492V24.919Z" fill="#f4d1bd"/>
        <path id="Trazado_876751" data-name="Trazado 876751" d="M32.394,23.257l3.72-3.72a9.985,9.985,0,0,0-7.06-17.045H24.105a9.985,9.985,0,0,0-7.06,17.045l3.72,3.72Z" fill="#aa7f6a"/>
        <path id="Trazado_876752" data-name="Trazado 876752" d="M32.664,11.465,28.241,8.306l-7.189,3.268A3.322,3.322,0,0,0,19.1,14.6v5.044a8.306,8.306,0,0,0,3.7,6.911l1.934,1.289a3.322,3.322,0,0,0,3.686,0l1.934-1.289a8.306,8.306,0,0,0,3.7-6.911V14.169a3.322,3.322,0,0,0-1.391-2.7Z" fill="#fcdcc8"/>
        <g id="Grupo_1103007" data-name="Grupo 1103007">
          <path id="Trazado_876753" data-name="Trazado 876753" d="M24.331,16.369a1.519,1.519,0,0,0-2.148,0l-1.175-1.175a3.18,3.18,0,0,1,4.5,0Z" fill="#eabfac"/>
          <path id="Trazado_876754" data-name="Trazado 876754" d="M30.976,16.369a1.519,1.519,0,0,0-2.148,0l-1.175-1.175a3.18,3.18,0,0,1,4.5,0Z" fill="#eabfac"/>
          <path id="Trazado_876755" data-name="Trazado 876755" d="M27.039,21.508a2.47,2.47,0,0,1-.951-3.58l.631-.947L28.1,17.9l-.631.947a.809.809,0,0,0,.311,1.172Z" fill="#eabfac"/>
          <path id="Trazado_876756" data-name="Trazado 876756" d="M26.58,24.919a3.5,3.5,0,0,1-3.147-1.945l-.088-.175,1.486-.743.088.175a1.857,1.857,0,0,0,3.322,0l.088-.175,1.486.743-.088.175a3.5,3.5,0,0,1-3.147,1.945Z" fill="#eabfac"/>
        </g>
        <path id="Trazado_876757" data-name="Trazado 876757" d="M25.749,45.684H27.41v1.661H25.749Z" fill="#f7a46b"/>
        <path id="Trazado_876758" data-name="Trazado 876758" d="M25.749,49.837H27.41V51.5H25.749Z" fill="#f7a46b"/>
        <rect id="Rect치ngulo_403703" data-name="Rect치ngulo 403703" width="7.522" height="1.661" rx="0.831" transform="matrix(0.11, -0.994, 0.994, 0.11, 14.126, 51.383)" fill="#d17537"/>
        <path id="Trazado_876759" data-name="Trazado 876759" d="M2.492,4.153v19.1a1.661,1.661,0,0,1,0,3.322v6.645h13.29V26.58a1.661,1.661,0,1,1,0-3.322V4.153Z" fill="#0cbf6a"/>
        <path id="Trazado_876760" data-name="Trazado 876760" d="M14.951,10.2,7.485,14.945l-.009.006L6.045,12.22l5.878-3.662a1.662,1.662,0,0,1,2.262.488Z" fill="#ffe8de"/>
        <path id="Trazado_876761" data-name="Trazado 876761" d="M4.984,28.241H13.29V29.9H4.984Z" fill="#05a056"/>
        <path id="Trazado_876762" data-name="Trazado 876762" d="M5.814,20.765h6.645v1.661H5.814Z" fill="#05a056"/>
        <path id="Trazado_876763" data-name="Trazado 876763" d="M4.984,17.443H13.29V19.1H4.984Z" fill="#05a056"/>
        <path id="Trazado_876764" data-name="Trazado 876764" d="M41.531,26.58a1.661,1.661,0,0,0-1.661,1.661v3.322L32.208,43.823a4.238,4.238,0,0,0-.644,2.246v.36a4.238,4.238,0,0,0,8.327,1.115l4.132-15.151,5.236-3.273a3,3,0,0,0,1.409-2.542Z" fill="#fcdcc8"/>
        <path id="Trazado_876765" data-name="Trazado 876765" d="M51.46,22.427a2.477,2.477,0,0,1-2.347-1.661h.724V19.1H48.6L47.32,14.951h.856V13.29H46.809l-.294-.955V3.322H44.853v9.012l-.294.956H43.192v1.661h.856L42.77,19.1H41.531v1.661h.724a2.477,2.477,0,0,1-2.347,1.661H39.87v1.661h.038a4.132,4.132,0,0,0,3.969-2.932l.12-.391h3.373l.12.391a4.132,4.132,0,0,0,3.969,2.932H51.5V22.427ZM44.508,19.1l1.176-3.821L46.86,19.1Z" fill="#936a55"/>
        <path id="Trazado_876766" data-name="Trazado 876766" d="M14.345,24.088H3.929a1.652,1.652,0,0,1,0,1.661H14.345a1.652,1.652,0,0,1,0-1.661Z" fill="#17ce73"/>
        <path id="Trazado_876767" data-name="Trazado 876767" d="M11.722,11.45l-.9,3.282,1.6.437L13.622,10.8Z" fill="#f4d1bd"/>
        <path id="Trazado_876768" data-name="Trazado 876768" d="M8.062,14.275l-1.407.895L5.224,12.44l-.976-1.863,1.472-.77Z" fill="#ffe8de"/>
        <path id="Trazado_876769" data-name="Trazado 876769" d="M25.506,15.194a3.18,3.18,0,0,0-4.5,0l1.175,1.175a1.519,1.519,0,0,1,2.148,0Z"/>
        <path id="Trazado_876770" data-name="Trazado 876770" d="M27.654,15.194l1.175,1.175a1.519,1.519,0,0,1,2.148,0l1.175-1.175a3.18,3.18,0,0,0-4.5,0Z"/>
        <path id="Trazado_876771" data-name="Trazado 876771" d="M27.039,21.508l.743-1.486a.809.809,0,0,1-.311-1.172L28.1,17.9l-1.382-.921-.631.947a2.47,2.47,0,0,0,.951,3.58Z"/>
        <path id="Trazado_876772" data-name="Trazado 876772" d="M28.241,22.231a1.857,1.857,0,0,1-3.322,0l-.088-.175-1.486.743.088.175a3.519,3.519,0,0,0,6.294,0l.088-.175-1.486-.743Z"/>
        <path id="Trazado_876773" data-name="Trazado 876773" d="M25.749,45.684H27.41v1.661H25.749Z"/>
        <path id="Trazado_876774" data-name="Trazado 876774" d="M25.749,49.837H27.41V51.5H25.749Z"/>
        <path id="Trazado_876775" data-name="Trazado 876775" d="M11.606,46.933h7.522v1.661H11.606Z" transform="matrix(0.11, -0.994, 0.994, 0.11, -33.799, 57.757)"/>
        <path id="Trazado_876776" data-name="Trazado 876776" d="M7.261,15.754a.831.831,0,0,0,.66-.1l3.207-2.04-.3,1.124,1.6.431.771-2.874L15.4,10.9a.831.831,0,0,0,.245-1.162l-.766-1.15a2.48,2.48,0,0,0-3.394-.731l-5.113,3.2-.65-1.24-1.471.771L6.74,15.337a.831.831,0,0,0,.522.417Zm5.1-6.49a.826.826,0,0,1,1.131.244l.3.443-6,3.815-.65-1.24Z"/>
        <path id="Trazado_876777" data-name="Trazado 876777" d="M4.984,28.241H13.29V29.9H4.984Z"/>
        <path id="Trazado_876778" data-name="Trazado 876778" d="M5.814,20.765h6.645v1.661H5.814Z"/>
        <path id="Trazado_876779" data-name="Trazado 876779" d="M4.984,17.443H13.29V19.1H4.984Z"/>
        <path id="Trazado_876780" data-name="Trazado 876780" d="M50.668,25.749H41.531a2.5,2.5,0,0,0-2.492,2.492v3.084l-.592.948-6.883-2.151V26.69a9.11,9.11,0,0,0,2.913-4.341L36.7,20.124A10.815,10.815,0,0,0,29.054,1.661H24.105a10.793,10.793,0,0,0-7.493,3.015V4.153a.831.831,0,0,0-.831-.831H2.492a.831.831,0,0,0-.831.831v19.1a.831.831,0,0,0,.831.831.831.831,0,1,1,0,1.661.831.831,0,0,0-.831.831v6.645a.831.831,0,0,0,.831.831h8.316a9.132,9.132,0,0,0-3.451,5.5L5,51.335l1.629.326L8.985,39.879a7.473,7.473,0,0,1,5.1-5.669l.494-.154h1.2a.83.83,0,0,0,.8-.627l.627-.2,5.509,3.506-4.205,4.205a.831.831,0,0,0,0,1.175l4.153,4.153a.831.831,0,0,0,1.368-.3l2.52-6.93.022,0,.022,0,2.52,6.93a.831.831,0,0,0,1.368.3l.244-.244c0,.014,0,.028,0,.042v.36a5.069,5.069,0,0,0,9.959,1.334l4.046-14.837,4.961-3.1a3.806,3.806,0,0,0,1.8-3.246.831.831,0,0,0-.831-.831ZM33.649,39.95l-3.212-3.212,5.509-3.506,1.59.5ZM23.257,27.855l1.019.679a4.142,4.142,0,0,0,4.607,0l1.019-.679v2.408L26.58,32.256l-3.322-1.994ZM27.41,36.4V33.7l3.43-2.058,3.031.947L27.5,36.64ZM29.9,25.863l-1.934,1.289a2.486,2.486,0,0,1-2.765,0l-1.934-1.289a7.461,7.461,0,0,1-3.329-6.22V14.6A2.5,2.5,0,0,1,21.4,12.33l6.753-3.069,4.033,2.881a2.5,2.5,0,0,1,1.043,2.028v5.474A7.461,7.461,0,0,1,29.9,25.863ZM3.323,4.984H14.951V6.645h.357l1.166.774a9.143,9.143,0,0,1,7.632-4.1h4.949a9.154,9.154,0,0,1,6.473,15.627l-.641.641V14.169a4.161,4.161,0,0,0-1.739-3.379L28.724,7.63a.831.831,0,0,0-.827-.08l-7.189,3.268A4.162,4.162,0,0,0,18.274,14.6v4.992l-.641-.641a9.165,9.165,0,0,1-1.02-1.219V12.459H14.951v10.11a2.5,2.5,0,0,0-1.517,1.519H4.84a2.5,2.5,0,0,0-1.517-1.519Zm11.629,27.41H3.323V27.268A2.5,2.5,0,0,0,4.84,25.749h8.594a2.5,2.5,0,0,0,1.517,1.519Zm0-7.476a.832.832,0,0,1,.831-.831.831.831,0,0,0,.831-.831V20.279l2.07,2.07A9.11,9.11,0,0,0,21.6,26.69v3.432L16.612,31.68v-5.1a.831.831,0,0,0-.831-.831.832.832,0,0,1-.831-.831Zm7.368,6.718,3.43,2.058V36.4l-.087.239-6.374-4.056Zm.6,12.538-2.644-2.644,3.879-3.879.923.587Zm7.315,0-2.158-5.935L29,37.652,32.745,41.4l-.452.722ZM48.819,28.417,43.583,31.69a.831.831,0,0,0-.361.486l-4.132,15.15a3.408,3.408,0,0,1-6.7-.9v-.36a3.4,3.4,0,0,1,.518-1.806L40.574,32a.831.831,0,0,0,.126-.44V28.241a.832.832,0,0,1,.831-.831h8.142a2.157,2.157,0,0,1-.855,1.007Z"/>
        <path id="Trazado_876781" data-name="Trazado 876781" d="M51.46,22.427a2.477,2.477,0,0,1-2.347-1.661h.724V19.1H48.6L47.32,14.951h.856V13.29H46.809l-.294-.955V3.322H44.853v9.012l-.294.956H43.192v1.661h.856L42.77,19.1H41.531v1.661h.724a2.477,2.477,0,0,1-2.347,1.661H39.87v1.661h.038a4.132,4.132,0,0,0,3.969-2.932l.12-.391h3.373l.12.391a4.132,4.132,0,0,0,3.969,2.932H51.5V22.427ZM44.508,19.1l1.176-3.821L46.86,19.1Z"/>
      </g>
    </g>
  </g>
</svg>
