<svg xmlns="http://www.w3.org/2000/svg" xmlns:xlink="http://www.w3.org/1999/xlink" width="63.73" height="69.64" viewBox="0 0 63.73 69.64">
  <defs>
    <clipPath id="clip-path">
      <rect id="Rect치ngulo_403699" data-name="Rect치ngulo 403699" width="50" height="50" transform="translate(817.051 1486.261)" fill="#fff" stroke="#707070" stroke-width="1"/>
    </clipPath>
  </defs>
  <g id="Grupo_1103128" data-name="Grupo 1103128" transform="translate(-810 -1482.261)">
    <path id="Trazado_876730" data-name="Trazado 876730" d="M0,0V63.73H53L69.64,31.166,53,0Z" transform="translate(873.73 1482.261) rotate(90)" fill="#56e9cc"/>
    <g id="Enmascarar_grupo_1098694" data-name="Enmascarar grupo 1098694" clip-path="url(#clip-path)">
      <g id="reserva-en-linea" transform="translate(816.042 1484.677)">
        <rect id="Rect치ngulo_403704" data-name="Rect치ngulo 403704" width="26.327" height="42.782" rx="1.645" transform="translate(13.164 2.468)" fill="#dfdfdf"/>
        <path id="Trazado_876796" data-name="Trazado 876796" d="M13.164,43.6V32.086l-.653-2.613a1.645,1.645,0,0,1,.2-1.271l1.967-3.147a3.291,3.291,0,0,0-1.1-4.566l-1.24-.744L8.028,26.934A3.291,3.291,0,0,0,7.6,29.168l1.2,7.207A3.291,3.291,0,0,1,8.106,39l-6.46,7.9,9.05,4.114,2.684-3.355a3.291,3.291,0,0,1,1.529-1.066l4.014-1.338H14.809A1.645,1.645,0,0,1,13.164,43.6Z" fill="#ffb3a1"/>
        <path id="Trazado_876797" data-name="Trazado 876797" d="M18.923,2.468V4.114a1.645,1.645,0,0,0,1.645,1.645H32.086a1.645,1.645,0,0,0,1.645-1.645V2.468Z" fill="#bebebe"/>
        <path id="Trazado_876798" data-name="Trazado 876798" d="M17.277,9.05h18.1v9.873h-18.1Z" fill="#31c292"/>
        <path id="Trazado_876799" data-name="Trazado 876799" d="M25.62,30.441a13.158,13.158,0,1,0,4.821-4.821l-7.4-2.584Z" fill="#ff9671"/>
        <path id="Trazado_876800" data-name="Trazado 876800" d="M43.515,30.57a17.483,17.483,0,0,0-12.986,0l-1.734.694v9.873H45.25V31.263Z" fill="#ededed"/>
        <path id="Trazado_876801" data-name="Trazado 876801" d="M17.277,23.859h3.291V25.5H17.277Zm-.823,4.114h5.759v1.645H16.454Zm0,4.114h5.759v1.645H16.454Zm0,4.114h4.936v1.645H16.454Zm0,4.114h4.936v1.645H16.454Z" fill="#bebebe"/>
        <path id="Trazado_876802" data-name="Trazado 876802" d="M37.022,33.732H32.086v4.114h9.873V33.732Z" fill="#ffb3a1"/>
        <path id="Trazado_876803" data-name="Trazado 876803" d="M42.053,37.707a17.483,17.483,0,0,0-10.06,0l-3.2.961v2.468H45.25V38.668Zm-14.08,3.429h1.645V43.6H27.973Zm16.454,0h1.645V43.6H44.427Z" fill="#dfdfdf"/>
        <g id="Grupo_1103009" data-name="Grupo 1103009">
          <path id="Trazado_876804" data-name="Trazado 876804" d="M17.277,19.745h18.1a.823.823,0,0,0,.823-.823V9.05a.823.823,0,0,0-.823-.823h-18.1a.823.823,0,0,0-.823.823v9.873A.823.823,0,0,0,17.277,19.745ZM18.1,9.873H34.554V18.1H18.1Z"/>
          <path id="Trazado_876805" data-name="Trazado 876805" d="M40.313,23.428V4.114a2.471,2.471,0,0,0-2.468-2.468H14.809a2.471,2.471,0,0,0-2.468,2.468v14.81a.821.821,0,0,0-.705.4L7.322,26.51a4.118,4.118,0,0,0-.53,2.793l1.2,7.207a2.468,2.468,0,0,1-.524,1.969l-6.46,7.9,1.273,1.042,6.46-7.9a4.114,4.114,0,0,0,.874-3.281l-1.2-7.207a2.471,2.471,0,0,1,.318-1.676l3.89-6.483.534.321a2.468,2.468,0,0,1,.823,3.425l-1.967,3.147a2.481,2.481,0,0,0-.3,1.907l.629,2.514V43.6a2.473,2.473,0,0,0,1.849,2.389,4.1,4.1,0,0,0-1.453,1.146l-2.684,3.355,1.285,1.028,2.684-3.355a2.463,2.463,0,0,1,1.147-.8l3.888-1.3h7.312A13.983,13.983,0,1,0,40.313,23.428ZM19.745,3.291H32.909v.823a.824.824,0,0,1-.823.823H20.568a.824.824,0,0,1-.823-.823ZM14.809,44.427a.824.824,0,0,1-.823-.823V32.086a.82.82,0,0,0-.025-.2l-.653-2.613a.827.827,0,0,1,.1-.636l1.967-3.147A4.114,4.114,0,0,0,14,19.784l-.018-.011V4.114a.824.824,0,0,1,.823-.823H18.1v.823a2.471,2.471,0,0,0,2.468,2.468H32.086a2.471,2.471,0,0,0,2.468-2.468V3.291h3.291a.824.824,0,0,1,.823.823v19.02a14,14,0,0,0-8.306,1.588l-7.055-2.462a.823.823,0,0,0-1.048,1.048l2.462,7.055a13.98,13.98,0,0,0,.441,14.065Zm22.213,4.936a12.344,12.344,0,0,1-10.69-18.511.823.823,0,0,0,.065-.683l-2.022-5.8,5.8,2.022a.823.823,0,0,0,.683-.065,12.342,12.342,0,1,1,6.17,23.031Z"/>
          <path id="Trazado_876806" data-name="Trazado 876806" d="M45.555,30.5l-1.734-.694a18.229,18.229,0,0,0-13.6,0L28.49,30.5a.823.823,0,0,0-.517.764V43.6h1.645V41.959H44.427V43.6h1.645V31.263a.823.823,0,0,0-.517-.764Zm-14.72.834a16.59,16.59,0,0,1,12.375,0l1.217.487v5.741l-1.645-.494V33.732a.823.823,0,0,0-.823-.823H32.086a.823.823,0,0,0-.823.823v3.336l-1.645.494V31.82ZM36.2,36.162a18.273,18.273,0,0,0-3.291.452v-2.06H36.2Zm1.645-1.608h3.291v2.06a18.269,18.269,0,0,0-3.291-.451Zm-8.227,5.759V39.28l2.611-.784a16.612,16.612,0,0,1,9.587,0l2.611.784v1.034ZM17.277,23.859h3.291V25.5H17.277Zm-.823,4.114h5.759v1.645H16.454Zm0,4.114h5.759v1.645H16.454Zm0,4.114h4.936v1.645H16.454Zm0,4.114h4.936v1.645H16.454Z"/>
        </g>
      </g>
    </g>
  </g>
</svg>
