<svg xmlns="http://www.w3.org/2000/svg" xmlns:xlink="http://www.w3.org/1999/xlink" width="105.979" height="107" viewBox="0 0 105.979 107">
  <defs>
    <clipPath id="clip-path">
      <rect id="Rect치ngulo_403661" data-name="Rect치ngulo 403661" width="75" height="75" transform="translate(-6907.52 -9488.764)" fill="#fff"/>
    </clipPath>
  </defs>
  <g id="Grupo_1103123" data-name="Grupo 1103123" transform="translate(6924 9495.764)">
    <g id="Grupo_1102995" data-name="Grupo 1102995">
      <path id="Trazado_876601" data-name="Trazado 876601" d="M0,0V105.979H81.432L107,51.826,81.432,0Z" transform="translate(-6818.021 -9495.764) rotate(90)" fill="#afd1e6"/>
      <g id="Enmascarar_grupo_1098685" data-name="Enmascarar grupo 1098685" clip-path="url(#clip-path)">
        <g id="FILLED_OUTLINE" transform="translate(-6910.019 -9491.264)">
          <circle id="Elipse_11529" data-name="Elipse 11529" cx="36.249" cy="36.249" r="36.249" transform="translate(3.75 3.75)" fill="#ffa488"/>
          <path id="Trazado_876610" data-name="Trazado 876610" d="M40,3.75a36.078,36.078,0,0,0-20.137,6.1l10.45,10.457a4.861,4.861,0,0,0,6.875,0,7.513,7.513,0,0,1,10.625,0l.312.312a2.652,2.652,0,0,0,3.75,0,2.652,2.652,0,0,1,3.75,0l2.3,2.3A24.14,24.14,0,0,0,74.85,30,36.264,36.264,0,0,0,40,3.75Z" fill="#31c292"/>
          <rect id="Rect치ngulo_403671" data-name="Rect치ngulo 403671" width="29.999" height="42.499" rx="5" transform="translate(11.25 28.749)" fill="#31c292"/>
          <circle id="Elipse_11530" data-name="Elipse 11530" cx="2.5" cy="2.5" r="2.5" transform="translate(15 71.248)" fill="#6e6e6e"/>
          <circle id="Elipse_11531" data-name="Elipse 11531" cx="2.5" cy="2.5" r="2.5" transform="translate(32.499 71.248)" fill="#6e6e6e"/>
          <path id="Trazado_876611" data-name="Trazado 876611" d="M31.249,36.249h-2.5V7.5a2.5,2.5,0,0,0-5,0V36.249h-2.5V7.5a5,5,0,1,1,10,0Z" fill="#6e6e6e"/>
          <path id="Trazado_876612" data-name="Trazado 876612" d="M17.5,38.749H20V67.5H17.5Z" fill="#7fddbb"/>
          <path id="Trazado_876613" data-name="Trazado 876613" d="M25,38.749h2.5V67.5H25Z" fill="#7fddbb"/>
          <path id="Trazado_876614" data-name="Trazado 876614" d="M32.5,38.749H35V67.5H32.5Z" fill="#7fddbb"/>
          <path id="Trazado_876615" data-name="Trazado 876615" d="M50.383,32.664,36.837,60.825a2.5,2.5,0,0,0,1.169,3.337L60.535,75,75,45Z" fill="#ededed"/>
          <path id="Trazado_876616" data-name="Trazado 876616" d="M74.081,46.837,51.552,36A2.5,2.5,0,0,1,53.719,31.5L76.248,42.332Z" fill="#bebebe"/>
          <circle id="Elipse_11532" data-name="Elipse 11532" cx="7.5" cy="7.5" r="7.5" transform="translate(48.772 44.642)" fill="#bebebe"/>
          <path id="Trazado_876617" data-name="Trazado 876617" d="M49.044,58.262h2.5v12.5h-2.5Z" transform="translate(-29.652 81.898) rotate(-64.332)" fill="#bebebe"/>
          <path id="Trazado_876618" data-name="Trazado 876618" d="M72.5,12.5,68.748,15l-7.5-5L65,5l-1.25-1.25-7.5,3.75-2.9-1.741a5,5,0,0,0-6.108.752l-.99.99,20.82,12.723a2.5,2.5,0,0,0,3.071-.365L75,15Z" fill="#dfdfdf"/>
          <path id="Trazado_876619" data-name="Trazado 876619" d="M63.03,55.392a7.544,7.544,0,0,0,.447-1.172l-3.386-1.629a12.148,12.148,0,0,0,.726-4.312l-.033-2.129a7.528,7.528,0,0,0-2.65-1.274l-1.684,1.3a12.149,12.149,0,0,0-2.916,3.259L50.15,47.81a7.544,7.544,0,0,0-.636,1.078l0,0a7.542,7.542,0,0,0-.446,1.17l3.386,1.629A12.148,12.148,0,0,0,51.726,56l.033,2.129a7.528,7.528,0,0,0,2.65,1.274l1.684-1.3a12.149,12.149,0,0,0,2.916-3.259l3.386,1.629A7.549,7.549,0,0,0,63.03,55.392Zm-8.469.734-.329.255-.006-.416a9.644,9.644,0,0,1,.494-3.183l2.019.971A9.645,9.645,0,0,1,54.562,56.126ZM57.823,51.5,55.8,50.53a9.644,9.644,0,0,1,2.178-2.373l.329-.255.006.416a9.644,9.644,0,0,1-.494,3.183Z" fill="#dfdfdf"/>
          <g id="Grupo_1102990" data-name="Grupo 1102990">
            <path id="Trazado_876620" data-name="Trazado 876620" d="M40,5a35.537,35.537,0,0,1,3.622.185L43.877,2.7a37.951,37.951,0,0,0-10.342.357l.428,2.463A35.342,35.342,0,0,1,40,5Z"/>
            <path id="Trazado_876621" data-name="Trazado 876621" d="M19.483,11.64,18.016,9.616A37.528,37.528,0,0,0,6.38,56.628l2.24-1.11A35.028,35.028,0,0,1,19.483,11.64Z"/>
            <path id="Trazado_876622" data-name="Trazado 876622" d="M41.207,74.978l.085,2.5a37.431,37.431,0,0,0,10.345-1.819l-.775-2.377a34.934,34.934,0,0,1-9.654,1.7Z"/>
            <path id="Trazado_876623" data-name="Trazado 876623" d="M17.5,38.749H20V67.5H17.5Z"/>
            <path id="Trazado_876624" data-name="Trazado 876624" d="M25,38.749h2.5V67.5H25Z"/>
            <path id="Trazado_876625" data-name="Trazado 876625" d="M32.5,38.749H35V67.5H32.5Z"/>
            <path id="Trazado_876626" data-name="Trazado 876626" d="M76.79,41.205,54.261,30.369a3.754,3.754,0,0,0-5,1.754L42.5,46.171V33.749a6.257,6.257,0,0,0-6.25-6.25h-5V7.5a5,5,0,1,0-10,0v20h-5A6.257,6.257,0,0,0,10,33.749v32.5a6.26,6.26,0,0,0,4.12,5.876,3.75,3.75,0,1,0,6.915.374h10.43a3.75,3.75,0,1,0,6.915-.374,6.273,6.273,0,0,0,3.963-4.49l17.651,8.49a1.249,1.249,0,0,0,1.668-.585L77.374,42.874a1.25,1.25,0,0,0-.585-1.668ZM52.638,32.5a1.243,1.243,0,0,1,.54.123l21.4,10.295L73.5,45.169l-21.4-10.295a1.252,1.252,0,0,1-.585-1.667h0a1.252,1.252,0,0,1,1.129-.708ZM23.749,7.5a2.5,2.5,0,0,1,5,0v20h-5Zm-5,66.248A1.25,1.25,0,1,1,17.5,72.5a1.25,1.25,0,0,1,1.25,1.25ZM35,75a1.25,1.25,0,1,1,1.25-1.25A1.25,1.25,0,0,1,35,75Zm1.25-5h-20a3.754,3.754,0,0,1-3.75-3.75v-32.5A3.754,3.754,0,0,1,16.25,30h5v6.25h2.5V30h5v6.25h2.5V30h5A3.754,3.754,0,0,1,40,33.749V51.368l-4.288,8.915a3.75,3.75,0,0,0,1.754,5L39.989,66.5a3.754,3.754,0,0,1-3.74,3.5Zm23.7,3.332-21.4-10.295a1.25,1.25,0,0,1-.585-1.668L49.977,36.392a3.732,3.732,0,0,0,1.033.736l21.4,10.295Z"/>
            <path id="Trazado_876627" data-name="Trazado 876627" d="M60.065,44.256a8.749,8.749,0,1,0,4.092,11.678,8.749,8.749,0,0,0-4.092-11.678Zm2.268,9.413-2.241-1.078a12.149,12.149,0,0,0,.726-4.312l-.007-.433a6.272,6.272,0,0,1,1.522,5.823Zm-7.771,2.457-.329.255-.006-.416a9.644,9.644,0,0,1,.494-3.183l2.019.971a9.645,9.645,0,0,1-2.178,2.373Zm1.242-5.6a9.644,9.644,0,0,1,2.178-2.373l.329-.255.006.416a9.644,9.644,0,0,1-.494,3.183Zm.478-4.637c.17,0,.341.009.511.023l-.341.264a12.15,12.15,0,0,0-2.916,3.259L51.3,48.362a6.27,6.27,0,0,1,4.984-2.47ZM50.21,50.613l2.242,1.078A12.148,12.148,0,0,0,51.726,56l.007.437a6.263,6.263,0,0,1-1.523-5.827Zm5.539,7.755.342-.265a12.149,12.149,0,0,0,2.916-3.259l2.241,1.078a6.272,6.272,0,0,1-5.5,2.446Z"/>
            <path id="Trazado_876628" data-name="Trazado 876628" d="M49.044,58.262h2.5v12.5h-2.5Z" transform="translate(-29.652 81.898) rotate(-64.332)"/>
            <path id="Trazado_876629" data-name="Trazado 876629" d="M56.507,19.741a3.906,3.906,0,0,0-5.518,0,1.4,1.4,0,0,1-1.982,0l-.312-.312a8.773,8.773,0,0,0-12.392,0,3.588,3.588,0,0,1-2.554,1.058v2.5A6.071,6.071,0,0,0,38.07,21.2a6.27,6.27,0,0,1,8.857,0l.312.312a3.906,3.906,0,0,0,5.518,0,1.4,1.4,0,0,1,1.982,0l2.3,2.3a25.209,25.209,0,0,0,16.845,7.412,34.926,34.926,0,0,1,1.027,6.36l2.494-.17a37.148,37.148,0,0,0-3.883-14.226L71.294,24.31a34.855,34.855,0,0,1,1.831,4.362,22.719,22.719,0,0,1-14.313-6.628Z"/>
            <path id="Trazado_876630" data-name="Trazado 876630" d="M45.6,8.566,66.417,21.29a3.739,3.739,0,0,0,4.607-.548l4.858-4.858a1.25,1.25,0,0,0,0-1.768l-2.5-2.5A1.25,1.25,0,0,0,71.8,11.46L68.748,13.5l-5.707-3.8L66,5.75a1.25,1.25,0,0,0-.116-1.634l-1.25-1.25a1.25,1.25,0,0,0-1.443-.234L56.3,6.075,53.989,4.686a6.241,6.241,0,0,0-7.635.94l-.99.99a1.25,1.25,0,0,0,.232,1.95ZM52.7,6.83l2.9,1.741a1.25,1.25,0,0,0,1.2.046l6.264-3.132L60.249,9.25a1.25,1.25,0,0,0,.307,1.79l7.5,5a1.25,1.25,0,0,0,1.387,0l2.9-1.932L73.23,15l-3.974,3.974a1.246,1.246,0,0,1-1.536.183L48.259,7.264A3.744,3.744,0,0,1,52.7,6.83Z"/>
          </g>
        </g>
      </g>
    </g>
  </g>
</svg>
