<svg xmlns="http://www.w3.org/2000/svg" xmlns:xlink="http://www.w3.org/1999/xlink" width="105.979" height="107" viewBox="0 0 105.979 107">
  <defs>
    <clipPath id="clip-path">
      <rect id="Rectángulo_403663" data-name="Rectángulo 403663" width="75" height="75" transform="translate(-6586.52 -9488.764)" fill="#fff"/>
    </clipPath>
  </defs>
  <g id="Grupo_1103124" data-name="Grupo 1103124" transform="translate(6603 9495.764)">
    <g id="Grupo_1102996" data-name="Grupo 1102996">
      <path id="Trazado_876607" data-name="Trazado 876607" d="M0,0V105.979H81.432L107,51.826,81.432,0Z" transform="translate(-6497.021 -9495.764) rotate(90)" fill="#afd1e6"/>
      <g id="Enmascarar_grupo_1098686" data-name="Enmascarar grupo 1098686" clip-path="url(#clip-path)">
        <g id="ubicacion" transform="translate(-6587.728 -9489.968)">
          <path id="Trazado_876631" data-name="Trazado 876631" d="M52.251,36.285h9.18A3.628,3.628,0,0,1,64.9,38.838l9.952,32.067a3.151,3.151,0,0,1-3,4.085H5.57a3.146,3.146,0,0,1-3.009-4.078l9.952-32.067a3.629,3.629,0,0,1,3.465-2.559h9.18" fill="#f9d266"/>
          <path id="Trazado_876632" data-name="Trazado 876632" d="M61.268,48.515A3.629,3.629,0,0,0,57.8,45.962H12.349a3.613,3.613,0,0,0-2.309.847l-7.48,24.1A3.147,3.147,0,0,0,5.57,74.99H69.484Z" fill="#fce797"/>
          <g id="Grupo_1102991" data-name="Grupo 1102991">
            <path id="Trazado_876633" data-name="Trazado 876633" d="M16.933,41.124H32.415v2.419H16.933Z" fill="#f0ae42"/>
            <path id="Trazado_876634" data-name="Trazado 876634" d="M44.994,41.124H60.476v2.419H44.994Z" fill="#f0ae42"/>
            <path id="Trazado_876635" data-name="Trazado 876635" d="M10.886,68.942H66.523v2.419H10.886Z" fill="#f0ae42"/>
            <path id="Trazado_876636" data-name="Trazado 876636" d="M18.143,64.1H59.266v2.419H18.143Z" fill="#f0ae42"/>
          </g>
          <path id="Trazado_876637" data-name="Trazado 876637" d="M38.7,53.219,53.523,34.695a20.69,20.69,0,0,0,4.533-12.924,19.352,19.352,0,0,0-38.7,0,20.69,20.69,0,0,0,4.533,12.923Z" fill="#4d8c28"/>
          <path id="Trazado_876638" data-name="Trazado 876638" d="M44.147,46.409c6,1.022,10.281,3.685,10.281,6.81,0,4.008-7.039,7.257-15.724,7.257s-15.724-3.249-15.724-7.257c0-3.124,4.277-5.788,10.281-6.81l5.443,6.81Z" fill="#d5883e"/>
          <circle id="Elipse_11533" data-name="Elipse 11533" cx="14.514" cy="14.514" r="14.514" transform="translate(24.19 7.257)" fill="#6bc13b"/>
          <path id="Trazado_876639" data-name="Trazado 876639" d="M24.648,25.4a14.55,14.55,0,0,1,2.267-12.1h3.929a3.024,3.024,0,1,1,0,6.048,1.814,1.814,0,0,0-1.814,1.814A4.233,4.233,0,0,1,24.8,25.4Z" fill="#3d54bd"/>
          <path id="Trazado_876640" data-name="Trazado 876640" d="M49.521,31.447h-3.56a2.419,2.419,0,0,1-2.419-2.419,2.419,2.419,0,0,0-2.419-2.419H37.495a2.419,2.419,0,1,1,0-4.838h3.629a2.419,2.419,0,1,0,0-4.838,2.419,2.419,0,0,1,0-4.838h8.4a14.514,14.514,0,0,1,0,19.352Z" fill="#3d54bd"/>
          <path id="Trazado_876641" data-name="Trazado 876641" d="M76,70.547,66.052,38.48a4.815,4.815,0,0,0-4.62-3.4h-6.69a21.965,21.965,0,0,0,4.525-13.3,20.562,20.562,0,0,0-41.124,0,21.965,21.965,0,0,0,4.525,13.3h-6.69a4.815,4.815,0,0,0-4.62,3.4L1.405,70.547A4.354,4.354,0,0,0,5.57,76.2H71.845a4.354,4.354,0,0,0,4.164-5.652ZM38.7,3.629A18.163,18.163,0,0,1,56.847,21.771,19.549,19.549,0,0,1,52.579,33.94L38.7,51.283,24.83,33.94a19.549,19.549,0,0,1-4.268-12.169A18.163,18.163,0,0,1,38.7,3.629ZM37.76,53.973a1.21,1.21,0,0,0,1.889,0l4.993-6.241c5.009,1,8.577,3.25,8.577,5.486,0,2.861-5.96,6.048-14.514,6.048S24.19,56.079,24.19,53.219c0-2.236,3.568-4.491,8.577-5.486ZM71.845,73.78H5.57a1.942,1.942,0,0,1-1.854-2.517L13.668,39.2a2.407,2.407,0,0,1,2.31-1.7h8.6l2.9,3.629H16.933v2.419H29.415l1.669,2.086c-5.716,1.393-9.313,4.266-9.313,7.59,0,4.747,7.437,8.467,16.933,8.467s16.933-3.719,16.933-8.467c0-3.324-3.6-6.2-9.313-7.59l1.669-2.086H60.476V41.124H49.929l2.9-3.629h8.6a2.407,2.407,0,0,1,2.31,1.7l9.952,32.067a1.942,1.942,0,0,1-1.848,2.517Z"/>
          <path id="Trazado_876642" data-name="Trazado 876642" d="M38.7,37.495A15.724,15.724,0,1,0,22.981,21.771,15.724,15.724,0,0,0,38.7,37.495Zm13.3-15.724a13.243,13.243,0,0,1-3.049,8.467h-3a1.21,1.21,0,0,1-1.21-1.21A3.629,3.629,0,0,0,41.124,25.4H37.495a1.21,1.21,0,0,1,0-2.419h3.629a3.629,3.629,0,1,0,0-7.257,1.21,1.21,0,0,1,0-2.419H48.96a13.243,13.243,0,0,1,3.049,8.467ZM46.33,10.886H41.124a3.629,3.629,0,0,0,0,7.257,1.21,1.21,0,1,1,0,2.419H37.495a3.629,3.629,0,0,0,0,7.257h3.629a1.21,1.21,0,0,1,1.21,1.21,3.629,3.629,0,0,0,3.629,3.629h.363a13.266,13.266,0,0,1-20.078-6.268,5.436,5.436,0,0,0,3.991-5.223.6.6,0,0,1,.6-.6,4.233,4.233,0,1,0,0-8.467H29.6A13.231,13.231,0,0,1,46.33,10.886ZM27.567,14.514h3.275a1.814,1.814,0,0,1,0,3.629,3.024,3.024,0,0,0-3.024,3.024,3.024,3.024,0,0,1-2.207,2.9,13.063,13.063,0,0,1,1.956-9.555Z"/>
          <path id="Trazado_876643" data-name="Trazado 876643" d="M10.886,68.942H66.523v2.419H10.886Z"/>
          <path id="Trazado_876644" data-name="Trazado 876644" d="M18.143,64.1H59.266v2.419H18.143Z"/>
        </g>
      </g>
    </g>
  </g>
</svg>
