<svg xmlns="http://www.w3.org/2000/svg" xmlns:xlink="http://www.w3.org/1999/xlink" width="105.096" height="97.703" viewBox="0 0 105.096 97.703">
  <defs>
    <filter id="Trazado_876162" x="0" y="0" width="105.096" height="97.703" filterUnits="userSpaceOnUse">
      <feOffset dy="3" input="SourceAlpha"/>
      <feGaussianBlur stdDeviation="3" result="blur"/>
      <feFlood flood-opacity="0.161"/>
      <feComposite operator="in" in2="blur"/>
      <feComposite in="SourceGraphic"/>
    </filter>
  </defs>
  <g id="Grupo_1102944" data-name="Grupo 1102944" transform="translate(9 5.999)">
    <g transform="matrix(1, 0, 0, 1, -9, -6)" filter="url(#Trazado_876162)">
      <path id="Trazado_876162-2" data-name="Trazado 876162" d="M0,0V79.7H66.282L87.095,38.977,66.282,0Z" transform="translate(96.09 85.7) rotate(180)" fill="#56e9cc"/>
    </g>
    <g id="fotografo_1_" data-name="fotografo (1)" transform="translate(30.524 8.884)">
      <g id="Grupo_1102938" data-name="Grupo 1102938" transform="translate(0.814 0.999)">
        <g id="Grupo_1102914" data-name="Grupo 1102914" transform="translate(36.148 27.971)">
          <path id="Trazado_876531" data-name="Trazado 876531" d="M52.994,41.988v4H47V30a15.255,15.255,0,0,1,1.6,1.4c.13.13.27.27.39.41A14.869,14.869,0,0,1,52.994,41.988Z" transform="translate(-47 -30)" fill="#99abc6"/>
        </g>
        <g id="Grupo_1102915" data-name="Grupo 1102915" transform="translate(18.167 25.973)">
          <path id="Trazado_876532" data-name="Trazado 876532" d="M42.986,28V61.965H29a2,2,0,0,0,2-2V51.975a2,2,0,0,0-.849-1.628,35.055,35.055,0,0,0,4.745-5.464c.979-1.349,1.908-2.777,2.777-4.216C40.758,35.532,42.986,30.248,42.986,28Z" transform="translate(-29 -28)" fill="#99abc6"/>
        </g>
        <g id="Grupo_1102916" data-name="Grupo 1102916" transform="translate(14.171 24.974)">
          <path id="Trazado_876533" data-name="Trazado 876533" d="M37.937,27.15l.05-.15c.22,0,.44,0,.659.02a46.87,46.87,0,0,1-4.605,10.03c-.849,1.439-1.768,2.887-2.737,4.256A31.8,31.8,0,0,1,25,48.3V27.859A14.823,14.823,0,0,1,29.995,27l.05.15A4.167,4.167,0,0,0,33.991,30a4.123,4.123,0,0,0,2.427-.789A4.219,4.219,0,0,0,37.937,27.15Z" transform="translate(-25 -27)" fill="#99abc6"/>
        </g>
        <g id="Grupo_1102917" data-name="Grupo 1102917" transform="translate(4.181 27.971)">
          <path id="Trazado_876534" data-name="Trazado 876534" d="M20.994,30V45.983H15v-4a14.869,14.869,0,0,1,4.006-10.179c.12-.14.26-.28.39-.41A15.257,15.257,0,0,1,20.994,30Z" transform="translate(-15 -30)" fill="#99abc6"/>
        </g>
        <g id="Grupo_1102918" data-name="Grupo 1102918" transform="translate(29.745 8.991)">
          <path id="Trazado_876535" data-name="Trazado 876535" d="M44.116,18.113a2.992,2.992,0,0,0-.04-4.276l.3-.6a5.7,5.7,0,0,0,.6-2.238h6.014a2,2,0,0,1,2,2v5.994a2,2,0,0,1-2,2H40.59a5.1,5.1,0,0,0,.41-2h1A2.99,2.99,0,0,0,44.116,18.113Z" transform="translate(-40.59 -11)" fill="#e6eaf1"/>
        </g>
        <g id="Grupo_1102919" data-name="Grupo 1102919" transform="translate(4.181 8.991)">
          <path id="Trazado_876536" data-name="Trazado 876536" d="M25.989,18.992h1a5.1,5.1,0,0,0,.41,2H17a2,2,0,0,1-2-2V13a2,2,0,0,1,2-2h5.994v.16a5.12,5.12,0,0,0,.27,1.638l.42,1.279a3,3,0,0,0,2.308,4.915Z" transform="translate(-15 -11)" fill="#e6eaf1"/>
        </g>
        <g id="Grupo_1102920" data-name="Grupo 1102920" transform="translate(12.173 0)">
          <path id="Trazado_876537" data-name="Trazado 876537" d="M40.971,5l.769.38a5.841,5.841,0,0,1,3.237,5.235,2.418,2.418,0,0,1-.02.38,5.7,5.7,0,0,1-.6,2.238l-.3.6a2.981,2.981,0,0,0-2.078-.839h-1v-2H37.455a18.855,18.855,0,0,1-8.461-2,3.61,3.61,0,0,0-2,3.237v.759H26a3,3,0,0,0-2.308,1.079l-.42-1.279A5.12,5.12,0,0,1,23,11.151v-.16a5.015,5.015,0,0,1,1.458-3.456L25,6.995A4.98,4.98,0,0,1,29.993,2h8.082a2.9,2.9,0,0,1,2.907,2.907A.276.276,0,0,1,40.971,5Z" transform="translate(-23 -2)" fill="#656d78"/>
        </g>
        <g id="Grupo_1102921" data-name="Grupo 1102921" transform="translate(26.368 18.98)">
          <path id="Trazado_876538" data-name="Trazado 876538" d="M46.99,29.991l-4-2.138a14.521,14.521,0,0,0-4.336-.839c-.22-.02-.44-.02-.659-.02l-.789-3.147A4.953,4.953,0,0,0,40.577,21h8.411V31.789l-.01.01c-.12-.14-.26-.28-.39-.41A15.255,15.255,0,0,0,46.99,29.991Z" transform="translate(-37.21 -21)" fill="#e6eaf1"/>
        </g>
        <g id="Grupo_1102922" data-name="Grupo 1102922" transform="translate(8.177 18.98)">
          <path id="Trazado_876539" data-name="Trazado 876539" d="M24.994,27.853a15.077,15.077,0,0,0-4,2.138,15.256,15.256,0,0,0-1.6,1.4c-.13.13-.27.27-.39.41l-.01-.01V21h8.411a4.953,4.953,0,0,0,3.367,2.847l-.789,3.147A14.823,14.823,0,0,0,24.994,27.853Z" transform="translate(-19 -21)" fill="#e6eaf1"/>
        </g>
        <g id="Grupo_1102923" data-name="Grupo 1102923" transform="translate(32.152 25.833)">
          <path id="Trazado_876540" data-name="Trazado 876540" d="M43,27.86,47,30V61.965H43V27.86Z" transform="translate(-43 -27.86)" fill="#969faa"/>
        </g>
        <g id="Grupo_1102924" data-name="Grupo 1102924" transform="translate(10.175 25.833)">
          <path id="Trazado_876541" data-name="Trazado 876541" d="M25,48.3a6.984,6.984,0,0,1-4,1.678V30a15.077,15.077,0,0,1,4-2.138Z" transform="translate(-21 -27.86)" fill="#969faa"/>
        </g>
        <g id="Grupo_1102925" data-name="Grupo 1102925" transform="translate(36.148 43.954)">
          <path id="Trazado_876542" data-name="Trazado 876542" d="M47,46h5.994V61.983H47Z" transform="translate(-47 -46)" fill="#f0d0b4"/>
        </g>
        <g id="Grupo_1102926" data-name="Grupo 1102926" transform="translate(4.181 43.954)">
          <path id="Trazado_876543" data-name="Trazado 876543" d="M20.994,46v4H15V46Z" transform="translate(-15 -46)" fill="#f0d0b4"/>
        </g>
        <g id="Grupo_1102927" data-name="Grupo 1102927" transform="translate(23.211 24.994)">
          <path id="Trazado_876544" data-name="Trazado 876544" d="M42.991,27.859V28c0,2.248-2.228,7.532-5.314,12.667L34.07,37.06l-.02-.01a46.87,46.87,0,0,0,4.605-10.03A14.521,14.521,0,0,1,42.991,27.859Z" transform="translate(-34.05 -27.02)" fill="#cf9e76"/>
        </g>
        <g id="Grupo_1102928" data-name="Grupo 1102928" transform="translate(10.175 39.279)">
          <path id="Trazado_876545" data-name="Trazado 876545" d="M21,49.991a6.984,6.984,0,0,0,4-1.678,31.8,31.8,0,0,0,6.3-6.993h.01L34.886,44.9a35.055,35.055,0,0,1-4.745,5.464,1.924,1.924,0,0,0-1.149-.37H21Z" transform="translate(-21 -41.32)" fill="#cf9e76"/>
        </g>
        <g id="Grupo_1102929" data-name="Grupo 1102929" transform="translate(20.474 35.024)">
          <path id="Trazado_876546" data-name="Trazado 876546" d="M34.067,37.07l3.606,3.606c-.869,1.439-1.8,2.867-2.777,4.216L31.32,41.316h-.01c.969-1.369,1.888-2.817,2.737-4.256Z" transform="translate(-31.31 -37.06)" fill="#ffeaa7"/>
        </g>
        <g id="Grupo_1102930" data-name="Grupo 1102930" transform="translate(14.171 47.95)">
          <path id="Trazado_876547" data-name="Trazado 876547" d="M25,50h4a1.924,1.924,0,0,1,1.149.37A2,2,0,0,1,30.994,52V59.99a2,2,0,0,1-2,2H25a2,2,0,0,0,2-2V52A2,2,0,0,0,25,50Z" transform="translate(-25 -50)" fill="#aab2bd"/>
        </g>
        <g id="Grupo_1102931" data-name="Grupo 1102931" transform="translate(4.181 47.95)">
          <path id="Trazado_876548" data-name="Trazado 876548" d="M20.994,50h4a2,2,0,0,1,2,2V59.99a2,2,0,0,1-2,2H17a2,2,0,0,1-2-2v-2h4A4,4,0,0,0,19,50Z" transform="translate(-15 -50)" fill="#ccd1d9"/>
        </g>
        <g id="Grupo_1102932" data-name="Grupo 1102932" transform="translate(4.181 47.95)">
          <path id="Trazado_876549" data-name="Trazado 876549" d="M15,57.992A4,4,0,0,0,15,50h4a4,4,0,0,1,0,7.992Z" transform="translate(-15 -50)" fill="#4fc1e9"/>
        </g>
        <g id="Grupo_1102933" data-name="Grupo 1102933" transform="translate(0 47.913)">
          <circle id="Elipse_11523" data-name="Elipse 11523" cx="4.07" cy="4.07" r="4.07" transform="translate(0 0)" fill="#69d6f4"/>
        </g>
        <g id="Grupo_1102934" data-name="Grupo 1102934" transform="translate(30.154 10.989)">
          <path id="Trazado_876550" data-name="Trazado 876550" d="M44.077,13.839A3,3,0,0,1,42,18.994H41V13h1a2.981,2.981,0,0,1,2.078.839Z" transform="translate(-41 -13)" fill="#f0d0b4"/>
        </g>
        <g id="Grupo_1102935" data-name="Grupo 1102935" transform="translate(19.166 21.827)">
          <path id="Trazado_876551" data-name="Trazado 876551" d="M37.2,23.85,37.992,27l-.05.15A4.219,4.219,0,0,1,36.423,29.2,4.123,4.123,0,0,1,34,29.994a4.167,4.167,0,0,1-3.946-2.847L30,27l.789-3.147A4.828,4.828,0,0,0,32,24h4A4.828,4.828,0,0,0,37.2,23.85Z" transform="translate(-30 -23.85)" fill="#f0d0b4"/>
        </g>
        <g id="Grupo_1102936" data-name="Grupo 1102936" transform="translate(16.169 6.993)">
          <path id="Trazado_876552" data-name="Trazado 876552" d="M37.2,23.835a4.828,4.828,0,0,1-1.209.15h-4a4.828,4.828,0,0,1-1.209-.15,4.953,4.953,0,0,1-3.367-2.847h-.01a5.1,5.1,0,0,1-.41-2V12.237A3.61,3.61,0,0,1,29,9a18.855,18.855,0,0,0,8.461,2h3.526V18.99a5.1,5.1,0,0,1-.41,2h-.01A4.953,4.953,0,0,1,37.2,23.835Z" transform="translate(-27 -9)" fill="#f0d0b4"/>
        </g>
        <g id="Grupo_1102937" data-name="Grupo 1102937" transform="translate(12.173 10.989)">
          <path id="Trazado_876553" data-name="Trazado 876553" d="M27,13v5.994H26A3,3,0,1,1,26,13Z" transform="translate(-23 -13)" fill="#f0d0b4"/>
        </g>
      </g>
      <g id="Grupo_1102939" data-name="Grupo 1102939" transform="translate(0 0)">
        <circle id="Elipse_11524" data-name="Elipse 11524" cx="0.814" cy="0.814" r="0.814" transform="translate(20.349 12.284)"/>
        <circle id="Elipse_11525" data-name="Elipse 11525" cx="0.814" cy="0.814" r="0.814" transform="translate(26.047 12.284)"/>
        <path id="Trazado_876554" data-name="Trazado 876554" d="M35,19H31v2h4a3,3,0,0,0,3-3h-2A1,1,0,0,1,35,19Z" transform="translate(-10.022 -1.018)"/>
        <circle id="Elipse_11526" data-name="Elipse 11526" cx="0.814" cy="0.814" r="0.814" transform="translate(4.07 52.168)"/>
        <path id="Trazado_876555" data-name="Trazado 876555" d="M50.958,21.978a3,3,0,0,0,3-3V12.988a3,3,0,0,0-3-3H45.92a6.8,6.8,0,0,0-3.742-5.507l-.267-.133A3.894,3.894,0,0,0,38.066,1H29.979A6,6,0,0,0,24,6.564l-.258.258a5.916,5.916,0,0,0-1.651,3.169h-5.1a3,3,0,0,0-3,3v5.994a3,3,0,0,0,3,3h1v9.443a15.9,15.9,0,0,0-4,10.536v7.094a4.995,4.995,0,0,0,0,9.788v1.1a3,3,0,0,0,3,3H53.954V41.958a15.9,15.9,0,0,0-4-10.536V21.978Zm1-8.991v5.994a1,1,0,0,1-1,1H41.967a3.986,3.986,0,0,0,3.263-6.289l.01-.021a6.842,6.842,0,0,0,.572-1.682h5.146a1,1,0,0,1,1,1Zm-9.99,1a2,2,0,0,1,0,4ZM25.156,8.234l.827-.827V6.994a4,4,0,0,1,4-4h8.087a1.9,1.9,0,0,1,.6,3.71l-1.012.338.632,1.894L39.3,8.6a3.887,3.887,0,0,0,2.328-2.13,4.812,4.812,0,0,1,2.339,4.136,4.864,4.864,0,0,1-.335,1.754,3.965,3.965,0,0,0-1.663-.374v-2H37.444A18,18,0,0,1,29.428,8.1l-.448-.223-.447.224A4.581,4.581,0,0,0,26,11.989h-.016a3.945,3.945,0,0,0-1.793.445,4.365,4.365,0,0,1-.2-1.373,3.971,3.971,0,0,1,1.171-2.826Zm20.806,52.7h-2v-31.6a14.043,14.043,0,0,1,2,1.156ZM29.322,28.005a5.144,5.144,0,0,0,6.986,2.408c-2.267,5.181-6.435,11.939-10.324,15.7V28.561A13.9,13.9,0,0,1,29.322,28.005Zm5.413,15.3-2.148-2.148c.565-.829,1.113-1.675,1.637-2.53l2.152,2.152q-.788,1.284-1.641,2.526Zm-10.75,4.476a7.139,7.139,0,0,1-2,1.013V30.5a13.947,13.947,0,0,1,2-1.156Zm-4,1.171h-4v-2h4Zm-1,2a3,3,0,1,1,0,5.994h-.026a4.894,4.894,0,0,0,0-5.994Zm6.7-2a31.231,31.231,0,0,0,5.723-6.142l2.141,2.141a33.508,33.508,0,0,1-3.622,4.171,2.96,2.96,0,0,0-.954-.17Zm5.824,1.419c3.909-3.836,8.065-10.474,10.45-15.8V60.938H31.793a2.963,2.963,0,0,0,.184-1V51.947a2.964,2.964,0,0,0-.461-1.578ZM37.428,39l-2.151-2.151a49.935,49.935,0,0,0,4.077-8.81,13.843,13.843,0,0,1,2.555.5C41.608,30.6,39.865,34.738,37.428,39Zm-.5-12.085a3.148,3.148,0,0,1-5.9,0l.49-1.964c.154.011.308.023.464.023h4c.156,0,.31-.012.464-.023Zm-.954-3.94h-4a4,4,0,0,1-4-4V12.224a2.6,2.6,0,0,1,1.053-2.1,20.03,20.03,0,0,0,8.409,1.863h2.525v6.993A4,4,0,0,1,35.973,22.977Zm-9.99-8.991v4a2,2,0,1,1,0-4Zm-9.99,4.995V12.988a1,1,0,0,1,1-1h5.063a6.192,6.192,0,0,0,.25,1.116l.273.817a3.974,3.974,0,0,0,3.405,6.059H16.993a1,1,0,0,1-1-1Zm10.8,3a6.027,6.027,0,0,0,2.781,2.491L29.2,25.993A15.889,15.889,0,0,0,19.99,29.51V21.978Zm-6.8,10.21V44.954h-4v-3A13.932,13.932,0,0,1,19.99,32.189ZM12,53.945a3,3,0,1,1,3,3A3,3,0,0,1,12,53.945Zm11.988,6.993H16.993a1,1,0,0,1-1-1v-1h3a5,5,0,0,0,4.995-4.995,4.943,4.943,0,0,0-1.025-3h2.024a1,1,0,0,1,1,1v7.992a1,1,0,0,1-1,1Zm4,0H27.8a2.963,2.963,0,0,0,.184-1V51.947a2.963,2.963,0,0,0-.184-1H28.98a1,1,0,0,1,1,1v7.992a1,1,0,0,1-1,1Zm19.979,0V46.952h4V60.938Zm4-15.983h-4V32.189a13.936,13.936,0,0,1,4,9.769Zm-4-15.444a15.889,15.889,0,0,0-9.205-3.517l-.381-1.523a6.022,6.022,0,0,0,2.781-2.491h6.8Z" transform="translate(-10 -1)"/>
      </g>
    </g>
  </g>
</svg>
